<?xml version="1.0" encoding="utf-8"?>
<!-- Generator: Adobe Illustrator 27.0.1, SVG Export Plug-In . SVG Version: 6.00 Build 0)  -->
<svg version="1.1" id="Layer_1" xmlns="http://www.w3.org/2000/svg" xmlns:xlink="http://www.w3.org/1999/xlink" x="0px" y="0px"
	 viewBox="0 0 900.5 653.3" style="enable-background:new 0 0 900.5 653.3;" xml:space="preserve">
<style type="text/css">
	.st0{fill:#E8F4FF;}
	.st1{fill:#C0DAFF;}
	.st2{fill:#A5C5FD;}
	.st3{fill:#E2EDFF;}
	.st4{fill:#733337;}
	.st5{fill:#3D4876;}
	.st6{fill:#E76D5F;}
	.st7{fill:#E8F4FE;}
	.st8{fill:#06456F;}
	.st9{fill:#C53B46;}
	.st10{fill:#FC8E69;}
	.st11{fill:#C1D9FB;}
	.st12{fill:#FD8E6A;}
	.st13{fill:#76A5FC;}
	.st14{fill:#A7C6FC;}
	.st15{fill:#403546;}
	.st16{fill:#E5F1FC;}
	.st17{fill:#30293A;}
	.st18{fill:#91ABD9;}
	.st19{fill:#FB785D;}
	.st20{fill:#74383C;}
	.st21{fill:#7D9FE0;}
	.st22{fill:#545B8C;}
	.st23{fill:#7F78C8;}
	.st24{fill:#D6E8FF;}
	.st25{fill:#FEFDFD;}
	.st26{fill:#4D2C33;}
	.st27{fill:#8FBCF8;}
	.st28{fill:#ABC4FD;}
	.st29{fill:#91B6E6;}
	.st30{fill:#CBE0FD;}
	.st31{fill:#FCFCFD;}
	.st32{fill:#DEDCE6;}
	.st33{fill:#FFFEFE;}
	.st34{fill:#C4564E;}
	.st35{fill:#2C3361;}
	.st36{fill:#B7DDFD;}
	.st37{fill:#094263;}
	.st38{fill:#BDBDCF;}
	.st39{fill:#F9A891;}
</style>
<path class="st0" d="M688.4,500.4c-6.9,1.3-13.8,0.5-20.7,0.6c-4.1,0-8.1-0.3-12.2-0.7c-5.6-0.5-11.2-1.4-16.8-1.8
	c-6.4-0.5-12.7-1.8-19.1-2.9c-3-0.5-6-1-9-1.7c-5.6-1.2-11.2-2.5-16.8-3.8c-2.7-0.7-5.4-1.5-8-2.4c-10.2-3.4-20.4-6.8-30.6-10.2
	c-1.8-0.6-3.7-1.1-5.8-1.8c-0.3-0.3-0.3-0.4-0.1-0.7c2.4-8.9,4.7-17.7,7-26.4c2.9-11.3,5.9-22.5,8.7-33.8c1.6-6.2,0.2-8.6-6.7-8.6
	c-95.8,0.1-191.5,0.1-287.3,0.1c-0.7,0-1.4,0-2,0c-3.4,0.1-4.9,1.3-5.7,4.6c-1.4,5.3-2.8,10.7-4.2,16c-3.2,12.5-6.4,25-9.6,37.5
	c-2.9,11.1-5.8,22.1-8.7,33.2c-0.4,1.6-0.6,3.3-1,5c-0.2,0-0.5,0-0.5,0c-1.8-0.2-3.5-0.5-5.3-0.7c-3.2-0.3-6.5-0.5-10-1
	c0-2.5,0.4-4.8,0.7-7c1.7-13.6,4.5-27.1,3.7-40.9c-0.1-0.9,0.1-1.8,0.2-2.7c0.4-4,0.9-7.9,1-11.9c1.1-23.3,0.9-46.5-1.1-69.9
	c4.8-2.4,4.8-2.4,5.1-7.5c0.1-0.8,0.1-1.6,0.1-2.4c-0.1-9.4-0.1-18.8-0.5-28.2c-0.6-14.8-1.3-29.7-2.1-44.5c-0.4-8-1-16.1-1.3-24.1
	c1.8,0.9,3.2,1.7,4.7,2.5c7.8,4.3,15.7,8.3,24.3,10.5c3.9,1,7.8,1.5,11.8,1c1.3-0.2,2.2-0.6,2.4-2.2c2.5-4.8,5.1-9.3,7.1-14.1
	c2.7-6.6,5-13.3,7.8-20c58,0,115.7,0,173.4,0c2.4,0,4.8,0,7.2,0.1c0.5,0.8,0.8,1.9,1.6,2.5c6.2,4.5,12.3,9.1,18.6,13.4
	c4.9,3.3,10.2,6.3,15.3,9.4c0.3,0.2,0.4,0.5,0.4,1c-2.2,0.3-4.1,0.3-6.1,0.3c-66.1,0-132.2,0-198.3,0c-4.1,0-5.4,1-6.4,5
	c-1.9,7.2-3.8,14.4-5.7,21.7c-2.2,8.2-4.3,16.4-6.5,24.6c-2.4,9.2-4.9,18.4-7.3,27.6c-2.5,9.7-5,19.5-7.5,29.3
	c-0.8,3.2,0.7,5.7,3.8,6.4c0.9,0.2,1.8,0.1,2.7,0.1c8,0,15.9,0,24,0.3c1.1,1.7,2.6,1,3.8,1c38.9,0,77.7,0,116.6,0
	c0.8,0,1.6,0.2,2.4-0.1c0.8-0.2,1.5-0.8,2.5-1.3c9.4,0,18.5,0,27.6,0.3c0.5,0.5,1,1,1.4,1c9,0,17.9,0.1,26.9,0
	c0.9,0,1.7-0.8,2.9-1.3c26.8,0,53.2,0,79.7,0c0.9,0,1.8,0,2.7,0c2.6-0.2,4.3-1.5,5-3.9c0.6-1.9,1.1-3.9,1.6-5.9
	c2.4-9,4.7-17.9,7.1-26.9c2.8-10.8,5.7-21.6,8.5-32.5c2.1-8.1,4.2-16.2,6.4-24.4c1.7-4.9,3.3-9.6,4.8-14.3c4.5,0.5,8.7-0.8,13.1-1.6
	c6.1-1,12.2-2.1,18.3-3.2c4.3-0.8,8.7-1.5,13-2.2c6.9-1.1,13.8-2.2,20.7-3.2c1.7-0.3,3.3-0.4,5.5-0.5c3.1,5.7,5.6,11.3,8.4,16.8
	c1.7,3.2,3.5,6.4,5.7,9.3c4.1,5.5,7,5.7,12.1,1.1c4.1-3.6,8-7.5,12-11.1c0.9-0.8,2-1.4,3-1.8c0.1,1,0.2,1.6,0.2,2.3
	c0.6,6.8,1.3,13.5,1.6,20.3c0.2,3.4-0.1,3.4,3.3,5.2c-0.1,0.9-0.1,1.5-0.2,2.3c-0.2,2.4-0.3,4.5-0.2,6.6c0.1,1.8,0.3,3.5,0.5,5.5
	c0,0.6-0.1,0.9-0.3,1.3c-0.6,0.5-1.1,0.9-1.5,1.1c-10.2,6-20.5,12-30.7,18.1c-2.5,1.5-2.6,1.9-1.1,4.5c1.6,2.6,3,5.3,4.6,7.9
	c3,5.1,5.9,10.1,8.9,15.2c2.6,4.4,5.1,8.8,7.6,13.2c0.3,0.5,0.2,1.1,0.3,1.9c-1.4,8.1-2.7,15.8-4,23.6c-0.6,3.3-1,6.7-1.6,10.2
	c-5,23.9-9.9,47.7-14.7,71.7c2.9,0.1,5.4,0.2,8,0.6C689.2,492.6,688.8,496.5,688.4,500.4z"/>
<path class="st1" d="M592.2,287.5c-2.1,8.1-4.1,16.2-6.3,24.3c-2.8,10.8-5.7,21.6-8.5,32.5c-2.4,9-4.7,17.9-7.1,26.9
	c-0.5,2-1,4-1.6,5.9c-0.7,2.4-2.5,3.7-5,3.9c-0.9,0.1-1.8,0-2.7,0c-26.5,0-52.9,0-79.9-0.2c-1-0.3-1.4-0.5-1.8-0.5c-9,0-18,0-27,0
	c-0.7,0-1.4,0.4-2.2,0.7c-9.1,0-18.1,0-27.7-0.2c-1.4-0.3-2.3-0.5-3.2-0.5c-39.6,0-79.2,0-118.7,0c-1.1,0-2.1,0.4-3.2,0.7
	c-8,0-15.9,0-23.9,0c-0.9,0-1.8,0.1-2.7-0.1c-3.1-0.7-4.6-3.2-3.8-6.4c2.5-9.8,5-19.5,7.5-29.3c2.4-9.2,4.8-18.4,7.3-27.6
	c2.2-8.2,4.3-16.4,6.5-24.6c1.9-7.2,3.8-14.4,5.7-21.7c1-3.9,2.4-5,6.4-5c66.1,0,132.2,0,198.3,0c1.9,0,3.9,0,6.1-0.1
	c13.7,0,27.1,0,40.4,0c11.9,0,23.8,0,36.1,0.3c1.2,0.6,1.9,1,2.7,1.1c2.4,0.1,4.7,0,7.1,0.1c3.6,0.1,5,2,4.2,5.5
	c-0.3,1.1-0.6,2.2-0.9,3.3c-0.9,3-1.8,6-2.8,9.1C591,286.4,590.8,287.2,592.2,287.5 M531.7,359.7c3,0,5.9,0,8.9,0
	c2.5,0,3.5-0.9,3.7-3.4c0.2-2.3,0.3-4.6,0-6.8c-0.4-2.5-0.6-5.3-3.3-6.8c-2-1.1-4.1-2-6-3.1c-3.2-1.7-6.8-2.7-9.2-5.7
	c-2.4-2.9-2.3-6.7,0.2-9.4c1.1-1.1,1.9-2.5,2.8-3.8c0.5-0.6,0.9-1.6,1.4-1.8c3.4-0.6,4.6-3.5,6.1-6c1.3-2.2,0.9-3.1-1.7-4.4
	c0.7-1.7,1.5-3.3,1.9-5s0.3-3.6,0.4-5.4c0.2-7.6-5.2-10.9-10.6-11.5c-12.2-1.3-22.8,9.8-22.9,20.3c0,0.6-0.2,1.3-0.3,1.6
	c-1.3,0.6-2.5,0.9-3.2,1.6c-1.6,2-0.6,6.9,1.6,8.5c1.4,1,3.5,8.3,2.7,9.8c-0.7,1.3-1.5,2.5-2.4,3.7c-1.9,2.4-4.5,3.8-7.3,4.8
	c-3.8,1.5-7.7,2.7-11.5,4.3c-2.3,1-4.7,2.1-6.3,3.9c-3.2,3.4-5.2,7.7-6.6,12.2c-0.2,0.6,0,1.3,0,2.3
	C490.6,359.7,510.8,359.7,531.7,359.7 M333.8,337.9c23.1,0,46.1,0,69.2,0c1,0,2.1,0.1,3-0.1c0.6-0.2,1.5-0.8,1.6-1.4
	c0.1-0.7-0.3-2-0.8-2.3c-1.3-0.6-2.8-1-4.2-1c-32.3-0.1-64.5,0-96.8,0c-0.9,0-2-0.2-2.6,0.3c-0.8,0.6-1.6,1.7-1.7,2.6
	c-0.2,1.4,1,1.8,2.3,1.8c0.8,0,1.6,0,2.4,0C315.1,337.9,324.1,337.9,333.8,337.9 M331.7,291.5c12.9,0,25.7,0,38.6,0
	c13.4,0,26.8,0,40.3,0c1.2,0,2.5-0.1,3.6-0.6c0.6-0.3,1.1-1.5,1-2.2s-0.8-1.5-1.5-1.9c-0.6-0.3-1.6-0.1-2.3-0.1
	c-32.8,0-65.5,0-98.3,0c-0.8,0-1.8-0.2-2.3,0.1c-0.8,0.5-1.4,1.4-1.7,2.2c-0.1,0.4,0.7,1.4,1.3,1.6c1.4,0.4,2.9,0.7,4.3,0.8
	C320.1,291.5,325.6,291.5,331.7,291.5 M421.8,315.4c-24.1,0-48.2,0-72.4,0c-1,0-2.1-0.1-3,0.2c-1.3,0.4-2.1,1.3-2,2.8
	c0.1,1.4,1.2,1.8,2.4,1.8c0.5,0,0.9,0,1.4,0c32.8,0,65.5,0,98.3,0c1,0,2.1-0.1,3-0.5c1.8-0.9,1.8-2.8-0.1-3.6
	c-1.1-0.5-2.4-0.6-3.6-0.7C438,315.4,430.3,315.4,421.8,315.4 M404.1,346.8c-2.3,0-4.5,0-6.8,0c-2.4,0-3,0.5-3.6,2.7
	c-0.6,2.1-1,4.2-1.6,6.2c-0.7,2.7-0.4,3.2,2.4,3.3c0.5,0,0.9,0,1.4,0c16.1,0,32.3,0,48.4,0c0.7,0,1.4,0,2,0c1.5,0,2.3-0.6,2.6-2.1
	c0.5-2.2,1.3-4.3,1.8-6.6c0.2-1,0-2.2,0-3.6C435.2,346.8,420,346.8,404.1,346.8 M325.5,358.7c1,0.1,2,0.3,3,0.3
	c16.3,0,32.5,0,48.8,0c0.6,0,1.1,0,1.7,0c1.2,0,1.9-0.5,2.3-1.6c0.9-3.2,1.8-6.5,2.8-10.2c-1.8-0.2-3.1-0.4-4.4-0.4
	c-15.3,0-30.7-0.1-46,0c-7.6,0-6.2-1.3-8.3,6.6C324.9,355,323.9,356.6,325.5,358.7 M438.2,286.7c-3,0-5.9-0.1-8.9,0.1
	c-0.8,0-1.9,0.6-2.1,1.2s0.4,1.6,0.9,2.3c0.9,1.3,2.3,1.2,3.7,1.2c10.3,0,20.7,0,31,0c1,0,2-0.1,3-0.4c1.3-0.4,2.2-1.2,1.9-2.8
	c-0.3-1.4-1.4-1.6-2.6-1.6c-0.7,0-1.4,0-2,0C455.1,286.7,447,286.7,438.2,286.7 M307.9,320.2c5.3,0,10.7,0,16,0c3.6,0,7.3,0,10.9,0
	c1.4,0,2.5-0.3,2.6-1.9c0.1-1.3-0.9-2.5-2.5-2.8c-0.4-0.1-0.9-0.1-1.4-0.1c-9.1,0-18.2,0-27.2,0c-1,0-2.1,0.2-2.9,0.7
	c-0.6,0.4-1.4,1.5-1.2,2c0.2,0.8,1.1,1.6,1.9,1.9C305.1,320.4,306.2,320.2,307.9,320.2 M306.6,305.2c0.9,1.3,2.3,1.3,3.7,1.3
	c9.2,0,18.4,0,27.6,0c0.7,0,1.5,0.1,2-0.1c0.6-0.3,1.5-1,1.5-1.5c0-0.7-0.4-1.9-1-2.2c-1.1-0.6-2.4-0.9-3.6-0.9
	c-8.9-0.1-17.7,0-26.6,0C308.1,301.7,306.8,302.7,306.6,305.2z"/>
<path class="st2" d="M315.7,116c0.9,0,1.9,0,3.2,0.3c1.5,0.5,2.6,1,3.8,1c39,0,78,0,117,0c0.8,0,1.6,0.1,2.4-0.1
	c0.5-0.2,0.9-0.8,1.7-1.2c3.9,0,7.6,0,11.2,0c27.8,0,55.6,0,83.7,0c15.8,0,31.2,0,46.6,0c0.9,0,1.8-0.1,2.7,0c3,0.3,4.9,2.3,5,5.3
	c0,0.7,0,1.4-0.1,2.2c-0.3,0.5-0.4,0.9-0.6,1.6c-0.7,2.8-1.3,5.4-2.1,8.2c-0.7,2.6-1.3,5-2,7.4c-1.4,5-2.8,9.9-4.5,14.9
	c-0.7-0.1-1.2-0.2-1.6-0.3c-7.1-2.9-13.9-2.3-20.7,1c-0.8,0.4-1.7,0.4-2.6,0.4c0.1-1.3,0.2-2.3,0.4-3.3c0.8-3.4,1.7-6.8,2.4-10.2
	c0.2-0.8,0.3-1.8,0.1-2.6c-0.7-3-2.3-4-6.1-4c-21.3,0-42.5,0-63.8,0c-4.5,0-7.7,2.5-8.8,6.9c-5.3,21.3-10.7,42.7-16,64
	c-0.3,1.4-0.5,2.9-0.4,4.4c0.1,2.2,1.7,3.7,3.9,3.9c0.7,0.1,1.4,0,2,0c21.2,0,42.3-0.1,63.5,0.1c5.3,0.1,8.3-2.8,9.5-7.4
	c0.9-3.5,1.7-7,2.8-10.5c1.5,0.7,2.8,1.5,4.2,2c4,1.6,8.1,2.8,12.5,1.5c2.4-0.7,4.9-1,7.3-1.2c-2.1,8.7-4.2,17.2-6.4,25.6
	c-1.1,4.2-2.1,4.9-6.5,4.9c-17.5,0-35,0-52.7-0.2c-1.1-0.3-2-0.5-2.9-0.5c-46.9,0-93.9,0-140.8,0c-1.1,0-2.1,0.5-3.5,0.7
	c-21.6,0-42.9,0-64.2-0.1c-1.5,0-2.9-0.1-4.4-0.5c0.4-1.8,0.7-3.3,1.1-4.9c2-7,3.9-14.1,6-21.1c0.5-1.5,0.3-2.8,0-4.3
	c1.7-1.6,1.9-3.4,1.3-5.5c0.8-1.3,1.5-2.4,2.5-3.5c0.9,0.1,1.5,0.1,2.1,0.1c31.4,0,62.7,0,94.1,0c1.3,0,2.7-0.4,4-0.6
	c1.4-0.1,2.5-0.7,2.3-2.3s-1.2-2.4-2.7-2.5c-1-0.1-2,0-3.1,0c-30.8,0-61.6,0-92.3-0.3c1-1.4,1.4-3,3.3-3.5c3.4-1,5.1-3.6,5.4-7.1
	c0.1-0.7,0.2-1.3,0.5-1.9c0.5,0.2,0.9,0.4,1.2,0.4c4.7-0.1,9.4-1.2,14.1,0c1.8,0.4,3.3-0.8,3.5-2.4c0.1-1.6-1.1-2.9-3.1-2.9
	c-5.7,0-11.4,0-17.3,0c-1.1-0.9-2.5-1.7-2.6-2.6c-0.2-2.7-1.9-4.2-3.5-5.6c3.7,0,7.2-0.1,10.6-0.1c5.6,0,11.1,0,16.7,0
	c2.3,0,3.7-1.1,3.8-2.7c0-1.4-1-2.1-3.6-2.1c-9.3,0-18.6,0-28,0c-0.6,0-1.1,0-1.7,0c-1.2,0.1-1.9,0.7-2,1.9c0,0.8,0,1.6-0.1,2.5
	c-1.4-0.4-2.5-0.9-3.9-1.5c1.3-2.8,2.5-5.2,4-7.6c5.6,0,11-0.1,16.3-0.1c2.7,0,5.4-0.1,8.1,0c1.8,0,2.7-0.6,3-2.4
	c0.2-1.5,0.8-3,1.6-4.5c25.7,0,51,0,76.4,0c2.9,0,3.9-0.6,3.8-2.2c-0.1-1.5-0.9-1.9-3.7-1.9c-33,0-66,0-98.9,0
	c-1.1,0-2.1,0.5-3.5,0.7c-3.7,0-7.1,0-10.5,0c-3.3,0-6.7,0.2-10.3-0.2c1.7-6.6,3.3-12.7,4.8-18.8c1-3.9,2.3-4.9,6.5-4.9
	C303.2,116,309.5,116,315.7,116 M444,168c-32.7,0-65.5,0-98.2,0c-1,0-2.2-0.2-3,0.3s-1.6,1.6-1.7,2.6c-0.2,1.4,1,1.8,2.3,1.9
	c0.7,0,1.4,0,2,0c32.5,0,65,0,97.5,0c0.8,0,1.7,0.2,2.4-0.1c0.8-0.3,1.7-0.8,1.9-1.5c0.2-0.7-0.3-1.7-0.8-2.3
	C446,168.4,445.2,168.3,444,168 M419.8,211.6c0.6,0,1.1,0,1.7,0c6.8,0,13.6,0,20.5,0c1.5,0,3.1,0.1,3.6-1.8
	c0.9-3.2,1.7-6.5,2.6-10.2c-1.7-0.1-2.9-0.3-4.1-0.3c-16.4,0-32.7,0-49.1,0c-0.8,0-1.7-0.1-2.4,0.1c-0.7,0.2-1.5,0.8-1.6,1.4
	c-0.8,2.7-1.5,5.4-2.1,8.2c-0.3,1.6,0.3,2.3,2,2.5c0.8,0.1,1.6,0,2.4,0C401.8,211.6,410.5,211.6,419.8,211.6 M359.7,199.3
	c-3.9,0-7.7,0-11.6,0c-7.2,0-14.3,0-21.5,0c-1.4,0-2.8,0-3.2,1.7c-0.7,2.7-1.4,5.5-2.1,8.2c-0.3,1.2,0.3,2,1.5,2.2
	c0.9,0.1,1.8,0.1,2.7,0.1c16,0,32,0,48.1,0c0.7,0,1.4,0,2,0c1.4,0,2.4-0.8,2.7-2.1c0.7-2.6,1.4-5.3,2-7.9c0.3-1.2-0.3-2-1.6-2.1
	c-0.8-0.1-1.6-0.1-2.4-0.1C371.1,199.3,365.7,199.3,359.7,199.3 M430.8,143.4c7.5,0,15,0,22.5,0c3.1,0,6.1,0,9.2,0
	c1.3,0,2.6-0.2,2.6-1.9c0-1.3-1-2.1-2.8-2.2c-0.5,0-0.9,0-1.4,0c-10.9,0-21.8,0-32.7,0c-0.6,0-1.1,0-1.7,0c-1.3,0-2.2,0.6-2.3,2
	c0,1.6,1,2.1,2.4,2.1C427.8,143.4,429,143.4,430.8,143.4z"/>
<path class="st3" d="M538.2,116c-27.8,0-55.6,0-83.3,0.1c-3.6,0-7.3,0-11.4-0.2c-1.9-0.3-3.2-0.5-4.6-0.5c-35.3,0-70.6,0-105.9,0
	c-1.5,0-2.9-0.1-4.4-0.1c0.7-2.6,1.4-5.2,2.2-8.2c1-1,1.9-1.5,2.8-2c11.3-5.8,18.8-14.8,21.3-27.4c1.2-6,0.6-12.1-3.1-17.2
	c-1.9-2.6-4.5-4.7-6.7-7.1c0.7-3.3,1.3-6.7,2.3-9.9c0.6-1.9,2.4-3,4.5-3.2c0.9-0.1,1.8,0,2.7,0c95.8,0,191.5,0,287.3,0
	c0.7,0,1.4,0,2,0c4.1,0.2,6.2,3,5.2,6.9c-2.9,11.3-5.8,22.6-8.8,33.8c-2.1,7.9-4.2,15.7-6.3,23.6c-2.8,10.6-5.6,21.2-8.3,31.8
	c-1.2,4.5-2.2,9-3.4,13.5c-1.1,4.1-2.4,5.1-6.7,5.1c-7.4,0-14.8,0-22.5-0.2c1.7-7.8,3.6-15.3,5.7-22.7c0.9-3.3,0.4-5.9-2-8.6
	c0.6-3.6-1.2-5.7-3.8-7.2c-0.7-0.4-1.4-0.7-2.1-1.1c-2.6-1.2-5.2-2.2-7.7-3.6c-5.3-2.9-6.4-5.3-5.4-10.6c0.1-0.5,0.3-1.3,0.7-1.5
	c1.8-0.9,2.3-2.8,3.3-4.2c0.8-1.1,1.6-2,2.8-2.7c1.8-1,3.2-2.8,4.3-4.6c1.8-2.8,1.5-3.5-1.1-5.9c2.1-3.2,2.3-6.9,2.2-10.7
	c-0.2-3.9-3.9-8.8-7.6-9.9c-6-1.8-11.5-0.2-16.4,3.2c-3.7,2.6-6.8,6.1-8.2,10.6c-0.8,2.4-1.2,5-1.8,7.6c-1.5,0.4-3.4,0.7-3.5,2.9
	c-0.2,2.4-0.3,5.3,1.7,6.5c1.9,1.2,2.4,2.3,2.4,4.3c0,0.9,0.2,1.8,0.6,2.6c1,1.6,0.9,3.1,0,4.5c-1.2,1.7-2.5,3.5-4.1,4.8
	c-3.7,3-8.3,3.9-12.7,5.4C539.3,114.3,538.3,114.6,538.2,116 M418,94.2c25.4,0,50.7,0,76.1,0c1.7,0,3.4,0.2,5,0.5s3,0.1,4.1-1
	c0.5-0.4,0.8-1.5,0.6-2.1s-0.9-1.3-1.6-1.4c-1-0.3-2-0.1-3.1-0.1c-26.2,0-52.3,0-78.4-0.5c0.6-1,1-2,1.7-2.9
	c1.8-2.2,2.6-4.7,2.9-7.6c0.5-0.4,1.2-0.8,1.3-1.4c0.9-4.6,1.4-9.2,0.1-13.8c-2.2-7.6-6.9-13-14.6-15.2c-8.7-2.4-16.8-0.5-24.5,3.8
	c-5.7,3.1-10.2,7.6-14,13c-4,5.6-5.9,11.8-6.1,18.4c-0.2,6.5,2.1,12.1,7.2,16.6c3.7,3.3,7.8,5.3,12.8,5.3c1.7,0,3.5-0.4,5.7-0.6
	c1.2,0.2,2.6,0.8,3.6,0.4c3.4-1.2,6.9-2.3,9.9-4.1C410.6,99.4,413.9,96.7,418,94.2 M377.5,112.6c26.2,0,52.3,0,78.5,0
	c1,0,2.2,0.2,3-0.2c0.9-0.5,1.8-1.5,1.9-2.4c0.2-1.1-0.7-2.2-2.1-2.1c-0.8,0-1.6,0-2.4,0c-32.4,0-64.8,0-97.3,0
	c-0.8,0-1.7-0.2-2.4,0.1c-0.8,0.3-1.8,0.8-1.9,1.4c-0.2,0.7,0.2,1.9,0.8,2.3c0.8,0.6,2.1,0.9,3.1,0.9
	C364.7,112.7,370.7,112.6,377.5,112.6 M441.8,103.7c-1,0.1-2.2-0.3-3.6,1.2c1.7,0.1,2.7,0.2,3.8,0.2c19.1,0,38.2,0,57.3,0
	c0.6,0,1.2,0.1,1.7,0s1-0.4,1.5-0.7c0-0.3-0.1-0.5-0.1-0.8C482.4,103.7,462.4,103.7,441.8,103.7z"/>
<path class="st4" d="M696.6,416c0.5-3.3,0.9-6.7,1.4-10c1.3-7.8,2.7-15.6,4.3-23.6c3,4.3,5.7,8.9,8.5,13.6
	c13.9-8,27.6-15.9,41.3-23.9c-0.8-1.4-1.3-2.4-1.8-3.3c-3.6-6.4-7.3-12.8-10.6-19.3c2.5-0.4,4.8-0.7,7-1c2.8-0.4,5-1.7,7-3.8
	c2.8-3,5.5-6.1,8.7-8.6c9.1-7.1,18.4-14,27.6-20.9c0.6-0.4,1.4-0.6,2.3-0.7c3.9,6.2,6.6,12.7,8.2,19.6c2.1,8.7,2.3,17.6,2.4,26.4
	c0.1,17.3-0.2,34.5-0.4,51.8c-0.1,6.6-0.2,13.1-0.2,19.7c-0.1,1.2-0.4,2.5-0.4,3.7c-0.8,16.4-1.6,32.9-2.4,49.3
	c-0.1,1.3,0.3,2.9-2.2,3.3c-9.6,1.2-18.7,2.2-28.2,3.2c-11.7,0.6-23,1.3-34.6,1.9c-1.9,0-3.6,0-5.3,0.1c-4.1,0.2-8.1,0.5-12.5,0.7
	c-2.5,0-4.6,0-6.8,0c-0.3-0.8-0.7-1.4-0.9-2c-2.8-9-5.8-17.9-8.4-27c-2.6-9.3-4.7-18.7-5.6-28.6c-0.2-2.3-0.4-4.3-0.6-6.6
	c0.1-1.1,0.1-1.9,0.2-2.6C695.4,423.6,696,419.8,696.6,416z"/>
<path class="st0" d="M142.7,467.6c-1.3-0.9-2.7-1.7-3.8-2.8c-4.6-4.4-9.1-8.9-13.5-13.4c-2.1-2.2-4-4.6-5.9-7c-2-2.6-4.1-5.1-6-7.8
	c-3.7-5.3-7.3-10.6-10.8-16.1c-2.6-4.1-4.9-8.4-7-12.7c-3.6-7.4-7-15-10.2-22.6c-1.7-4.2-2.6-8.7-4.2-12.9c-2.5-6.5-3.7-13.3-5.2-20
	c-1.2-5.2-1.8-10.4-2.7-15.7c-1.8-11.1-1.3-22.4-1.4-33.6c0-6.9,1-13.7,1.9-20.6c0.9-7.1,2.4-14,4.3-20.9c1.8-6.5,3.7-13.1,6.2-19.4
	c3.2-8,6.9-15.9,10.8-23.7c3.4-6.9,7.5-13.4,12.2-19.5c4.9-6.5,9.8-13,14.8-19.4c0.5-0.7,1.2-1.3,1.9-2c5.7-5.7,11.3-11.5,17.2-17.1
	c2.6-2.5,5.5-4.6,8.7-6.8c0.8,1.4,1.2,2.7,1.7,4c3.2,8.3,7.3,15.9,13.3,22.8c-0.1,1-0.2,1.8-0.4,2.5c-0.5,2.2-1.1,4.5-1.9,6.8
	c-2.9,1.8-4.9,4.1-5.6,7.4c-5-0.1-9.5,0.8-13.1,3.8c-2.8,2.3-5.3,5-7.4,7.9c-3.6,4.9-5.5,10.7-7.1,16.5c-4,14.9-7,30-8.8,45.4
	c-0.6,5.2-0.6,10.4-0.8,15.6c-0.1,3.1,0.7,6.1,2.9,8.5c3.8,3.9,7.6,7.8,11.5,11.6c1.3,1.2,1.9,2.3,1.8,4.1
	c-0.5,7.6-0.9,15.2-1.3,22.8c-0.4,8.4-0.8,16.8-1.3,25.1c-0.2,2.4,0.6,3.9,2.9,4.6c0.4,0.1,0.8,0.4,1.2,0.9
	c-0.2,2.8-0.4,5.3-0.4,7.8c-0.4,14.6,0.4,29,2.7,43.4c1.2,8,2.8,15.9,6,23.3c0.8,1.9,1.1,3.5,0.1,5.5c-0.6,1.1-0.7,2.4-0.8,3.6
	C144.2,454.4,143.4,461,142.7,467.6z"/>
<path class="st5" d="M142.7,467.9c0.7-6.9,1.5-13.5,2.2-20.2c0.1-1.2,0.3-2.6,0.8-3.6c1-1.9,0.7-3.6-0.1-5.5
	c-3.2-7.5-4.8-15.4-6-23.3c-2.2-14.4-3.1-28.9-2.7-43.4c0.1-2.5,0.3-5,0.7-7.7c7.5,2.1,14.7,4.5,22,6.7c7.2,2.2,14.5,3.8,22.1,3.2
	c5.2-0.4,10.4-0.7,15.6-1.3c7.8-0.8,15.5-1.8,23.3-2.8c2.6-0.3,5.1-0.9,7.7-1.4c2.1,23.2,2.4,46.4,1.2,69.7c-0.2,4-0.7,7.9-1,11.9
	c-0.1,0.9-0.3,1.8-0.2,2.7c0.9,13.8-2,27.3-3.7,40.9c-0.3,2.2-0.7,4.5-1,7c-1.4,8.5-2.7,16.8-4.2,25c-1.8,10-3.6,20-5.6,30.5
	c-0.2,0.7-0.2,1-0.2,1.2c0,0.4,0,0.7-0.3,1.3c-0.9,0.2-1.5,0.3-2,0.2c-6.5-0.4-12.9-0.9-19.3-1.7c0.1-1.7,0.1-3,0-4.4
	c-0.7-15.5-1.4-31-2-46.5c-0.2-4.1-0.1-8.2-0.1-12.5c-0.1-8.6,0.9-16.8,2.7-24.9c1.8-7.7,3.7-15.4,5.5-23c0.2-0.6,0-1.3,0.1-2.3
	c-0.2-1.3-0.2-2.3-0.6-3.2c-5.7-12.5-10.1-25.4-14.7-38.3c-2.2-6.3-4.1-12.7-6.2-19c-0.3-1-0.2-2.6-2.3-2.6c0.1,0.8,0.2,1.4,0.4,2
	c2,6.4,4.1,12.7,6.1,19.1c0.6,1.8,0.7,3.8,1.1,5.9c-0.2,2.6-0.4,5-0.8,7.3c-1.5,8.6-2.9,17.2-4.6,25.7c-0.6,2.8-1.2,5.4,0.1,8.2
	c0.4,0.9,0.5,2,0.5,3c0.1,10.6,0.2,21.3,0.3,31.9c0,2.1-0.1,4.3-0.2,6.8c-0.4,7.8-0.7,15.3-1.1,22.8c-0.8,13.7-1.7,27.4-2.8,41.2
	c-0.7,0.2-1.1,0.5-1.5,0.5c-4.1,0.5-8.2,1-12.4,1.3c-2.3,0.2-4.6,0.1-6.9,0.1c-1.6-9.3-3.3-18.6-4.7-27.9
	c-1.7-10.9-3.2-21.8-4.6-32.7C142.1,486.6,141.7,477.4,142.7,467.9 M169.2,535.2c-0.7,4.7-0.5,15.9,0.6,18.4
	c0.2-1.1,0.4-1.8,0.4-2.5c0.2-5.8,0.5-11.5,0.7-17.3c0.3-8,0.5-16.1,0.7-24.1c0.3-13.6,0.4-27.2,0.7-40.9c0.1-2.9,0.5-5.9,0.6-8.8
	c0-0.5-0.4-1-0.6-1.6c-0.8,3.2-1.2,6.3-1.4,9.5c-0.4,7.2,0,14.5-0.6,21.8c-0.8,10.5-0.6,21.1-0.8,31.6
	C169.5,525.7,169.5,530.1,169.2,535.2 M225.7,375c-0.7,0.5-1.6,0.8-2.1,1.5c-2.7,3.3-6,3.8-9.8,2.3c-0.8-0.3-1.7-0.4-2.6-0.6
	c2.5,3.2,6.1,2.5,9.6,3.1c0.5,3.9,1,7.7,1.4,11.5c0.3,3.4,0.5,6.8,0.7,10.1c0.4,6.2,0.9,12.4,1.3,18.6c0.1,2.2-0.2,4.4,0.1,6.5
	c0.7,4.3,0.9,8.5,0,12.8c-0.2,0.8-0.6,2.1,1.1,2.8c0.3-1.6,0.8-3,0.8-4.4c-0.1-8.4-0.4-16.8-0.7-25.2c0-0.2,0-0.5-0.1-0.7
	c-0.4-4.4-0.9-8.8-1.3-13.1c-0.3-3.5-0.4-7-0.8-10.5c-0.2-2.5-0.5-5-1-7.4c-0.4-1.7-0.1-2.7,1.3-3.8
	C224.8,377.9,225.3,376.5,225.7,375 M163.7,445.7c1.4,0.4,2.7,0.8,4.3,1.2c-1.1-2-6.2-4-9.9-3.8c-2.4,0.2-5.1,0.2-7.1,3
	c2.4-0.4,4.2-0.9,6.1-1C159.1,445.1,161.1,445.4,163.7,445.7 M215.9,460.4c0.6,0.3,1.2,0.5,2.4,1.1c-3.6-5.2-14.3-8-17.6-4.7
	C206.2,456.2,211.1,457.2,215.9,460.4 M162.7,448.8c-3.8-0.5-6.3,0.1-7.6,2.1c2.4-0.1,4.9-0.5,7.3-0.3c2.3,0.2,4.5,1.1,7.2,1.8
	C167.2,449.8,167.2,449.8,162.7,448.8 M213.3,449.2c-0.7,0-1.4,0.1-2-0.1c-2.9-1-5.6,0-8.2,1.1c-0.5,0.2-0.8,0.8-1.2,1.1
	c5.2-1.2,10.1-1.4,15.5,0.6C216.4,450,215,449.8,213.3,449.2z"/>
<path class="st3" d="M549.2,475.1c0,0.1,0,0.2,0,0.5c-2.4,9.4-4.9,18.7-7.3,27.9c-1.1,4.2-2,8.5-3,12.8c-0.6,2.7-2.4,4.3-5.3,4.4
	c-1.8,0.1-3.6,0-6-0.1c-1.2-0.2-1.9-0.4-2.6-0.4c-15.6,0-31.3,0-46.9,0c-1,0-2,0.3-2.9,0.5c-68.6,0-137.1,0-205.7,0
	c-8.9,0-17.7-0.1-26.6,0c-6.4,0.1-7-3-6-8.1c0.7-3.3,1.6-6.6,2.4-10.1c0-0.3,0.3-0.3,0.8-0.3c2.6,0,4.8,0,7,0
	c3.6,0,7.3,0.1,10.9-0.1c5.7-0.3,11.5-0.8,17.2-1.3c2.9-0.2,5.8-0.5,8.7-0.9c3.6-0.4,7.1-0.8,11-1.2c17.1,0,33.9,0,50.6,0
	c0.9,0,1.8,0,2.7,0c1.6,0,2.6-0.8,2.9-2.3c0.7-3.1,1.4-6.1,2.3-9.4c2.7-1,5.3-1.9,7.9-2.6c5.8-1.6,11.6-3,17.3-4.7
	c10-2.8,20-5.7,30-8.6c13.6-3.8,27-8.1,40.9-10.9c6.6-1.3,13.3-2.5,20-3.6c1.1,1,2.2,1.9,3.2,2.7c0.2,2,1,3.9,1.5,5.8
	c0.3,1,0.5,2.3,0.1,3.1c-1.5,3.1-3.6,5.9-6.9,7.2c-4.4,1.8-8.8,3.5-13.2,5.3c-3,1.2-6.4,2.3-8.2,5.1c-2.3,3.6-4,7.6-6,11.4
	c-0.3,0.5-0.2,1.2-0.3,2.1c1.2,0,2.1,0,3,0c22.4,0,44.8,0,67.2,0c0.5,0,0.9,0,1.4,0c2.1-0.2,2.5-0.5,2.6-2.7s-0.1-4.3,0-6.5
	c0.3-4.6-1.7-7.5-5.9-9.3c-3.1-1.3-6.2-2.9-9.2-4.4c-4.1-2.1-5.6-5.3-4.7-9.8c0.1-0.6,0.5-1.2,1-1.6c2.3-1.7,3.5-4.1,4.7-6.6
	c1,0,1.7,0,2.5,0.2c2.5,1.1,5,2,7.5,2.8c3.6,1.2,7.2,2.4,10.9,3.6c4.6,1.5,9.2,3,13.8,4.6C539.2,471.7,544.2,473.4,549.2,475.1
	 M394.5,499c6.8,0,13.6,0,20.4,0c2.4,0,3-0.5,3.7-2.7c0.6-2.1,1.1-4.2,1.6-6.2c0.7-2.8,0.4-3.3-2.4-3.3c-3.4-0.1-6.8,0-10.2,0
	c-13.3,0-26.6,0-39.9,0c-3,0-3.4,0.2-4.2,2.9c-0.8,2.4-1.4,4.8-1.9,7.2c-0.3,1.2,0.4,2,1.6,2.1c0.9,0.1,1.8,0.1,2.7,0.1
	C375.2,499,384.5,499,394.5,499z"/>
<path class="st6" d="M714.2,304.2c-3.4-1.5-3.2-1.5-3.4-4.9c-0.4-6.8-1.1-13.6-1.6-20.3c-0.1-0.7-0.2-1.4-0.3-2.6
	c-0.2-2.9-0.4-5.2-0.4-7.4c0.7,0.8,1.4,1.5,1.7,2.2c1.9,4.8,3.7,9.7,5.6,14.6c0.3,0.7,0.8,1.4,1.2,2.1c0.2-0.1,0.5-0.2,0.7-0.3
	c-0.1-0.8-0.1-1.7-0.4-2.4c-0.7-2-1.4-4.1-2.2-6.1c-3.3-8.3-6-16.9-10.4-24.7c-1.2-2.2-2.3-4.4-3.3-6.7c-1.5-3.2-2.1-6.4-0.2-9.8
	c0.8-1.5,1.3-3.2,2.1-4.6c2.9-5.5,5.9-10.9,8.9-16.5c-1.5-0.8-2,0.1-2.6,1.2c-2.9,5.4-5.8,10.8-8.8,16.1c-3.2,5.8-3,11.3,0.2,17
	c1.5,2.6,2.6,5.5,3.6,8.3c-0.9-0.3-1.7-0.5-2.3-0.9c-1.9-1.5-3.7-3-5.6-4.6c-0.4-0.7-0.6-1.5-1.2-2c-2.3-2.1-2.1-4.3-0.8-7
	c4.4-9,8.6-18,12.8-27.1c3-6.5,7.2-11.8,13.9-15.5c2.1-1,3.8-2,5.6-2.6c2.1-0.7,4.3-1,6.3-1.3c-1.1,1.9-2.2,3.5-3.1,5.2
	c-1.2,2.2-2.4,4.4-3.2,6.7c-0.8,2.2,0.3,3.3,2.6,2.8c1.8-0.4,3.6-0.8,5.1-1.7c2.2-1.3,3.9-0.9,5.9,0.3c3.2,1.9,6.7,3.3,10.1,4.9
	c2.9,1.3,5.3,0.8,7.3-1.7c1.5-1.9,3.1-3.6,4.4-5.6c3-4.5,5.9-9.2,9-13.7c2.3,1.1,4.4,2.2,6.5,3.2c1.9,0.9,3.9,1.7,5.8,2.5
	c1.3,1,2.5,1.9,3.8,2.9c4.1,3.2,7.6,6.9,9.5,11.8c5.2,13.2,10.4,26.4,15.6,39.6c1.1,2.7,2,5.6,3,8.3c0.3,0.8,0.4,1.7,0.7,2.8
	c-1.7,0.6-3.3,1.2-5.4,1.9c-1.4,0.2-2.3,0.1-3.2,0.3c-5.5,1-11,2-16.4,3.1c-1.7,0.3-3.4,0.9-5.4,1.3c-1.3,0-2.5,0.1-3.8,0.1
	c0.6,6.5,1.5,12.8,2.7,19.2c-2.6,2.9-5.1,5.6-7.9,8.3c-1,0.1-1.6,0.2-2.3,0.3c-5.5,1-11.1,2.1-16.6,2.8c0.3-0.9,0.5-1.8,0.9-2.3
	c2.7-3.3,5.5-6.5,8.4-9.8c0.9-1.1,2-2,2.1-4.1c-1,0.6-1.6,1-2.1,1.5c-2.2,2.3-4.3,4.7-6.4,7c-1.7,1.9-3.2,3.8-4.9,5.6
	c-0.8,0.9-0.4,1.6-0.3,2.5c-1.2,0.2-2.2,0.4-3.3,0.4c-0.5,0-0.9,0.1-1.6,0.2c-2.4,0.2-4.6,0.6-6.7,0.6
	C734.2,306.1,724.1,306.2,714.2,304.2 M779.6,270.6c-0.3-1.2-0.7-2.4-1-3.6c-2.1-7.5-4.2-15-6.3-22.5c-1.3-4.6-2.6-9.1-3.9-13.7
	c-0.2-0.7-0.8-1.4-1.2-2.1c-0.3,0.1-0.6,0.2-0.9,0.4c1.1,4.2,2.2,8.5,3.3,12.7c-1.4-0.3-2.4-0.8-3.1-1.7c-1.8-2.3-3.5-4.7-5.2-7.1
	c-0.5-0.8-0.7-2-2.6-1.2c0.6,1.2,1,2.6,1.8,3.5c2.7,3,5.4,6.1,8.4,8.8c1.1,1.1,2,2,2.4,3.5c1.7,6.2,3.4,12.4,5.1,18.6
	c0.4,1.5,0.9,3,1.5,4.5C778.1,271.2,779.1,271.1,779.6,270.6 M775,214.6c-1.4,1.8-2.4,3.8-2.4,6.1c1.1,0.7,1.6,0.2,1.8-0.7
	c1.7-5.7,5.6-8.8,11.4-9.7c0.5-0.1,1-0.3,2-0.7c-0.9-0.6-1.5-1.2-1.9-1.2C781.7,209,778,210.7,775,214.6z"/>
<path class="st7" d="M332,143.3c-0.4,1.5-1,2.9-1.3,4.5c-0.3,1.8-1.2,2.5-3,2.4c-2.7-0.1-5.4,0-8.1,0c-5.3,0-10.6,0-16.3-0.2
	c-0.5-1.8-0.5-3.3-2.1-4.6c-1.4,1.7-2.8,3.3-4.4,4.8c-4.1-0.1-7.8,0-11.6-0.1c-1.8-0.1-2.8,0.7-3.1,2.4c-0.1,0.6-0.4,1.1-0.5,1.6
	c-2.8,11-5.6,21.9-8.5,32.9c-3.1,11.8-6.2,23.6-9.3,35.4c-0.6,2.4-0.8,4.6,0,7.2c-1.7,3.9-3.4,7.6-5.3,11.6c-1.2-1.1-2-1.9-2.9-2.6
	c-8.8-7.9-17.5-15.8-26.4-23.6c-5.4-4.7-11.4-8.7-18.4-10.7c-2.8-0.8-5.7-1.7-8.5-2.7c-0.6-1.1-1-2.2-1.7-2.9
	c-1.7-1.7-3.5-3.3-5.2-5.3c0.3-2.2-0.8-4.3,1.1-5.9c2.6-0.1,4.9-0.3,7.4-0.6c3.3-0.9,3.8-3.8,4.2-6.2c1-5.2,1.8-10.5,2.2-15.8
	c0.5-8.2,0.3-16.3-1.3-24.5c5.7-4.5,6.4-11.1,2.7-17.2c-1.2-2-2.7-3.9-4-5.8c1.3-0.6,2.6-1.2,4-1.7c5.6-1.8,11.2-3.5,16.8-5.2
	c0.8-0.2,1.5-0.7,2.3-0.6c2.3,0.1,3.6-0.5,3.7-3.2c0.1-1.7,1.8-2.9,3.6-3c0.8-0.1,1.6,0,2.4,0c3.4,0,3.4,0,4.7,3.2
	c2.9,0.5,5.5,0,7.7-2.2c1.6-1.5,7.3-1.5,8.9,0c1.1,1,2.2,1,3.4,1.1c4.9,0.2,9.7,0.3,14.6,0.7c4.3,0.4,8.5,1.2,12.7,2
	c3.9,0.7,7.7,1.7,11.6,2.6c2.8,0.7,5.7,1.5,8.5,2.4c1.1,0.4,2,1.3,3.1,2.2c-6.2,0.3-12.4,0.3-18.6,0.3c-4.2,0-5.5,1-6.5,4.9
	c-1.6,6.1-3.1,12.2-4.8,18.8c3.6,0.4,7,0.1,10.3,0.2c3.4,0,6.8,0,10.8,0c8.9,0,17.2,0,25.7,0C332.3,141.4,332.2,142.3,332,143.3
	 M253.3,133.8c-0.9,0-1.8-0.1-2.7-0.1c-5.6,0.1-5.5-1.1-7.2,5.5c-1,4-0.5,4.7,3.9,4.7c0.9,0,1.8,0.1,2.7,0c0.6-0.1,1.3-0.3,1.8-0.7
	C253.8,141.7,254.8,136.8,253.3,133.8z"/>
<path class="st8" d="M783.8,201.1c-2-0.5-3.9-1.3-5.8-2.2c-2.1-1-4.2-2.1-6.5-3.5c-2.3-2.5-4.4-4.7-6.6-7.2
	c-1.2-5.8-2.4-11.4-3.6-17.2c-0.1-0.4-0.2-0.6-0.3-0.8c0.1-0.1,0-0.3,0.1-0.4c0.6-0.8,1.1-1.4,1.7-2c2.1-2.4,3.3-5.1,3.9-8.2
	c0.3-1.5,0.4-3.1-1.2-3.9c-1.5-0.7-2.9-0.1-4,1c-1,1-1.8,2-3,3c-13.7-0.9-25.6-4.8-34.8-15.9c-0.3,1-0.4,1.4-0.5,1.8
	c-1.5,8.5-1.3,17-0.3,25.5c0.4,3.4,1.2,6.7,1.9,10c0.7,3.1,2.8,4.6,5.9,4.6c1.4,0,2.7,0,4.1,0c1.1,0,2.2,0,3.4,0
	c0.5,3.7-0.2,7-1.5,10.4c-1.2,0.7-2.2,1.4-3.2,2c-2.1,0.5-4.3,0.8-6.4,1.5c-1.8,0.6-3.5,1.6-5.4,2.4c-0.8-16.1-1.6-32.2-2-48.3
	c-0.1-4.5,0.9-9,1.3-13.5c0-0.5,0.2-0.9,0.2-1.3c0.3-9,5.6-14.7,13.1-18.4c10.1-4.9,20.6-5.3,31.1-1.1c7.7,3.1,13,8.4,15.4,16.6
	s3.4,16.7,3.8,25.2C785.2,174.4,784.9,187.6,783.8,201.1z"/>
<path class="st9" d="M207.5,117.3c1.6,2,3,3.9,4.2,5.9c3.7,6,3,12.7-2.9,17.3c-2.7,1.5-5.1,2.8-7.7,4.2c2.2,4.4,0.9,8.6-1.7,12.5
	c-0.8,1.2-0.5,2.3,0,3.5c0.6,1.6,1.1,3.2,1.4,4.8c0.3,1.4,0,2.8-1.9,2.6c-0.5-2.3-0.6-4.6-1.5-6.4c-1.6-3.4-4.5-3.6-6.8-0.6
	c-0.5,0.6-0.9,1.3-1.5,2.1c-2.5,3.7-2.2,7.5-1.5,11.3c0.7,4.2-0.2,5.6-4.4,6.2c-6.2,0.9-12.3,0.6-18.5-0.6
	c-6-6.6-10.2-14.2-13.3-22.5c-0.5-1.3-0.9-2.6-1.4-4c-0.5-4.6-1.4-9-0.4-13.4c0.2-1,0.5-2,0.7-3c0.5-2.4,1-4.8,1.5-7.3
	c1.5-6.7,5.5-14.9,15.8-16.7c8.2-1.4,16.3-1.1,24.2,1.3c0.4,0.1,0.8,0.3,1.2,0.4c2.1-3.4,3-3.9,6.7-2.4
	C202.4,114,204.8,115.8,207.5,117.3z"/>
<path class="st10" d="M695.2,436.9c0.9,9.6,3,19,5.6,28.3c2.6,9.1,5.5,18,8.4,27c0.2,0.6,0.5,1.2,0.9,2c2.2,0,4.3,0,6.8,0.3
	c0.2,1.3,0,2.2-0.2,3.5c-6.5,21.8-12.9,43.4-19.3,64.9c-0.3,0.9-0.4,1.8-0.4,2.6c0,1.9,0.2,3.8,0.2,5.9c-2.5,2-4.8,3.8-7,5.7
	c-5.3,4.3-11.2,6.2-18,4.6c-1.3-0.3-2.7-0.6-2.8-2.4c0.7-0.8,1.3-1.8,2.2-2.5c4.6-3.3,8-7.8,10.8-12.6c1.1-1.8,1.2-4.3,1.4-6.6
	c1.1-11.8,2-23.5,3-35.3c0.6-7.1,1.3-14.2,1.9-21.7c0.4-4.2,0.8-8.1,1.3-12.5c1.4-16.1,2.8-31.7,4.4-47.3c0.1-0.5,0-0.9-0.1-1.5
	c0.1-0.9,0.1-1.6,0.4-2.4C694.8,436.9,695,436.9,695.2,436.9z"/>
<path class="st11" d="M791.9,582c0.9,0.3,1.8,0.8,2.8,0.9c8,1,16,1.4,23.8,3.5c1.7,0.5,3.7,0.6,4.4,3.1c-1,0.5-2,1.3-3.2,1.6
	c-4.4,1-8.8,2-13.3,2.7c-6.3,0.9-12.6,1.4-18.9,2c-3.7,0.3-7.4,0.6-11.2,0.7c-9.4,0.3-18.8,0.6-28.2,0.7
	c-12.7,0.3-25.4,0.6-38.1,0.6c-10.3,0-20.6-0.3-31-0.7c-8.1-0.3-16.3-0.7-24.4-1.4c-8.8-0.7-17.5-1.7-26.3-2.8
	c-2.8-0.3-5.5-1.3-8.2-2.1c-0.9-0.3-1.7-0.9-2.6-1.4c0.2-2,1.5-2.5,2.9-2.8c4.4-0.9,8.8-1.9,13.3-2.5c5.7-0.8,11.4-1.4,17.2-1.9
	c4-0.3,8.1-0.3,12.1,0c-2.4,1.9-4.7,3.3-7.5,5c1.7,0.6,2.9,1.3,4.1,1.6c3.8,0.7,7.5,1.3,11.4,1.8c6.1,0.7,11.6-1,16.4-4.9
	c1.1-0.9,2.3-1.7,3.6-2.5c0.1,0.1,0.3,0.2,0.3,0.5c-0.3,1.9-0.6,3.5-0.8,5.1c2,1.1,3.2,0.7,4-1.2c1.1-2.6,2.3-5.1,3.9-7.7
	c21.9,0.2,43.5,0.5,65.1,0.7c0.3,0,0.7,0,1,0.3c-0.1,0.6-0.2,0.9-0.4,1.3c-3.9,3.4-7.5,6.6-11.3,10.1c2.6,1.4,5.1,1.3,7.5,1.2
	c2.5,0,5,0,7.5-0.3c2.6-0.3,5.2-0.7,7.6-1.7c2.3-0.9,4.3-2.4,6.3-4c1.9-1.5,3.4-3.3,5.6-5.5c0,2.6,0,4.4,0,6.4c1.1,0,2,0,3,0
	C790.6,586.4,791.2,584.2,791.9,582z"/>
<path class="st10" d="M777.3,301c2.5-2.7,5-5.4,7.8-8.3c1.9-1.6,3.4-3,5-4.3c1.4-1.2,1.6-2.5,0.8-4.2c-1.7-3.6-3.2-7.2-4.7-10.8
	c1.7-0.5,3.4-1,5.1-1.3c5.5-1.1,11-2.1,16.4-3.1c0.9-0.2,1.8-0.1,3-0.1c2.2,5.7,3.9,11.4,6.1,17c1.2,3.2,0.5,5.8-1.8,8
	c-3.9,3.8-7.9,7.4-11.9,11.1c-2.1,1.9-4.4,3.6-6.9,5.6c-1.6,1.4-2.8,2.6-4.1,3.8c-0.7,0.3-1.5,0.4-2.1,0.9
	c-9.2,6.9-18.5,13.8-27.6,20.9c-3.2,2.5-6,5.6-8.7,8.6c-1.9,2.1-4.2,3.4-7,3.8c-2.2,0.3-4.5,0.6-7.3,1c-1.3,0-2.1,0-3.2,0
	c-1,0.7-1.9,1.3-2.5,2.2c-1.3,1.9-2.5,3.9-3.7,5.9c0,0,0,0,0-0.3c0.4-2.5,0.8-4.7,1.2-6.9c0.1-0.6-0.1-1.3-0.2-2
	c-0.3,0-0.5,0-0.8-0.1c-0.6,2.2-1.2,4.4-1.8,6.5c-0.5-3.1-0.8-6.2,1-9.1c0.4-0.7,0.7-2.1,0.3-2.5c-1.6-1.7-0.9-3.6-1-5.7
	c0.9-0.7,1.6-1.3,2.6-1.8c5.4-1.6,10.6-3.2,15.8-4.9c0.7-0.2,1.4-0.8,1.9-1.3c7-7,13.9-14,20.8-21.1
	C772.4,306.1,774.9,303.5,777.3,301z"/>
<path class="st12" d="M696.4,254.1c2.1,1.4,3.9,3,5.8,4.4c0.6,0.4,1.4,0.6,2.5,1.1c2.2,3,3.7,5.9,3.6,9.3c0.2,2.3,0.4,4.6,0.6,7.1
	c-1,1-2.1,1.5-3,2.4c-4,3.7-7.9,7.5-12,11.1c-5.1,4.6-8,4.3-12.1-1.1c-2.2-2.9-4.1-6.1-5.7-9.3c-2.8-5.5-5.3-11.1-8.1-16.8
	c-1.5-3.8-2.9-7.4-4.2-11c-3-8.4-6-16.8-9-25.2c-0.6-1.6-1-3.3-3.2-4.2c-0.5-0.4-0.7-0.6-0.9-0.7c0,0,0,0.1,0-0.1
	c-2.4-5-2.9-10.1-2.7-15.3c0.1-1.7,0.4-2.8,2.3-3.1c0.6-0.1,1.1-0.7,2.1-1.4c-1-0.3-1.5-0.6-1.8-0.5c-1.9,1-3.2-0.3-4.6-1.1
	c-1.9-1.1-3.9-2.1-5.9-3.2c-1-2.3-1.6-4.7-0.3-7.3c0.6,0.3,1.3,0.4,1.6,0.7c3.3,3.9,7.9,5.7,12.5,7.4c2.8,1.1,4.6,2.7,5.7,5.7
	c4.6,11.7,10.8,22.5,16.9,33.4c4,7.1,7.9,14.3,11.9,21.5c0.5,1,1.1,2,1.7,3.1C693.2,259.5,694.3,256.4,696.4,254.1z"/>
<path class="st11" d="M230.3,581.5c4-1.1,8.1-0.5,12.1-0.3c1,0.1,2,0.3,3,0.4c5.9,0.3,11.8,0.2,17.7,0.8c9.3,0.9,18.7,1.4,27.9,3.4
	c1.9,0.4,3.7,1,5.5,1.7c1.7,0.7,1.8,2,0.1,2.9c-1.2,0.7-2.5,1.2-3.8,1.4c-6.5,1-12.9,2-19.4,2.8c-5.6,0.6-11.3,1-16.9,1.4
	c-5.3,0.3-10.6,0.5-16,0.7c-7.7,0.3-15.4,0.5-23.1,0.7c-10.2,0.2-20.4,0.6-30.6,0.6c-11.1,0-22.2-0.3-33.4-0.7
	c-8-0.3-16.1-0.6-24.1-1.4c-9.6-0.9-19.1-2.1-28.6-3.4c-2.8-0.4-5.8-0.8-8.1-3c0.2-1.8,1.5-2.3,2.9-2.6c4.2-0.9,8.4-1.9,12.6-2.5
	c6-0.8,12.1-1.4,18.2-2c3.5-0.3,7-0.5,10.5-0.7c4.5-0.3,9-0.5,13.9-0.4c0.3,1,0.3,1.7,0.4,2.3c0.2,3.3,0.7,3.9,4.1,4.2
	c11.6,1.1,23.2,1.7,35.1,0.6c1.7,0.6,3.2,1.3,4.7,1.4c7.2,0.4,14.5,1,21.7,0.9c6.4-0.1,12.9-0.8,19.3-1.5c2.7-0.3,3.4-2.8,1.4-4.6
	c-1-0.9-2.5-1.4-3.9-2C232.5,582.1,231.4,581.8,230.3,581.5z"/>
<path class="st12" d="M764,582.5c0.1-0.3,0.1-0.7,0.5-1.3c4.5-4.2,7-9.1,9.5-14.1c1-2,1.2-4.1,1-6.3c-0.7-8.1-1.3-16.3-2-24.4
	c-0.5-6.1-1-12.2-1.5-18.3c-0.7-8.8-1.3-17.6-2-26.4c9.1-1,18.2-2,27.7-3.1c0,4.1-0.1,8.2-0.5,12.2c-0.7,7.4-1.6,14.9-2.5,22.3
	c-1.2,9.9-2.5,19.8-3.8,29.7c-0.3,2.1-0.5,4.3-1,6.4c-0.8,3.4,0.7,6.5,0.7,10.3c-1.8,2.5-3.4,4.5-5.1,6.5
	c-4.5,5.4-10.2,8.4-17.4,8.3C766.2,584.3,764.7,584.2,764,582.5z"/>
<path class="st13" d="M558.7,157c0.9-0.2,1.8-0.3,2.6-0.7c6.8-3.3,13.6-3.9,20.7-1c0.4,0.2,0.9,0.2,1.6,0.6c1.7,1.7,3,3.1,4.4,4.7
	c0.8,1,1.7,1.7,2.5,2.5c0,0.3,0.1,0.7,0,1.3c0,0.5,0.1,0.6,0.2,0.8c2.1,4.5,1.6,9,0.3,13.6c-1.4,5.1-4.3,9.5-8.2,13.6
	c-1.2,1-2.1,1.8-3.2,2.7c-2.6,1.8-5,3.3-7.4,4.9c-2.4,0.5-4.9,0.8-7.3,1.5c-4.4,1.3-8.5,0-12.5-1.5c-1.4-0.5-2.6-1.3-4.3-2.2
	c-0.5-0.6-0.8-0.9-1.2-1.5c-2-2.3-3.3-4.8-4-7.6c-1.8-6.8,0.1-12.9,3.3-18.8c2.4-4.3,6-7.5,9.9-10.8
	C557.2,158.3,557.9,157.6,558.7,157 M575,173c-4,3.1-8,6.2-12.2,9.5c-1.6-2-2.9-3.9-4.4-5.5c-1.5-1.7-3-1.7-4.7-0.2
	c-1.5,1.3-1.7,3-0.3,4.9c1.3,1.9,2.7,3.6,4.1,5.5c2.6,3.5,3.9,3.7,7.2,1c3.2-2.6,6.4-5.1,9.6-7.6c2.9-2.4,5.9-4.7,8.7-7.2
	c1.3-1.2,1.4-3.1,0.4-4c-1.2-1.1-2.5-0.9-3.7,0C578.2,170.3,576.8,171.5,575,173z"/>
<path class="st14" d="M344.8,53.3c2.5,2.4,5.1,4.5,7,7.1c3.7,5.2,4.4,11.2,3.1,17.2c-2.5,12.6-10,21.5-21.3,27.4
	c-0.9,0.5-1.8,1-2.8,1.7c-3.1,0.8-6,1.6-9,2.1c-8.1,1.4-18.6-1.5-23.5-10c-2.9-5-4.1-10.5-2.2-16.6c2.7-2.1,5.1-3.2,7.9-0.7
	c0,4.1,0.2,7.8,2.2,11.1c6.3,10.8,21.3,8.9,28.2,2.3c1.8-1.3,3.6-2.3,4.9-3.8c4.3-4.9,7.3-10.4,7-17.1c-0.2-3.5-0.8-7-4.1-9.5
	c-2.4-3.3-6-4.2-9.4-5.6c-0.7-3.2,1-5.1,2.6-7.1c2.3-0.9,4.4-0.5,6.5,0.5C342.8,52.8,343.7,53,344.8,53.3z"/>
<path class="st15" d="M230.1,581.5c1.3,0.3,2.4,0.6,3.4,1c1.3,0.6,2.8,1,3.9,2c2,1.9,1.3,4.3-1.4,4.6c-6.4,0.7-12.8,1.4-19.3,1.5
	c-7.2,0.1-14.5-0.5-21.7-0.9c-1.5-0.1-3-0.8-4.7-1.7c-0.2-3.3-0.2-6.2-0.2-9.4c0.7-4.7,1.4-9,2.4-13.4c7,1.2,13.8,1.7,20.6,1.3
	c1,4.7,3.3,8.5,7.9,10.7C224,578.7,226.9,580.1,230.1,581.5z"/>
<path class="st16" d="M792.3,314.7c1.1-1.4,2.3-2.6,3.8-3.9c2.4,4.9,4.8,9.7,6.6,14.8c2.2,6.2,4.2,12.4,5.6,18.8
	c1.4,6.5,2.6,13,3.2,19.7c0.9,9.2,0.5,18.3,0.4,27.5c-0.1,5.2-1.2,10.5-2,15.7c-1.2,7.9-3.8,15.5-6.3,23.1c-0.2,0.5-0.6,1-1,1.6
	c-0.1-6.5,0-13,0-19.6c0.2-17.3,0.5-34.5,0.4-51.8c-0.1-8.8-0.3-17.7-2.4-26.4C798.9,327.4,796.2,320.9,792.3,314.7z"/>
<path class="st17" d="M190.1,579c0,2.9,0,5.8,0,8.9c-11.7,1.5-23.3,0.9-34.9-0.2c-3.4-0.3-3.8-0.9-4.1-4.2c0-0.7,0-1.4-0.1-2.3
	c0.7-5.8,1.5-11.3,2.5-17c7-0.5,13.6-0.8,20.4-0.8C175.6,572.6,182.2,576.5,190.1,579z"/>
<path class="st18" d="M579.9,194.9c0.9-0.8,1.8-1.6,2.8-2.4c-1.4,6.4-3,12.9-4.6,19.4c-1.9,7.3-3.8,14.5-5.7,21.7
	c-1.2,4.6-2.9,5.9-7.7,5.9c-31.8,0-63.6,0-95.8,0c-2.7,0-5.1,0-7.5,0c-57.7,0-115.4,0-173.4-0.2c-0.1-0.8,0.1-1.3,0.7-1.8
	c57.7,0,115,0,172.4,0c0.7,0,1.4-0.1,2.4-0.1c34.2,0.1,68.1,0.1,102,0.1c2.9,0,3.8-0.7,4.8-3.4c0.3-0.8,0.5-1.5,0.7-2.3
	c2.4-9.3,4.9-18.7,7.3-28C579,200.9,579.3,197.9,579.9,194.9z"/>
<path class="st19" d="M640,196.4c2.2,1.1,4.2,2.2,6.1,3.3c1.4,0.8,2.7,2.1,4.6,1.1c0.3-0.1,0.8,0.2,1.8,0.5c-1,0.7-1.5,1.4-2.1,1.4
	c-2,0.2-2.2,1.4-2.3,3.1c-0.2,5.2,0.3,10.3,2.6,15.4c-3.4-1-6.8-2.2-10.2-3.5c-1.2-0.4-2.2-1.2-3.4-1.5c-3.1-1-5.3-3-6.4-6.2
	c3.3,0.3,6.2,2.1,9.5,1.9c-0.5-0.6-1.1-1.1-1.8-1.3c-2.1-0.8-4.3-1.4-6.4-2.2c-1.5-0.5-2.6-1.3-2-3.2c3.4,0.5,6.1,2.9,9.6,2.5
	c-0.5-0.6-1.1-1.1-1.7-1.4c-2.5-1-5.1-1.8-7.6-2.8c-1.8-0.7-3.3-1.6-3.6-4.1c2.7,0.7,5.1,1.2,7.3,1.9c4.6,1.6,4.8,1.7,6.5,0.4
	c-5.2-1.5-10.2-2.9-15.2-4.2c-0.3-0.1-0.7,0.4-1.1,0.6c-2.3-0.9-4.3-1.9-3.7-5.2c0.8,0.1,1.6,0.1,2.3,0.2c4.9,1.2,10,1.3,14.7,3.4
	C638.1,196.7,639,196.3,640,196.4z"/>
<path class="st20" d="M763.9,582.6c0.9,1.6,2.4,1.7,3.8,1.7c7.2,0.2,12.8-2.9,17.4-8.3c1.7-2,3.3-4,5.1-6.2c2.6,1.9,3.3,4.5,2.7,7.7
	c-0.3,1.3-0.6,2.7-0.9,4.3c-0.7,2.4-1.3,4.6-2,6.9c-1,0-1.9,0-3,0c0-2,0-3.8,0-6.4c-2.2,2.2-3.7,4-5.6,5.5c-1.9,1.5-4,3.1-6.3,4
	c-2.4,1-5,1.4-7.6,1.7c-2.5,0.3-5,0.3-7.5,0.3s-4.9,0.1-7.5-1.2C756.3,589.2,760,586,763.9,582.6z"/>
<path class="st16" d="M304,81.2c-2.7-2.2-5.2-1.1-7.8,0.7c-0.3-4.7,2-8.7,4.3-12.5c5.8-9.3,14.3-15.2,24.9-18c2.3-0.6,4.7-0.8,7-0.9
	c0.9-0.1,1.8,0.5,2.9,1.1c-1.5,2.2-3.2,4.2-2.8,7.4c-11.7,0.5-20.2,5.4-25.5,15.6C305.9,76.8,305,79,304,81.2z"/>
<path class="st20" d="M690.9,583.4c-1.2,0.9-2.4,1.7-3.5,2.6c-4.8,3.8-10.3,5.5-16.4,4.9c-3.8-0.4-7.6-1.1-11.4-1.8
	c-1.3-0.2-2.5-0.9-4.1-1.6c2.8-1.7,5.2-3.2,7.7-4.8c1.9-1.2,3.7-2.3,5.8-3.4c0.3,1.7,1.7,2,3.1,2.3c6.8,1.6,12.7-0.3,18-4.6
	c2.3-1.9,4.6-3.7,7.2-5.4c2.1,2.9,1.8,5.8,0.8,8.7c-1.2,2.6-2.4,5.1-3.5,7.7c-0.8,1.9-2,2.3-4,1.2c0.3-1.6,0.6-3.2,1-5.2
	c0.1-0.5,0-0.7,0-0.9C691.2,583.2,691.1,583.3,690.9,583.4z"/>
<path class="st21" d="M328.3,115.3c1.8,0,3.3,0.1,4.7,0.1c35.3,0,70.6,0,105.9,0c1.3,0,2.7,0.2,4.2,0.5c-0.2,0.6-0.6,1.3-1.1,1.4
	c-0.7,0.2-1.6,0.1-2.4,0.1c-39,0-78,0-117,0c-1.1,0-2.3-0.5-3.5-1c1.2-0.5,2.5-0.8,3.8-0.9C324.6,115.3,326.3,115.4,328.3,115.3z"/>
<path class="st22" d="M173.8,563.1c-6.7,0.3-13.3,0.5-20.3,0.8c-0.7-0.3-1.5-0.6-1.5-0.8c0-2.1,0.1-4.2,0.4-6.5
	c2.5-0.2,4.8-0.1,7.1-0.3c4.1-0.3,8.2-0.9,12.4-1.3c0.4-0.1,0.9-0.3,1.8-0.4C175.4,556.7,175.3,560.8,173.8,563.1z"/>
<path class="st22" d="M213.4,566.5c-7.1,0.5-13.8,0-21.1-1.4c-1.1-2.6-1.6-5-0.4-7.3c6.5,0.5,12.9,0.9,19.4,1.4c0.6,0,1.1,0,2-0.1
	c0.7,0.4,1.4,0.9,1.3,1.4C214.4,562.4,214,564.3,213.4,566.5z"/>
<path class="st13" d="M602.6,199.4c2.2,5.5-3.2,10.7-7.5,10.8c-3.9,0.1-6.2-2.3-5.6-6.2c0.6-3.8,4.5-7.2,8.3-7.3
	C599.7,196.8,601.3,197.6,602.6,199.4z"/>
<path class="st21" d="M475.3,521.2c0.9-0.5,1.9-0.8,2.8-0.8c15.6,0,31.3,0,46.9,0c0.7,0,1.3,0.2,2.3,0.4c-0.2,0.6-0.5,1.2-1.1,1.4
	c-0.7,0.2-1.6,0.1-2.4,0.1c-15,0-30.1,0-45.1,0C477.6,522.2,476.5,521.7,475.3,521.2z"/>
<path class="st11" d="M265.2,93.6c-1.1,3.9-1.2,4-4.6,4c-1.5,0-2.9,0.1-4.4,0c-1.6-0.2-2.1-0.9-1.8-2.5c0.3-1.7,0.6-3.4,1.2-4.9
	c0.4-1,1.3-2.2,2.1-2.4c2.2-0.4,4.5-0.4,6.7-0.2c1.3,0.1,2.1,1.2,1.5,2.8C265.7,91.4,265.5,92.4,265.2,93.6z"/>
<path class="st11" d="M243.3,72.9c2.5-1.9,5.2-1.1,7.8-1.2c1.2,0,2,0.9,1.8,2c-0.4,2.2-0.8,4.4-1.7,6.5c-0.3,0.8-1.7,1.4-2.7,1.6
	c-1.5,0.3-3.2,0.1-4.8,0c-1.9-0.1-2.7-1-2.3-2.9S242.5,75.1,243.3,72.9z"/>
<path class="st7" d="M245.4,87.4c1.2,0.1,2.1,0.1,3,0.2c1,2.7,0.3,5.1-0.5,7.4c-0.4,1-1.6,2.2-2.6,2.4c-2.1,0.4-4.3,0.2-6.4,0.1
	c-1.2-0.1-1.7-1-1.4-2.2c0.1-0.5,0.4-1.1,0.4-1.6C238.5,88.3,240.1,86.9,245.4,87.4z"/>
<path class="st7" d="M274.3,97.6c-3-0.7-3-0.7-2.5-2.9c0.3-1.3,0.6-2.6,0.9-3.9c0.6-2.3,1.9-3.3,4.4-3.4c0.7,0,1.4,0,2,0
	c3.3-0.2,4,0.4,3.8,4.2c-0.1,0.9-0.4,1.8-0.6,2.6c-0.7,2.7-1.5,3.3-4.3,3.4C276.8,97.6,275.7,97.6,274.3,97.6z"/>
<path class="st21" d="M590.7,162.8c-0.9-0.5-1.7-1.3-2.4-2.1c2,0.3,1.6-1.3,1.8-2c1.2-4.3,2.3-8.7,3.3-13.1c1-4.2,2-8.3,3.1-12.7
	c0.4-1,0.7-1.9,0.9-2.7c0.6-2.8-0.4-4.5-3.2-5.1c-0.6-0.1-1.3-0.1-2-0.1c0.1-0.4,0.3-0.8,0.9-1.3c1.6,0,2.7,0,3.8,0.1
	c2.4,2.3,3,5,2.1,8.3c-2.1,7.5-4,15-6,22.7C592.2,157.5,591.5,160.1,590.7,162.8z"/>
<path class="st6" d="M624.3,198.2c0.3-0.4,0.8-0.9,1.1-0.8c5,1.3,10,2.8,15.2,4.2c-1.7,1.3-1.9,1.2-6.5-0.4
	c-2.2-0.8-4.5-1.2-7.3-1.9c0.3,2.5,1.9,3.4,3.6,4.1c2.5,1,5.1,1.8,7.6,2.8c0.7,0.2,1.2,0.7,1.7,1.4c-3.5,0.4-6.2-2-9.6-2.5
	c-0.6,1.9,0.5,2.7,2,3.2c2.1,0.7,4.3,1.4,6.4,2.2c0.7,0.2,1.3,0.7,1.8,1.3c-3.4,0.3-6.2-1.5-9.6-2.1c-1-0.9-2-1.8-2.6-2.8
	C626.8,204,625.6,201.2,624.3,198.2z"/>
<path class="st21" d="M592.4,287.3c-1.5-0.1-1.3-0.9-1-1.8c1-3,1.9-6,2.8-9.1c0.3-1.1,0.6-2.2,0.9-3.3c0.9-3.5-0.5-5.4-4.2-5.5
	c-2.4-0.1-4.8,0-7.1-0.1c-0.8,0-1.6-0.5-2.4-1c3.2-0.3,6.5-0.4,9.7-0.4c4.6,0,6,1.5,6.2,6.6C595.7,277.7,594.1,282.4,592.4,287.3z"
	/>
<path class="st22" d="M213.8,557.3c-0.1-0.1-0.2-0.4,0-0.8C213.9,556.6,213.9,556.9,213.8,557.3z"/>
<path class="st19" d="M650.8,221.4c0.2-0.1,0.4,0,0.7,0.3C651.3,221.8,651.1,221.7,650.8,221.4z"/>
<path class="st21" d="M590.8,165c-0.1,0-0.2-0.2-0.2-0.4C590.7,164.6,590.7,164.7,590.8,165z"/>
<path class="st23" d="M288.4,237.5c-0.2,0.5-0.5,1.1-0.7,1.9c-2.5,6.9-4.8,13.6-7.5,20.2c-2,4.8-4.6,9.3-7.4,14.1
	c-1.8,0.3-3.2,0.7-4.5,0.7c-4.2,0.3-8.1-0.9-12-2.2c-9.8-3.1-18.8-7.9-27.5-13.4c-2.9-1.8-5.6-3.8-8.5-5.6c-0.5-0.3-1.2-0.3-1.9-0.5
	c-0.1,0.2-0.2,0.4-0.3,0.6c0.6,0.6,1.2,1.3,1.9,1.8c3.2,2.2,6.4,4.3,9.5,6.5c0.5,8,1.2,16.1,1.6,24.1c0.8,14.8,1.5,29.7,2.1,44.5
	c0.3,9.4,0.3,18.8,0.5,28.2c0,0.8,0,1.6-0.1,2.4c-0.4,5.1-0.4,5.1-5.1,7.5c-2.7,0.6-5.3,1.2-7.8,1.5c-7.7,1-15.5,2-23.3,2.8
	c-5.2,0.6-10.4,0.8-15.6,1.3c-7.6,0.6-14.9-1-22.1-3.2c-7.3-2.2-14.5-4.6-22-7c-0.7-0.3-1-0.5-1.5-0.7c-2.3-0.7-3-2.2-2.9-4.6
	c0.5-8.4,0.9-16.8,1.3-25.1c0.4-7.6,0.8-15.2,1.3-22.8c0.1-1.8-0.5-2.9-1.8-4.1c-4-3.7-7.8-7.6-11.5-11.6c-2.2-2.3-3-5.3-2.9-8.5
	c0.2-5.2,0.2-10.5,0.8-15.6c1.8-15.3,4.8-30.5,8.8-45.4c1.6-5.8,3.5-11.6,7.1-16.5c2.1-2.9,4.7-5.6,7.4-7.9c3.6-3,8.1-3.9,13.4-3.8
	c7.3,0.2,14,0.1,20.6,0.8c8.2,0.9,16.3,2.5,24.4,3.7c2.8,0.8,5.7,1.7,8.5,2.5c7,2,13,6,18.4,10.7c8.9,7.8,17.6,15.7,26.4,23.6
	c0.8,0.7,1.6,1.5,2.9,2.6c1.8-4,3.5-7.7,5.5-11.7c5.3-10.9,10.5-21.4,15.5-32c0.9-1.9,2-3.3,4.3-3.7c2.1,0.1,3.9,0,5.7,0.3
	c3.6,0.6,6.1,3,8.3,5.9c0.5,1.4,0.7,2.7,0.2,4.2c-2.1,7-4,14.1-6,21.1c-0.4,1.5-0.7,3.1-1.3,5C289.9,233.1,289.1,235.3,288.4,237.5
	 M134.8,261.9c0.2,2.9,0.5,5.9,0.7,8.8c0.2,3,0.6,6.1,0.7,9.1c0.2,4.2,0.8,7.1,2.3,8.3c0.1-1.1,0.3-1.9,0.3-2.7c-0.1-1-0.4-2-0.5-3
	c-0.5-6.3-1-12.6-1.5-19c-0.2-2.5-0.5-5-0.7-7.4c-0.4-3.7-0.8-7.4-1.2-11.1c-0.3-3.2-0.5-6.3-0.8-9.5c0-0.4-0.7-0.8-1.2-1.4
	C132.1,236.3,133.5,253.6,134.8,261.9 M216.3,210.3c-5.6,2.9-8.8,7.6-10.5,13.5c-2,7.1,0.1,13.6,3.2,20c0.3,0.5,1,0.8,1.5,1.2
	c0.3-1.1,0.1-1.8-0.2-2.5c-0.7-1.9-1.6-3.8-2.2-5.7c-1.4-4.9-1.8-9.8,0.1-14.7c1.6-4,4.2-7.2,7.6-9.8
	C216.5,211.9,217.7,211.6,216.3,210.3 M262.9,243.6c4.5-0.5,7.2,2.4,10.2,5.7c0.1-3.3-1.5-4.7-3.5-5.8c-2.8-1.6-5.8-2.7-9.2-0.6
	C261,243.2,261.7,243.4,262.9,243.6 M266.2,251.9c0.6,1.5,1.3,2.9,1.8,4.4c0.4,1.3,0.7,2.8,1.1,4.9c1.9-5.2-0.6-9.3-3.6-13.1
	c-0.7-0.9-1.5-2-3.3-1.1C263.6,248.6,264.8,250,266.2,251.9z"/>
<path class="st24" d="M294.5,499c-3.6,0.4-7.1,0.8-10.7,1.2c-2.9,0.3-5.8,0.6-8.7,0.9c-5.7,0.5-11.4,1-17.2,1.3
	c-3.6,0.2-7.3,0.1-10.9,0.1c-2.2,0-4.3,0-6.8,0c0-1.7,0.1-3.4,0.5-5c2.9-11.1,5.8-22.1,8.7-33.2c3.2-12.5,6.4-25,9.6-37.5
	c1.4-5.3,2.8-10.7,4.2-16c0.8-3.3,2.3-4.5,5.7-4.6c0.7,0,1.4,0,2,0c95.8,0,191.5,0,287.3-0.1c6.9,0,8.2,2.4,6.7,8.6
	c-2.8,11.3-5.8,22.6-8.7,33.8c-2.3,8.8-4.5,17.5-7,26.4c-5.2-1.5-10.2-3.3-15.2-4.9c-4.6-1.5-9.2-3-13.8-4.6
	c-3.6-1.2-7.2-2.4-10.9-3.6c-2.5-0.8-4.9-1.7-7.4-3c2-3,4.3-5.4,4.6-9c-0.9-0.4-1.7-0.7-2.5-1c0.8-2.4,1.8-4.6,2.2-6.8
	c1.6-8.5-3.9-14.8-12.1-15.2c-8-0.4-17.5,6.5-19.8,13.6c-0.9,2.8-1.6,5.6-2.3,8.4c-3.1,1.2-3.1,1.2-3.1,4.6c0,1.1,0,2.3,0,3.4l0,0
	c-6.6,1.3-13.3,2.5-19.9,3.8c-13.8,2.8-27.3,7-40.9,10.9c-10,2.8-20,5.8-30,8.6c-5.8,1.6-11.6,3.1-17.3,4.7
	c-2.6,0.7-5.2,1.6-8.1,2.5c-1.6-0.1-2.9-0.4-4.1-0.4c-16.1,0-32.2,0-48.3,0c-0.6,0-1.1,0-1.7,0c-1.7,0-2.7,0.8-3.2,2.5
	c-0.6,2.4-1.3,4.8-1.8,7.2C294,497.2,294.4,498.1,294.5,499 M305.8,478.5c21.9,0,43.9,0,65.8,0c0.9,0,1.8,0.1,2.7,0
	c0.9-0.2,1.8-0.5,2.4-1c0.5-0.4,0.9-1.5,0.7-2.1c-0.3-0.7-1.1-1.3-1.9-1.6c-0.7-0.3-1.6-0.1-2.4-0.1c-32.6,0-65.2,0-97.9,0
	c-0.8,0-1.7-0.2-2.4,0.1c-0.7,0.3-1.7,0.9-1.9,1.5c-0.2,0.7,0.3,2,0.9,2.3c1.2,0.6,2.6,0.9,3.9,0.9
	C285.5,478.6,295.3,478.5,305.8,478.5 M384.8,427.3c-1.4-0.2-2.8-0.7-4.3-0.7c-32.3,0-64.6,0-96.9,0c-0.8,0-1.6,0-2.4,0
	c-1.3,0-2.3,0.4-2.4,1.8c-0.1,1.5,0.7,2.4,2,2.8c1.1,0.3,2.3,0.2,3.4,0.2c31.8,0,63.7,0,95.5,0c0.7,0,1.4,0,2,0
	C384.4,431.3,385,430.7,384.8,427.3 M364.5,460.1c17,0,33.9,0,50.9,0c1,0,2.1,0.2,3-0.1c0.7-0.2,1.4-1.1,1.6-1.8
	c0.3-1.1-0.4-2-1.7-2.1c-0.8-0.1-1.6-0.1-2.4-0.1c-32.7,0-65.3,0-98,0c-0.8,0-1.6,0-2.4,0.1c-1.4,0.2-2,1.3-1.8,2.4
	c0.1,0.6,1.1,1.3,1.9,1.5c0.8,0.3,1.8,0.1,2.7,0.1C333.5,460.1,348.7,460.1,364.5,460.1 M398.4,426.7c-2.1,2-1.9,3.3,0.5,4
	c1.3,0.4,2.7,0.7,4,0.7c10.3,0.1,20.7,0,31,0c2.4,0,3.8-0.9,3.9-2.4c0.1-1.6-1.1-2.4-3.7-2.4c-0.1,0-0.2,0-0.3,0
	C422.2,426.7,410.6,426.7,398.4,426.7 M279.4,442.3c-1.5,0-3.1-0.2-3.3,2c-0.1,1.7,1.2,2.7,3.5,2.8c0.2,0,0.5,0,0.7,0
	c9,0,17.9,0,26.9,0c2.6,0,4.2-0.9,4.2-2.4s-1.6-2.4-4.2-2.4C298.2,442.3,289.1,442.3,279.4,442.3 M288,460.1c6.1,0,12.2,0,18.2,0
	c0.8-3.6,0.5-4.1-2.6-4.1c-9.5,0-19,0-28.6,0c-0.6,0-1.3-0.1-1.7,0.2c-0.6,0.4-1.3,1.2-1.3,1.7c0.1,0.7,0.7,1.6,1.3,2
	c0.6,0.4,1.5,0.2,2.3,0.2C279.6,460.1,283.5,460.1,288,460.1z"/>
<path class="st25" d="M731.2,335.8c-0.8,0.6-1.5,1.1-2.7,1.9c-0.7,0.9-1.2,1.5-1.3,2.2c-0.4,6.2-0.7,12.5-1.1,18.7
	c0,0.4,0.2,0.8,0.3,1.3c1.9,0.2,3.8,1,5-1.1c1.7-3.1,3.4-6.2,5.1-9.2c0.8,0,1.6,0.1,2.6,0.1c3.9,6.4,7.5,12.8,11.2,19.2
	c0.6,1,1.1,2,1.8,3.3c-13.8,8-27.5,15.9-41.3,23.9c-2.8-4.7-5.6-9.3-8.5-13.9c-0.3-0.6-0.3-1.3-0.5-1.7c-2.5-4.4-5.1-8.8-7.6-13.2
	c-3-5.1-5.9-10.1-8.9-15.2c-1.5-2.6-3-5.3-4.6-7.9c-1.5-2.6-1.4-3.1,1.1-4.5c10.2-6,20.5-12,30.7-18.1c0.5-0.3,0.9-0.7,1.8-1.1
	c2.3-1.1,4.2-2.1,6.3-3.2C724.1,323.5,727.7,329.6,731.2,335.8z"/>
<path class="st4" d="M731.4,335.8c-3.8-6.2-7.3-12.3-11-18.6c-2.1,1.1-4,2.1-6.1,3c-0.2-0.3-0.2-0.7,0-1.5
	c-0.1-4.4-0.2-8.2-0.3-12.1c0-0.6,0.1-1.2,0.1-2.1c10,1.7,20,1.6,30.1,1.3c2.1-0.1,4.3-0.4,6.9-0.6c0.8,0,1.1-0.1,1.4-0.1
	c1-0.2,2-0.3,3.4-0.5c1-0.1,1.5-0.1,2-0.1c5.5-1,11.1-2.1,16.6-3.1c0.7-0.1,1.3-0.2,2.3-0.3c-2.1,2.5-4.6,5.1-7,7.6
	c-6.9,7-13.9,14.1-20.8,21.1c-0.5,0.5-1.2,1.1-1.9,1.3C742,332.6,736.9,334.2,731.4,335.8 M738.6,318.1c9.7,0,19.3-2.2,22.1-5.4
	c-2,0.5-3.6,1-5.2,1.3c-4.5,0.9-9,2.2-13.6,2.6c-6.4,0.5-12.9,0-19.2-1.5c-1.2-0.3-2.5-0.2-3.7-0.3c-0.1,0.3-0.1,0.6-0.2,0.9
	c1.1,0.3,2.2,0.8,3.3,1C727.3,317.8,732.5,318.4,738.6,318.1 M728.2,322.6c-0.9-0.3-1.8-0.7-3.1,0.6c1.3,0.4,2.3,1,3.2,1
	c5.1,0,10.2,0.5,15.2-0.7c3.2-0.8,6.3-1.7,9.4-2.7c1-0.3,1.3-0.9,0.4-1.8C745.4,321.9,737.3,323.5,728.2,322.6z"/>
<path class="st26" d="M693.9,441c-1.4,15.5-2.8,31.1-4.2,46.9c-2.6,0.2-5.2,0.1-8.1,0c4.9-24.1,9.7-47.8,14.7-71.7
	c-0.3,3.6-0.9,7.4-1.5,11.2c-0.1,0.8-0.2,1.6-0.3,2.9c-0.1,2.6-0.3,4.7-0.4,6.8c-0.1,0.7-0.2,1.4-0.3,2.5
	C693.9,440.4,693.9,440.7,693.9,441z"/>
<path class="st18" d="M297.3,381.2c1-0.5,2.1-0.9,3.1-0.9c39.6,0,79.2,0,118.7,0c0.9,0,1.8,0.2,2.9,0.5c-0.5,0.6-1.2,1.2-2,1.5
	c-0.7,0.2-1.6,0.1-2.4,0.1c-38.9,0-77.7,0-116.6,0C299.8,382.2,298.4,382.9,297.3,381.2z"/>
<path class="st22" d="M229.8,261.7c-3.5-2.2-6.7-4.3-9.8-6.5c-0.7-0.5-1.2-1.2-1.9-1.8c0.1-0.2,0.2-0.4,0.3-0.6
	c0.6,0.1,1.4,0.1,1.9,0.5c2.9,1.8,5.6,3.8,8.5,5.6c8.7,5.5,17.7,10.3,27.5,13.4c3.9,1.2,7.8,2.4,12,2.2c1.3-0.1,2.7-0.4,4.3-0.6
	c0.3,1.4-0.6,1.9-1.9,2c-4,0.5-7.9,0-11.8-1c-8.6-2.3-16.6-6.2-24.3-10.5C233.1,263.4,231.6,262.6,229.8,261.7z"/>
<path class="st18" d="M450.2,381.2c0.6-0.5,1.4-0.9,2.1-0.9c9,0,18,0,27,0c0.4,0,0.9,0.2,1.5,0.5c-0.6,0.6-1.5,1.4-2.3,1.4
	c-8.9,0.1-17.9,0.1-26.9,0C451.1,382.2,450.7,381.7,450.2,381.2z"/>
<path class="st25" d="M713.9,306.8c0.2,3.6,0.4,7.5,0.4,11.6c-0.3-1.5-0.5-3.2-0.6-5C713.6,311.3,713.8,309.2,713.9,306.8z"/>
<path class="st27" d="M531.4,359.7c-20.6,0-40.8,0-61.3,0c0-1-0.2-1.7,0-2.3c1.5-4.5,3.5-8.7,6.6-12.2c1.6-1.7,4.1-2.9,6.3-3.9
	c3.7-1.6,7.7-2.8,11.5-4.3c2.8-1.1,5.4-2.4,7.3-4.8c0.9-1.2,1.7-2.4,2.4-3.7c0.8-1.5-1.3-8.8-2.7-9.8c-2.2-1.6-3.2-6.6-1.6-8.5
	c0.6-0.8,1.9-1,3.2-1.6c0.1-0.3,0.3-1,0.3-1.6c0.1-10.5,10.6-21.6,22.9-20.3c5.4,0.6,10.8,3.9,10.6,11.5c0,1.8,0,3.7-0.4,5.4
	s-1.3,3.4-1.9,5c2.6,1.3,3,2.1,1.7,4.4c-1.5,2.5-2.7,5.3-6.1,6c-0.6,0.1-1,1.1-1.4,1.8c-0.9,1.3-1.7,2.7-2.8,3.8
	c-2.5,2.7-2.6,6.5-0.2,9.4c2.5,2.9,6,4,9.2,5.7c2,1.1,4.1,2,6,3.1c2.7,1.4,2.9,4.3,3.3,6.8c0.3,2.2,0.2,4.5,0,6.8
	c-0.2,2.5-1.1,3.4-3.7,3.4C537.7,359.8,534.7,359.7,531.4,359.7z"/>
<path class="st28" d="M333.4,337.9c-9.3,0-18.3,0-27.3,0c-0.8,0-1.6,0-2.4,0c-1.3,0-2.5-0.5-2.3-1.8c0.1-1,0.9-2,1.7-2.6
	c0.6-0.5,1.7-0.3,2.6-0.3c32.3,0,64.5,0,96.8,0c1.4,0,2.9,0.4,4.2,1c0.5,0.2,0.9,1.5,0.8,2.3c-0.1,0.5-1,1.2-1.6,1.4
	c-1,0.2-2,0.1-3,0.1C379.9,337.9,356.8,337.9,333.4,337.9z"/>
<path class="st28" d="M331.4,291.5c-5.8,0-11.3,0.1-16.7,0c-1.4,0-2.9-0.3-4.3-0.8c-0.6-0.2-1.4-1.2-1.3-1.6
	c0.3-0.8,0.9-1.7,1.7-2.2c0.6-0.4,1.5-0.1,2.3-0.1c32.8,0,65.5,0,98.3,0c0.8,0,1.7-0.2,2.3,0.1c0.7,0.4,1.4,1.2,1.5,1.9
	s-0.5,1.9-1,2.2c-1.1,0.5-2.4,0.6-3.6,0.6c-13.4,0-26.8,0-40.3,0C357.4,291.5,344.6,291.5,331.4,291.5z"/>
<path class="st28" d="M422.2,315.4c8.1,0,15.8,0,23.6,0c1.2,0,2.5,0.2,3.6,0.7c1.9,0.8,1.9,2.7,0.1,3.6c-0.8,0.4-2,0.5-3,0.5
	c-32.8,0-65.5,0-98.3,0c-0.5,0-0.9,0-1.4,0c-1.3,0-2.3-0.4-2.4-1.8c-0.1-1.5,0.7-2.4,2-2.8c1-0.3,2-0.2,3-0.2
	C373.6,315.4,397.7,315.4,422.2,315.4z"/>
<path class="st29" d="M404.4,346.8c15.5,0,30.7,0,46.2,0c0,1.4,0.2,2.6,0,3.6c-0.5,2.2-1.3,4.3-1.8,6.6c-0.3,1.5-1.1,2.1-2.6,2.1
	c-0.7,0-1.4,0-2,0c-16.1,0-32.3,0-48.4,0c-0.5,0-0.9,0-1.4,0c-2.8-0.1-3.2-0.6-2.4-3.3c0.6-2.1,1-4.2,1.6-6.2
	c0.6-2.2,1.2-2.7,3.6-2.7C399.5,346.7,401.8,346.8,404.4,346.8 M428,348.8c-10.7,0-21.3,0-32.1,0c-0.3,2.9-2.2,5.1-1.4,8
	c1,0.1,2,0.2,3,0.2c15.2,0,30.5,0,45.7,0c0.6,0,1.2,0.2,1.7,0c0.8-0.3,1.8-0.7,2.1-1.3c0.8-2.1,1.2-4.2,1.9-6.8
	C441.8,348.8,435.2,348.8,428,348.8z"/>
<path class="st29" d="M325.2,358.5c-1.3-1.9-0.3-3.5,0.1-5.1c2.1-7.9,0.7-6.6,8.3-6.6c15.3-0.1,30.7,0,46,0c1.3,0,2.6,0.2,4.4,0.4
	c-1,3.7-1.9,6.9-2.8,10.2c-0.3,1.2-1.1,1.6-2.3,1.6c-0.6,0-1.1,0-1.7,0c-16.3,0-32.5,0-48.8,0C327.5,359,326.5,358.8,325.2,358.5
	 M356.3,357c7.7,0,15.4,0,23.3,0c0.2-2.8,1.8-5.1,1.3-8c-1.1-0.1-2.1-0.2-3.1-0.2c-15.3,0-30.7,0-46,0c-0.7,0-1.4-0.1-2,0.1
	s-1.4,0.5-1.6,1c-0.8,2.2-1.8,4.3-1.3,7.1C336.6,357,346.1,357,356.3,357z"/>
<path class="st28" d="M438.6,286.7c8.4,0,16.5,0,24.6,0c0.7,0,1.4,0,2,0c1.2,0,2.3,0.1,2.6,1.6s-0.6,2.4-1.9,2.8c-1,0.3-2,0.4-3,0.4
	c-10.3,0-20.7,0-31,0c-1.4,0-2.8,0.1-3.7-1.2c-0.5-0.7-1.1-1.7-0.9-2.3s1.3-1.2,2.1-1.2C432.3,286.6,435.3,286.7,438.6,286.7z"/>
<path class="st28" d="M307.6,320.2c-1.3,0-2.5,0.2-3.4-0.1c-0.8-0.3-1.7-1.1-1.9-1.9c-0.2-0.5,0.6-1.7,1.2-2
	c0.8-0.5,1.9-0.7,2.9-0.7c9.1,0,18.2,0,27.2,0c0.5,0,0.9,0,1.4,0.1c1.5,0.3,2.6,1.4,2.5,2.8c-0.1,1.7-1.3,1.9-2.6,1.9
	c-3.6,0-7.3,0-10.9,0C318.6,320.2,313.3,320.2,307.6,320.2z"/>
<path class="st28" d="M306.5,305c0.4-2.3,1.6-3.3,3.7-3.3c8.9,0,17.7,0,26.6,0c1.2,0,2.5,0.3,3.6,0.9c0.6,0.3,1.1,1.5,1,2.2
	c0,0.5-0.9,1.2-1.5,1.5s-1.3,0.1-2,0.1c-9.2,0-18.4,0-27.6,0C308.9,306.5,307.5,306.5,306.5,305z"/>
<path class="st30" d="M596.9,123.4c-1.2,0.2-2.3,0.1-3.7,0c-0.3-0.7-0.3-1.4-0.3-2.1c-0.1-3-2-5-5-5.3c-0.9-0.1-1.8,0-2.7,0
	c-15.4,0-30.9,0-46.6,0c-0.2-1.4,0.7-1.7,1.9-2.1c4.4-1.5,9-2.4,12.7-5.4c1.6-1.3,2.9-3.1,4.1-4.8c1-1.4,1-2.9,0-4.5
	c-0.5-0.7-0.7-1.7-0.6-2.6c0-1.9-0.4-3.1-2.4-4.3c-2-1.3-1.9-4.1-1.7-6.5c0.2-2.2,2-2.5,3.5-2.9c0.6-2.6,1-5.2,1.8-7.6
	c1.4-4.5,4.6-8,8.2-10.6c4.8-3.5,10.3-5.1,16.4-3.2c3.7,1.1,7.4,6,7.6,9.9c0.2,3.8-0.1,7.5-2.2,10.7c2.6,2.4,2.8,3.1,1.1,5.9
	c-1.1,1.8-2.6,3.6-4.3,4.6c-1.3,0.8-2,1.7-2.8,2.7c-1.1,1.4-1.5,3.3-3.3,4.2c-0.4,0.2-0.6,0.9-0.7,1.5c-0.9,5.3,0.1,7.7,5.4,10.6
	c2.5,1.3,5.1,2.4,7.7,3.6c0.7,0.3,1.4,0.7,2.1,1.1C595.7,117.7,597.5,119.8,596.9,123.4z"/>
<path class="st16" d="M288.7,237.5c0.4-2.2,1.1-4.5,2.1-6.8c1.7-0.1,3.1,0,4.6,0c21.3,0,42.6,0,64.4,0.3c1.8,0.3,3,0.5,4.2,0.5
	c30.4,0,60.9,0,91.3,0c1.2,0,2.5,0.1,3.8,0.3c0.8,1.1,1.6,2,2.3,3c0.6,0.9,1.2,1.8,1.8,2.7c-0.7,0-1.4,0.1-2,0.1
	C403.8,237.6,346.4,237.6,288.7,237.5z"/>
<path class="st31" d="M463.5,237.5c-0.9-0.9-1.4-1.9-2.1-2.7c-0.7-1-1.5-1.8-2-3c14.7-0.3,29.2-0.3,43.6-0.3c1.3,0,2.6-0.4,3.9-0.7
	c17.5,0,35,0,52.5,0c4.4,0,5.4-0.7,6.5-4.9c2.2-8.4,4.3-16.9,6.4-25.6c2.4-1.9,4.8-3.4,7.4-5.2c-0.4,2.8-0.7,5.9-1.5,8.8
	c-2.4,9.4-4.8,18.7-7.3,28c-0.2,0.8-0.4,1.5-0.7,2.3c-0.9,2.7-1.8,3.4-4.8,3.4C531.6,237.6,497.7,237.6,463.5,237.5z"/>
<path class="st13" d="M306.2,185.7c30.8,0,61.6,0,92.4,0c1,0,2.1,0,3.1,0c1.5,0.1,2.6,0.9,2.7,2.5c0.2,1.6-0.9,2.2-2.3,2.3
	c-1.3,0.1-2.7,0.6-4,0.6c-31.4,0-62.7,0-94.1,0c-0.6,0-1.1,0-2-0.4c-0.2-0.8-0.1-1.3,0.3-1.9C303.7,187.8,304.9,186.7,306.2,185.7z"
	/>
<path class="st13" d="M444.3,168c0.9,0.3,1.7,0.4,2.1,0.9c0.5,0.6,1,1.6,0.8,2.3c-0.2,0.6-1.2,1.2-1.9,1.5c-0.7,0.3-1.6,0.1-2.4,0.1
	c-32.5,0-65,0-97.5,0c-0.7,0-1.4,0-2,0c-1.3,0-2.5-0.5-2.3-1.9c0.1-1,0.9-2.1,1.7-2.6c0.8-0.5,2-0.3,3-0.3
	C378.5,167.9,411.2,168,444.3,168z"/>
<path class="st10" d="M302,188.9c-0.1,0.5-0.2,1-0.4,1.8c-0.7,1.4-1.4,2.5-2.4,3.7c-3.2-3.5-7.2-4.8-11.4-5.5c1.1-2,1.5-3.7,0.8-5.7
	c-0.5-1.5-0.6-3.1-0.7-4.7c-0.3-4.7-1.4-9.4,0-14.1c0.2-0.2,0.3-0.4,0.3-0.6c0,0-0.1,0,0.2,0c0.9,0,1.4,0,2-0.1
	c7.9-1.8,13.9,0.9,17.7,8.1c0.3,0.6,0.5,1.3,0.4,1.9c-1.1,4.6-1.9,9.3-5.6,12.8C302.4,187,302.3,188.1,302,188.9z"/>
<path class="st7" d="M547.2,196.5c0.2,0.3,0.5,0.7,0.8,1.2c-0.8,3.7-1.6,7.3-2.5,10.8c-1.2,4.6-4.2,7.4-9.5,7.4
	c-21.2-0.2-42.3-0.1-63.5-0.1c-0.7,0-1.4,0-2,0c-2.3-0.2-3.8-1.7-3.9-3.9c-0.1-1.5,0-3,0.4-4.4c5.3-21.3,10.6-42.7,16-64
	c1.1-4.4,4.3-6.9,8.8-6.9c21.3,0,42.5,0,63.8,0c3.8,0,5.5,1.1,6.1,4c0.2,0.8,0.1,1.8-0.1,2.6c-0.8,3.4-1.7,6.8-2.4,10.2
	c-0.2,1-0.3,2-0.4,3.3c-0.8,0.9-1.5,1.6-2.5,2c0.4-2.5,0.9-4.8,1.5-7.1c0.7-2.7,1.4-5.5,2.1-8.2c0.8-3.4-0.1-4.7-3.5-4.8
	c-0.3,0-0.7,0-1,0c-21.1,0-42.3,0-63.4-0.1c-2.3,0-4.1,0.6-5.3,2.4c-0.9,1.3-1.6,2.7-2.1,4.2c-0.9,3.4-1.5,6.8-2.4,10.2
	c-2.4,9.7-4.9,19.3-7.3,28.9c-1.8,7-3.6,14-5.3,21c-0.3,1.2-0.6,2.4-0.7,3.7c-0.3,4.3,0.1,4.7,4.5,5.4c0.1,0,0.2,0,0.7,0
	c8.5,0,16.6,0,25,0c4.5,0,8.8,0,13.3-0.1c7.8,0,15.3,0.1,22.8,0c1,0,1.9-0.4,3.1-0.5c3.3-0.6,4.8-2.6,5.5-5.5c0.6-2.4,1-4.8,1.7-7.2
	C545.8,199.5,546.5,198,547.2,196.5z"/>
<path class="st13" d="M332.4,143.3c-0.2-1-0.1-2,0.1-3.3c-8.5,0-16.7,0-25.3,0c0.7-0.3,1.8-0.7,2.9-0.7c33,0,66,0,98.9,0
	c2.8,0,3.6,0.5,3.7,1.9c0.1,1.6-0.8,2.2-3.8,2.2C383.4,143.4,358,143.4,332.4,143.3z"/>
<path class="st19" d="M302.2,188.9c0.1-0.8,0.2-1.8,0.8-2.4c3.7-3.5,4.5-8.2,5.6-12.8c0.1-0.6-0.1-1.3-0.4-1.9
	c-3.8-7.2-9.8-9.9-17.7-8.1c-0.5,0.1-1.1,0.1-2-0.2c0.5-1.4,1.2-2.5,2-3.6c2.2-3.2,4.5-6.4,6.7-9.6c1.3-1.6,2.7-3.2,4.1-4.9
	c1.5,1.2,1.6,2.8,1.7,4.6c-1.2,2.7-2.3,5.1-3.7,7.9c1.3,0.6,2.5,1.1,4.1,1.5c1.5,0,2.6,0.2,3.7,0.4c2,1.4,3.6,2.8,3.9,5.6
	c0.1,0.9,1.6,1.7,2.7,2.9c0.6,1.8,1,3.2,1.3,4.6c-0.1,0.7-0.2,1.3-0.3,2c-0.3,3.5-2,6.1-5.4,7.1c-1.8,0.5-2.3,2.1-3.3,3.5
	C304.9,186.7,303.7,187.8,302.2,188.9z"/>
<path class="st21" d="M419.4,211.6c-9,0-17.6,0-26.2,0c-0.8,0-1.6,0.1-2.4,0c-1.6-0.2-2.3-0.9-2-2.5c0.6-2.8,1.3-5.5,2.1-8.2
	c0.2-0.6,1-1.2,1.6-1.4c0.7-0.3,1.6-0.1,2.4-0.1c16.4,0,32.7,0,49.1,0c1.2,0,2.4,0.2,4.1,0.3c-0.9,3.7-1.7,6.9-2.6,10.2
	c-0.5,1.8-2.1,1.8-3.6,1.8c-6.8,0-13.6,0-20.5,0C420.9,211.6,420.4,211.6,419.4,211.6 M434.1,209.6c3.2,0,6.3,0,9.5,0
	c0.9-2.8,2.1-5.1,1.5-8c-1.1-0.1-2.1-0.2-3.1-0.2c-15.3,0-30.7,0-46,0c-0.7,0-1.4-0.1-2,0.1c-0.6,0.2-1.4,0.5-1.6,1
	c-0.7,2.2-1.1,4.5-1.7,7.1C405.3,209.6,419.4,209.6,434.1,209.6z"/>
<path class="st21" d="M360.1,199.3c5.7,0,11,0,16.4,0c0.8,0,1.6,0,2.4,0.1c1.2,0.2,1.8,0.9,1.6,2.1c-0.6,2.6-1.3,5.3-2,7.9
	c-0.4,1.3-1.3,2.1-2.7,2.1c-0.7,0-1.4,0-2,0c-16,0-32,0-48.1,0c-0.9,0-1.8,0.1-2.7-0.1c-1.2-0.2-1.8-1-1.5-2.2
	c0.7-2.7,1.4-5.5,2.1-8.2c0.4-1.7,1.8-1.7,3.2-1.7c7.2,0,14.3,0,21.5,0C352,199.3,355.8,199.3,360.1,199.3 M342,209.6
	c11.3,0,22.7,0,34.2,0c0.8-2.8,1.4-5.3,2.2-8.2c-1.7,0-3,0-4.2,0c-14,0-28,0-41.9,0c-7.5,0-7.5,0-8.8,7.2c0,0.2,0.1,0.4,0.2,1
	C329.5,209.6,335.4,209.6,342,209.6z"/>
<path class="st21" d="M506.7,230.5c-1.1,0.4-2.4,0.9-3.7,0.9c-14.4,0.1-28.9,0.1-43.7,0.1c-1.6,0-2.8-0.1-4.1-0.1
	c-30.4,0-60.9,0-91.3,0c-1.2,0-2.5-0.2-3.9-0.5c0.8-0.5,1.9-1,2.9-1c46.9,0,93.9,0,140.8,0C504.7,230,505.6,230.2,506.7,230.5z"/>
<path class="st3" d="M596.3,133.1c-1,4.2-1.9,8.3-2.9,12.5c-1.1,4.4-2.2,8.7-3.3,13.1c-0.2,0.7,0.2,2.3-1.8,1.8
	c-1.6-1.5-2.9-2.9-4.4-4.6c1.3-5.2,2.8-10.2,4.2-15.1c0.7-2.4,1.3-4.8,2.3-7.4C592.6,133.1,594.5,133.1,596.3,133.1z"/>
<path class="st13" d="M430.4,143.4c-1.5,0-2.6,0-3.7,0c-1.4,0-2.5-0.5-2.4-2.1c0-1.4,1-1.9,2.3-2c0.6,0,1.1,0,1.7,0
	c10.9,0,21.8,0,32.7,0c0.5,0,0.9,0,1.4,0c1.8,0.1,2.8,0.9,2.8,2.2c0,1.7-1.3,1.9-2.6,1.9c-3.1,0-6.1,0-9.2,0
	C445.7,143.4,438.2,143.4,430.4,143.4z"/>
<path class="st13" d="M307.6,159.8c-1.4-0.1-2.5-0.3-3.9-0.5c-0.3-0.8-0.4-1.6-0.3-2.4c0.1-1.2,0.8-1.8,2-1.9c0.6,0,1.1,0,1.7,0
	c9.3,0,18.6,0,28,0c2.6,0,3.6,0.6,3.6,2.1s-1.5,2.6-3.8,2.7c-5.6,0.1-11.1,0-16.7,0C314.8,159.7,311.4,159.7,307.6,159.8z"/>
<path class="st13" d="M315.4,172.9c-0.5-1.5-0.9-2.9-1.3-4.6c5.6-0.3,11.3-0.4,17-0.3c2,0,3.2,1.3,3.1,2.9c-0.1,1.6-1.7,2.9-3.5,2.4
	c-4.7-1.2-9.4-0.1-14.1,0C316.2,173.3,315.9,173.1,315.4,172.9z"/>
<path class="st32" d="M287.7,189.1c4.3,0.5,8.3,1.7,11.4,5.4c0.9,2,0.7,3.8-1,5.4c-2.4-2.7-4.9-5.1-8.5-5.7
	c-1.7-0.3-3.6-0.2-5.6-0.5C284.7,191.6,285.4,189.6,287.7,189.1z"/>
<path class="st30" d="M596.5,132.9c-2,0.2-3.9,0.2-6.1,0.2c0.3-2.6,1-5.1,1.7-8c0.7-0.2,1.4-0.3,2-0.1c2.8,0.6,3.9,2.4,3.2,5.1
	C597.2,131,596.9,131.9,596.5,132.9z"/>
<path class="st33" d="M392.9,105.1c-1.7,0.2-3.5,0.7-5.2,0.7c-5,0.1-9.1-2-12.8-5.3c-5-4.4-7.4-10.1-7.2-16.6
	c0.2-6.6,2.2-12.8,6.1-18.4c3.8-5.4,8.3-9.9,14-13c7.6-4.2,15.8-6.2,24.5-3.8c7.7,2.2,12.4,7.6,14.6,15.2c1.3,4.6,0.8,9.2-0.1,13.8
	c-0.1,0.5-0.9,0.9-1.7,1.1c-2-2.7-4.2-1.6-6.5-1.2c-0.3-0.6-0.6-1.1-0.4-1.5c1-2.8,0.4-5.5,0-8.4c-1-5.7-4.8-8.9-9.9-10.5
	c-6.7-2.1-13.1-0.4-18.8,3.2c-6,3.7-10,9.2-12.1,15.8c-2.9,9,1.7,19.7,12.5,20.6c1.3,0.1,2.5,0.8,3.6,1.5
	C391.6,100.7,391.1,102.8,392.9,105.1z"/>
<path class="st24" d="M377.1,112.6c-6.4,0-12.4,0-18.4,0c-1.1,0-2.3-0.3-3.1-0.9c-0.6-0.4-1-1.7-0.8-2.3s1.2-1.2,1.9-1.4
	c0.7-0.2,1.6-0.1,2.4-0.1c32.4,0,64.8,0,97.3,0c0.8,0,1.6,0,2.4,0c1.4,0,2.3,1,2.1,2.1c-0.1,0.9-1.1,2-1.9,2.4s-2,0.2-3,0.2
	C429.8,112.6,403.6,112.6,377.1,112.6z"/>
<path class="st24" d="M420.8,90.1c26.2,0,52.3,0,78.5,0c1,0,2.1-0.1,3.1,0.1c0.6,0.2,1.4,0.8,1.6,1.4s-0.1,1.7-0.6,2.1
	c-1.1,1-2.6,1.3-4.1,1c-1.7-0.3-3.4-0.5-5-0.5c-25.4,0-50.7,0-76.3-0.2C418.7,92.6,419.7,91.3,420.8,90.1z"/>
<path class="st11" d="M420.8,89.9c-1.1,1.5-2.2,2.7-3.4,4.1c-3.6,2.7-6.9,5.4-10.6,7.5c-3.1,1.8-6.5,2.9-9.9,4.1
	c-1,0.3-2.4-0.3-3.9-0.5c-2-2.3-1.5-4.4,0.6-6.6c1.7-0.7,3.1-1.1,4.4-1.6c1.7-0.6,3.4-1.2,5-2c7.2-3.8,12.1-9.8,15.7-16.9
	c2.1-0.6,4.3-1.7,6.1,1c0.3,3.1-0.5,5.6-2.3,7.8C421.9,87.6,421.4,88.6,420.8,89.9z"/>
<path class="st21" d="M442.1,103.7c20.3,0,40.3,0,60.2,0c0,0.3,0.1,0.5,0.1,0.8c-0.5,0.2-1,0.6-1.5,0.7s-1.1,0-1.7,0
	c-19.1,0-38.2,0-57.3,0c-1.1,0-2.1-0.1-3.8-0.2C439.6,103.4,440.8,103.8,442.1,103.7z"/>
<path class="st32" d="M734.6,493.5c-1,2.1-3.4,1.9-5.2,2.3c-4,0.9-8,2.3-12.5,1.9c-0.1-1,0-1.9,0.2-3.2c4.1-0.5,8.1-0.8,12.2-1
	C731,493.4,732.7,493.4,734.6,493.5z"/>
<path class="st34" d="M694.4,437c0-2,0.1-4.1,0.3-6.4c0.2,1.7,0.4,3.7,0.6,6C695,436.9,694.8,436.9,694.4,437z"/>
<path class="st12" d="M199,168.5c1.9-0.1,2.2-1.4,1.9-2.9c-0.3-1.6-0.8-3.3-1.4-4.8c-0.5-1.2-0.8-2.3,0-3.5c2.6-4,3.8-8.1,1.7-12.5
	c2.6-1.4,5-2.7,7.5-4.1c2,7.9,2.2,16.1,1.7,24.3c-0.3,5.3-1.2,10.6-2.2,15.8c-0.5,2.5-0.9,5.3-4.3,6c-1.3-0.5-2.4-1-3.4-1
	c-4.2,0.1-7.4-1.5-9.8-4.9c-0.3-0.5-0.9-0.8-1.8-1.5c0.3,3,2,4.3,3.7,5.5c1.2,0.9,2.5,1.8,3.7,2.6c-1.6,1.7-0.5,3.8-1.1,6
	c-0.8,0.3-1.4,0.3-1.9,0.2c-9.1-2.9-18.4-3.8-28-2.7c-1.1,0.1-2-0.1-2.5-1.2c0.6-2.2,1.1-4.5,1.7-6.7c0.2-0.7,0.3-1.5,0.4-2.5
	c6.1,1,12.3,1.2,18.5,0.3c4.1-0.6,5.1-2,4.4-6.2c-0.7-3.8-0.9-7.7,1.7-11.1c0.9,3.9,2,7.5,4.5,10.6c0.7,0.9,1.6,1.6,2.9,1.3
	c1.3-0.4,2.1-1.3,2.1-2.7C199,171.2,199,169.9,199,168.5z"/>
<path class="st32" d="M162.6,189.9c0.7,1,1.6,1.2,2.7,1.1c9.5-1.1,18.8-0.3,28,2.7c0.5,0.2,1.1,0.1,1.9,0.1c2,1.6,3.8,3.2,5.5,4.9
	c0.7,0.8,1.1,1.8,1.7,2.9c-8.1-1-16.2-2.6-24.4-3.5c-6.6-0.7-13.3-0.6-20.3-0.9C157.7,194,159.7,191.7,162.6,189.9z"/>
<path class="st16" d="M189.9,493.9c-3.1-0.7-6.2-1.7-9.3-2.7c-0.9-0.3-1.9-0.7-3-1.1c-0.2-2.2-0.1-4.3-0.1-6.4
	c-0.1-10.6-0.2-21.3-0.3-31.9c0-1-0.1-2.1-0.5-3c-1.3-2.8-0.7-5.4-0.1-8.2c1.7-8.5,3.1-17.1,4.6-25.7c0.4-2.3,0.6-4.7,1.1-7.4
	c0.7,0.5,1.3,1.4,1.7,2.3c4,10.2,7.9,20.5,11.9,30.7c0.5,1.3,1.6,2.4,2.3,3.6c0,0.7,0.1,1.4,0,2c-1.8,7.7-3.7,15.3-5.5,23
	C190.8,477.1,189.8,485.3,189.9,493.9z"/>
<path class="st35" d="M169.3,534.9c0.1-4.7,0.2-9.2,0.2-13.6c0.2-10.6,0-21.1,0.8-31.6c0.6-7.3,0.2-14.5,0.6-21.8
	c0.2-3.1,0.6-6.2,1.4-9.5c0.2,0.5,0.6,1,0.6,1.6c-0.2,2.9-0.5,5.9-0.6,8.8c-0.3,13.6-0.5,27.2-0.7,40.9c-0.2,8.1-0.4,16.1-0.7,24.1
	c-0.2,5.8-0.4,11.5-0.7,17.3c0,0.7-0.2,1.4-0.4,2.5C168.7,551.1,168.5,539.9,169.3,534.9z"/>
<path class="st35" d="M225.9,375.2c-0.6,1.3-1.1,2.7-2.1,3.4c-1.4,1.1-1.7,2.1-1.3,3.8c0.5,2.4,0.8,4.9,1,7.4
	c0.3,3.5,0.5,7,0.8,10.5c0.4,4.4,0.8,8.8,1.3,13.1c0,0.2,0,0.5,0.1,0.7c0.2,8.4,0.5,16.8,0.7,25.2c0,1.4-0.5,2.8-0.8,4.4
	c-1.7-0.7-1.3-2-1.1-2.8c0.9-4.3,0.7-8.5,0-12.8c-0.3-2.1,0-4.3-0.1-6.5c-0.4-6.2-0.9-12.4-1.3-18.6c-0.2-3.4-0.4-6.8-0.7-10.1
	c-0.4-3.8-0.9-7.6-1.4-11.5c-3.5-0.6-7.1,0.1-9.6-3.1c0.9,0.2,1.8,0.3,2.6,0.6c3.8,1.5,7.1,1,9.8-2.3
	C224.1,375.8,225,375.5,225.9,375.2z"/>
<path class="st35" d="M198.2,443.7c-0.8-0.9-1.8-2-2.4-3.3c-4-10.2-7.9-20.4-11.9-30.7c-0.4-0.9-1-1.8-1.7-2.6
	c-0.6-1.8-0.7-3.7-1.3-5.5c-1.9-6.4-4.1-12.7-6.1-19.1c-0.2-0.6-0.2-1.2-0.4-2c2.1,0,2,1.6,2.3,2.6c2.1,6.3,4,12.7,6.2,19
	c4.5,12.9,9,25.9,14.7,38.3C198,441.4,198,442.4,198.2,443.7z"/>
<path class="st35" d="M163.4,445.6c-2.3-0.2-4.3-0.6-6.3-0.5c-1.8,0.1-3.7,0.6-6.1,1c2-2.8,4.7-2.8,7.1-3c3.7-0.2,8.8,1.8,9.9,3.8
	C166.4,446.5,165,446.1,163.4,445.6z"/>
<path class="st35" d="M215.7,460.3c-4.6-3.1-9.5-4.1-15-3.5c3.3-3.2,14-0.5,17.6,4.7C217,460.9,216.5,460.7,215.7,460.3z"/>
<path class="st35" d="M162.9,448.9c4.2,0.9,4.2,0.9,6.7,3.5c-2.7-0.7-4.9-1.6-7.2-1.8c-2.4-0.2-4.9,0.1-7.3,0.3
	C156.3,448.9,158.8,448.3,162.9,448.9z"/>
<path class="st35" d="M213.6,449.2c1.4,0.6,2.8,0.8,3.8,2.6c-5.4-2-10.3-1.7-15.5-0.6c0.4-0.4,0.7-0.9,1.2-1.1
	c2.6-1.1,5.2-2.1,8.2-1.1C211.9,449.3,212.7,449.2,213.6,449.2z"/>
<path class="st30" d="M499.3,458.8c-0.9,2.6-2.1,4.9-4.4,6.6c-0.5,0.4-0.9,1-1,1.6c-0.9,4.5,0.6,7.7,4.7,9.8c3,1.6,6,3.1,9.2,4.4
	c4.1,1.8,6.2,4.7,5.9,9.3c-0.2,2.1,0,4.3,0,6.5c-0.1,2.2-0.5,2.6-2.6,2.7c-0.5,0-0.9,0-1.4,0c-22.4,0-44.8,0-67.2,0
	c-0.9,0-1.8,0-3,0c0.1-0.9,0.1-1.6,0.3-2.1c1.9-3.8,3.7-7.8,6-11.4c1.8-2.9,5.2-3.9,8.2-5.1c4.4-1.8,8.8-3.4,13.2-5.3
	c3.3-1.4,5.3-4.2,6.9-7.2c0.4-0.8,0.2-2.1-0.1-3.1c-0.5-1.9-1.3-3.7-1.5-5.8c-1-0.8-2.1-1.6-3.2-2.7c-0.1-0.2-0.1-0.2,0.2-0.2
	c2.4-0.2,4.6-0.4,6.7-0.6c1.2-0.1,2.5-0.1,3.7,0c2,0.1,4,0.4,6,0.6c1.1,0.1,2.2,0.3,3.3,0.5C492.7,457.7,496,458.2,499.3,458.8z"/>
<path class="st1" d="M499.6,458.8c-3.6-0.5-6.9-1.1-10.2-1.6c-1.1-0.2-2.2-0.3-3.3-0.5c-2-0.2-4-0.4-6-0.6c-1.2-0.1-2.5-0.1-3.7,0
	c-2.1,0.1-4.2,0.4-6.7,0.6c-0.3-1.1-0.3-2.3-0.3-3.4c0-3.4,0-3.4,3.1-4.6c0.8-2.8,1.4-5.7,2.3-8.4c2.3-7.1,11.8-14,19.8-13.6
	c8.2,0.4,13.7,6.7,12.1,15.2c-0.4,2.3-1.4,4.5-2.2,6.8c0.8,0.3,1.5,0.7,2.5,1c-0.3,3.6-2.6,6-4.7,8.8
	C501.3,458.7,500.6,458.7,499.6,458.8z"/>
<path class="st30" d="M394.2,499c-9.7,0-19,0-28.3,0c-0.9,0-1.8,0-2.7-0.1c-1.2-0.2-1.9-0.9-1.6-2.1c0.6-2.4,1.2-4.8,1.9-7.2
	c0.9-2.6,1.2-2.9,4.2-2.9c13.3,0,26.6,0,39.9,0c3.4,0,6.8,0,10.2,0c2.8,0.1,3.1,0.5,2.4,3.3c-0.5,2.1-1,4.2-1.6,6.2
	c-0.6,2.2-1.3,2.7-3.7,2.7C408.2,499,401.3,499,394.2,499 M364.4,496.9c15.1,0,30.3,0.1,45.4,0.1c7.2,0,7.2,0,8.6-6.9
	c0.1-0.3,0-0.6-0.1-1.1c-0.9-0.1-1.8-0.2-2.7-0.2c-15.6,0-31.2,0-46.8,0c-0.5,0-0.9,0-1.4,0c-1.4-0.1-2.2,0.7-2.5,1.9
	C364.5,492.6,364.3,494.6,364.4,496.9z"/>
<path class="st11" d="M294.8,499c-0.5-0.9-0.9-1.8-0.7-2.6c0.5-2.4,1.2-4.8,1.8-7.2c0.4-1.7,1.4-2.5,3.2-2.5c0.6,0,1.1,0,1.7,0
	c16.1,0,32.2,0,48.3,0c1.2,0,2.4,0.3,3.9,0.6c-0.4,3.2-1.1,6.3-1.8,9.3c-0.4,1.5-1.3,2.3-2.9,2.3c-0.9,0-1.8,0-2.7,0
	C328.7,499,311.9,499,294.8,499 M309.2,497c13.4,0,26.8,0,40.3,0c0.5-2.8,1.9-5.2,1.4-8c-17.6,0-35.1,0-52.7,0
	c-0.7,2.6-1.4,5.1-2.3,8C300.4,497,304.4,497,309.2,497z"/>
<path class="st31" d="M764.9,188.5c2.1,2.2,4.3,4.4,6.3,6.8c-3,4.8-5.8,9.5-8.8,14c-1.3,2-2.9,3.7-4.4,5.6c-2,2.5-4.4,3-7.3,1.7
	c-3.4-1.6-6.9-3-10.1-4.9c-2.1-1.2-3.8-1.6-5.9-0.3c-1.5,0.9-3.4,1.3-5.1,1.7c-2.3,0.5-3.4-0.6-2.6-2.8c0.8-2.3,2-4.5,3.2-6.7
	c0.9-1.7,2-3.3,3.1-5.2c1.1-0.9,2.1-1.5,3.4-2c0.2,3.4-0.3,6.6,1.6,9.4c2.9,0.4,7.5-0.5,10.9-2C756.3,200.8,761.4,195.4,764.9,188.5
	z"/>
<path class="st34" d="M708.5,268.9c-0.1-3.5-1.6-6.4-3.6-9.4c-1.4-2.9-2.5-5.8-4-8.4c-3.2-5.7-3.5-11.3-0.2-17
	c3-5.3,5.9-10.7,8.8-16.1c0.6-1,1.2-2,2.6-1.2c-3,5.6-6,11-8.9,16.5c-0.8,1.5-1.3,3.2-2.1,4.6c-1.8,3.3-1.3,6.6,0.2,9.8
	c1.1,2.3,2.1,4.5,3.3,6.7c4.4,7.9,7,16.4,10.4,24.7c0.8,2,1.6,4,2.2,6.1c0.3,0.8,0.3,1.6,0.4,2.4c-0.2,0.1-0.5,0.2-0.7,0.3
	c-0.4-0.7-0.9-1.4-1.2-2.1c-1.9-4.9-3.7-9.7-5.6-14.6C709.9,270.4,709.2,269.7,708.5,268.9z"/>
<path class="st31" d="M786,273.4c1.8,3.7,3.3,7.3,5,10.9c0.8,1.7,0.6,3-0.8,4.2c-1.6,1.3-3.2,2.8-4.9,4.1c-1.6-6.2-2.4-12.4-3-19
	C783.5,273.5,784.6,273.4,786,273.4z"/>
<path class="st34" d="M779.6,270.9c-0.6,0.2-1.5,0.3-1.6,0.1c-0.6-1.5-1.1-3-1.5-4.5c-1.7-6.2-3.5-12.4-5.1-18.6
	c-0.4-1.5-1.3-2.5-2.4-3.5c-3-2.8-5.7-5.8-8.4-8.8c-0.8-0.9-1.2-2.3-1.8-3.5c1.8-0.9,2,0.4,2.6,1.2c1.7,2.4,3.4,4.8,5.2,7.1
	c0.7,0.8,1.7,1.3,3.1,1.7c-1.1-4.2-2.2-8.5-3.3-12.7c0.3-0.1,0.6-0.2,0.9-0.4c0.4,0.7,0.9,1.3,1.2,2.1c1.4,4.6,2.6,9.1,3.9,13.7
	c2.1,7.5,4.2,15,6.3,22.5C779,268.2,779.3,269.4,779.6,270.9z"/>
<path class="st34" d="M758.1,304.2c-0.5,0.3-1,0.3-1.8,0.3c-0.7-0.8-1.1-1.6-0.2-2.5c1.7-1.8,3.3-3.7,4.9-5.6c2.1-2.4,4.2-4.7,6.4-7
	c0.5-0.5,1.2-0.8,2.1-1.5c0,2.1-1.1,3.1-2.1,4.1c-2.8,3.2-5.6,6.5-8.4,9.8C758.5,302.4,758.4,303.2,758.1,304.2z"/>
<path class="st34" d="M775.1,214.4c2.9-3.7,6.6-5.4,10.9-6.1c0.4-0.1,0.9,0.6,1.9,1.2c-1,0.4-1.5,0.7-2,0.7c-5.8,0.9-9.7,4-11.4,9.7
	c-0.3,1-0.7,1.4-1.8,0.7C772.6,218.4,773.6,216.4,775.1,214.4z"/>
<path class="st34" d="M752.5,304.9c-0.2,0.2-0.5,0.2-1,0.2C751.6,305,752,304.9,752.5,304.9z"/>
<path class="st14" d="M287.8,188.9c-2.4,0.8-3.1,2.8-4.1,4.8c-2.1,0.7-3.2,2.1-4.1,3.9c-5,10.6-10.2,21.1-15.4,31.7
	c-1-2.2-0.9-4.5-0.2-6.8c3.2-11.8,6.3-23.6,9.3-35.4c2.8-10.9,5.6-21.9,8.5-32.9c0.1-0.5,0.4-1.1,0.5-1.6c0.4-1.7,1.3-2.4,3.1-2.4
	c3.7,0.1,7.5,0.1,11.6,0.1c-1.9,3.2-4.1,6.4-6.4,9.7c-0.8,1.1-1.5,2.2-2.3,3.5c0,0.2,0,0.3-0.1,0.3c-0.3,0.2-0.3,0.4-0.2,0.6
	c-1.3,4.7-0.2,9.4,0.1,14.1c0.1,1.6,0.2,3.2,0.7,4.7C289.3,185.2,288.9,186.9,287.8,188.9z"/>
<path class="st11" d="M253.6,133.9c1.2,2.9,0.2,7.8-1.8,9.4c-0.5,0.4-1.2,0.6-1.8,0.7c-0.9,0.1-1.8,0-2.7,0c-4.3,0-4.9-0.7-3.9-4.7
	c1.7-6.6,1.6-5.5,7.2-5.5C251.5,133.8,252.4,133.8,253.6,133.9z"/>
<path class="st6" d="M196.5,187.5c-1.5-0.9-2.8-1.8-4-2.7c-1.6-1.3-3.4-2.5-3.7-5.5c0.9,0.8,1.5,1.1,1.8,1.5c2.4,3.4,5.6,5,9.8,4.9
	c1,0,2.1,0.5,3.1,1C201.4,187.2,199.1,187.4,196.5,187.5z"/>
<path class="st10" d="M764.9,188.2c-3.5,7.2-8.5,12.5-15.7,15.7c-3.4,1.5-8,2.4-10.9,2c-1.9-2.8-1.5-6-1.4-9.5
	c1.1-3.5,1.8-6.8,1.3-10.6c-1.2,0-2.3,0-3.4,0c-1.4,0-2.7,0-4.1,0c-3.1-0.1-5.2-1.5-5.9-4.6c-0.7-3.3-1.5-6.7-1.9-10
	c-1-8.5-1.2-17,0.3-25.5c0.1-0.4,0.2-0.8,0.5-1.8c9.1,11,21.1,15,34.8,16.1c-0.6,2.1-1.2,4-1.1,6.1c0.2,3.2,0.2,3.4,3.7,3.8
	c0,0,0.1,0.2,0,0.4c0,0.4,0.2,0.6,0.3,0.8C762.5,176.8,763.7,182.4,764.9,188.2 M748.9,165.3c-0.5-0.7-0.9-1.6-1.6-2.1
	c-2.2-1.5-5.5-1-7,1s-0.8,5,1.4,6.8c2.1,1.7,4.4,1.2,6.5-1.1C749.3,168.7,749.2,167.3,748.9,165.3 M751.9,178.5
	c1.2-1.4,3.1-2.5,3.1-5.4c-2.6,2.6-4.5,5.2-7,7c-2.5,1.9-5.5,3.1-8.2,4.7c0.1,0.2,0.3,0.4,0.4,0.6
	C744.6,184.3,748.5,182.4,751.9,178.5 M732,173.3c1.1-1.9-1.6-1.3-1.6-2.8c0.1-1.1,0.2-2.5,0.5-4c0.5-2.7,0.5-2.7-0.5-4.8
	c-0.7,3.9-1.3,7.2-1.9,10.6C729.9,172.7,730.7,173,732,173.3 M736.5,176.2c-1.8,0.3-3.6,0.7-5.8,1.1c4.1,1.5,8.9,0.3,9.9-2.4
	C739.3,175.3,738.1,175.7,736.5,176.2 M739.8,160.8c-0.1-1.1-0.6-1.8-1.7-1.3c-0.4,0.2-0.7,1.2-0.6,1.6
	C738,162.1,738.9,162,739.8,160.8 M726.1,159.3c-1.1,0.1-1.7,0.6-1.3,1.7c0.1,0.3,1,0.7,1.4,0.5
	C727.3,161.2,727.4,160.4,726.1,159.3z"/>
<path class="st19" d="M761.1,169.8c-3.6-0.3-3.6-0.4-3.8-3.6c-0.1-2.1,0.4-4,1.4-6.1c0.9-1.3,1.8-2.3,2.8-3.3c1.1-1.1,2.5-1.7,4-1
	c1.7,0.8,1.5,2.4,1.2,3.9c-0.6,3-1.9,5.8-3.9,8.2C762.2,168.4,761.7,169,761.1,169.8z"/>
<path class="st19" d="M761.3,171.1c-0.1,0-0.3-0.2-0.4-0.6C761,170.5,761.2,170.7,761.3,171.1z"/>
<path class="st19" d="M199,168.2c0,1.6,0,3-0.1,4.3c-0.1,1.4-0.8,2.3-2.1,2.7s-2.2-0.3-2.9-1.3c-2.4-3.1-3.6-6.7-4.3-10.7
	c0.2-0.8,0.6-1.5,1.1-2.1c2.3-3,5.2-2.8,6.8,0.6C198.4,163.7,198.5,165.9,199,168.2z"/>
<path class="st34" d="M694,440.9c-0.2-0.2-0.2-0.5-0.1-1C694,440,694.1,440.4,694,440.9z"/>
<path class="st6" d="M736.3,349.6c-1.4,3.1-3.1,6.2-4.8,9.2c-1.2,2.1-3.1,1.3-5,1.1c-0.1-0.5-0.3-0.9-0.3-1.3
	c0.3-6.2,0.7-12.5,1.1-18.7c0-0.7,0.6-1.3,1.1-2c0.5,1.8-0.2,3.8,1.4,5.5c0.4,0.4,0.1,1.8-0.3,2.5c-1.8,2.9-1.5,6-1,9.1
	c0.6-2.2,1.2-4.4,1.8-6.5c0.3,0,0.5,0,0.8,0.1c0.1,0.7,0.3,1.4,0.2,2c-0.3,2.2-0.8,4.4-1.3,7c0,0.3,0,0.3,0.1,0.3
	c1.2-2,2.4-4,3.7-5.9C734.3,350.9,735.2,350.3,736.3,349.6z"/>
<path class="st36" d="M547.1,196.3c-0.5,1.7-1.3,3.2-1.8,4.8c-0.7,2.4-1.1,4.8-1.7,7.2c-0.7,2.9-2.3,4.9-5.6,5.2
	c-0.2-5-0.2-9.8-0.1-14.6c0-2-0.7-3.5-2.6-4.4c-4.1-1.9-8.2-3.9-12.2-6.1c-0.2-2.6-0.4-5-0.6-7.7c1.3-3.1,2.9-5.8,5.4-7.8
	c1.4-1.1,3-2.1,2.8-4.3c0,0,0,0,0.2-0.1c0.5-1,0.7-2,0.9-3.2c0.5-1.5,1-2.7,1.6-3.9c0.6-1.4,1.7-2.8,1.8-4.3
	c0.1-1.7-0.4-3.6-0.8-5.3c-1.6-7.7-11.5-11-17.6-6c-1.7,1.4-3.6,2.7-5.4,4.1c-0.9,0.7-1.6,1.6-2.3,2.5c-2.7,3.6-3.9,7.9-5.2,12.2
	c-2.9,0.8-3.2,1.2-3.3,3.5c-0.1,3,0.9,4.6,3.4,5.9c0.2,2.7,0.5,5.1,0.6,7.6c-0.3,1-0.5,1.8-0.9,2.6c-2.2,1.1-3.5,2.7-4.7,4.8
	c-4.9,1.8-9.5,3.7-14.1,5.5c-2,0.8-3.4,2.1-4.3,4c-2,4.2-4.1,8.3-6.1,12.5c-0.5,1-0.7,2.1-1.1,3.2c-0.1,0-0.2,0-0.3,0
	c-4.4-0.6-4.8-1.1-4.5-5.4c0.1-1.2,0.4-2.4,0.7-3.7c1.8-7,3.5-14,5.3-21c2.5-9.6,4.9-19.3,7.3-28.9c0.9-3.4,1.5-6.9,2.4-10.2
	c0.4-1.5,1.2-2.9,2.1-4.2c1.2-1.8,3-2.4,5.3-2.4c21.1,0.1,42.3,0.1,63.4,0.1c0.3,0,0.7,0,1,0c3.4,0.1,4.4,1.4,3.5,4.8
	c-0.7,2.7-1.4,5.5-2.1,8.2c-0.6,2.3-1.1,4.6-1.7,7.2c-3.7,3.5-7.3,6.7-9.7,11c-3.2,5.9-5.1,12-3.3,18.8
	C543.8,191.5,545,193.9,547.1,196.3z"/>
<path class="st31" d="M575.2,172.8c1.6-1.3,3-2.5,4.4-3.5c1.2-0.9,2.5-1.1,3.7,0c1,0.9,0.9,2.8-0.4,4c-2.8,2.5-5.7,4.8-8.7,7.2
	c-3.2,2.6-6.4,5.1-9.6,7.6c-3.3,2.7-4.6,2.5-7.2-1c-1.4-1.8-2.8-3.6-4.1-5.5s-1.1-3.6,0.3-4.9c1.7-1.5,3.2-1.5,4.7,0.2
	s2.8,3.5,4.4,5.5C567,179.2,571,176.1,575.2,172.8z"/>
<path class="st3" d="M334.5,95c2.3-9.9,4.9-19.9,7.7-30c3.4,2.1,4,5.6,4.2,9.1c0.3,6.7-2.6,12.3-7,17.1
	C338.1,92.7,336.3,93.7,334.5,95z"/>
<path class="st11" d="M691,583.5c0.1-0.2,0.2-0.3,0.4-0.4c0,0.2,0.1,0.3,0,0.6C691.3,583.8,691.1,583.6,691,583.5z"/>
<path class="st22" d="M134.8,261.6c-1.3-7.9-2.7-25.3-2-27.5c0.5,0.6,1.2,0.9,1.2,1.4c0.3,3.2,0.5,6.3,0.8,9.5
	c0.4,3.7,0.8,7.4,1.2,11.1c0.3,2.5,0.5,5,0.7,7.4c0.5,6.3,1,12.6,1.5,19c0.1,1,0.4,2,0.5,3c0,0.8-0.1,1.6-0.3,2.7
	c-1.5-1.3-2.1-4.1-2.3-8.3c-0.1-3.1-0.5-6.1-0.7-9.1C135.2,267.8,135,264.8,134.8,261.6z"/>
<path class="st22" d="M216.5,210.4c1.2,1.3,0,1.5-0.7,2c-3.4,2.6-6,5.8-7.6,9.8c-1.9,4.9-1.5,9.8-0.1,14.7c0.5,2,1.4,3.8,2.2,5.7
	c0.3,0.7,0.5,1.4,0.2,2.5c-0.5-0.4-1.2-0.7-1.5-1.2c-3.1-6.3-5.1-12.9-3.2-20C207.5,218,210.7,213.2,216.5,210.4z"/>
<path class="st22" d="M262.6,243.6c-0.9-0.2-1.5-0.5-2.2-0.7c3.4-2.1,6.4-0.9,9.2,0.6c2,1.1,3.6,2.5,3.5,5.8
	C270.1,246,267.3,243.1,262.6,243.6z"/>
<path class="st22" d="M266.1,251.7c-1.3-1.7-2.5-3.1-3.8-4.8c1.8-0.9,2.6,0.2,3.3,1.1c3,3.8,5.5,8,3.6,13.1
	c-0.5-2.1-0.7-3.5-1.1-4.9C267.6,254.8,266.9,253.4,266.1,251.7z"/>
<path class="st30" d="M305.4,478.5c-10.1,0-19.9,0-29.7,0c-1.3,0-2.7-0.3-3.9-0.9c-0.6-0.3-1-1.6-0.9-2.3c0.2-0.6,1.1-1.2,1.9-1.5
	c0.7-0.3,1.6-0.1,2.4-0.1c32.6,0,65.2,0,97.9,0c0.8,0,1.7-0.2,2.4,0.1c0.7,0.3,1.6,0.9,1.9,1.6c0.2,0.5-0.2,1.6-0.7,2.1
	c-0.6,0.6-1.6,0.9-2.4,1c-0.9,0.2-1.8,0-2.7,0C349.7,478.5,327.7,478.5,305.4,478.5z"/>
<path class="st30" d="M385,427.6c0,3.1-0.5,3.7-3.1,3.9c-0.7,0-1.4,0-2,0c-31.8,0-63.7,0-95.5,0c-1.1,0-2.3,0.1-3.4-0.2
	c-1.3-0.3-2.2-1.3-2-2.8c0.1-1.4,1.1-1.8,2.4-1.8c0.8,0,1.6,0,2.4,0c32.3,0,64.6,0,96.9,0C382,426.7,383.4,427.1,385,427.6z"/>
<path class="st30" d="M364.1,460.1c-15.5,0-30.6,0-45.7,0c-0.9,0-1.9,0.2-2.7-0.1c-0.7-0.2-1.7-0.9-1.9-1.5
	c-0.2-1.1,0.4-2.3,1.8-2.4c0.8-0.1,1.6-0.1,2.4-0.1c32.7,0,65.3,0,98,0c0.8,0,1.6,0,2.4,0.1c1.2,0.1,2,1,1.7,2.1
	c-0.2,0.7-0.9,1.6-1.6,1.8c-0.9,0.3-2,0.1-3,0.1C398.4,460.1,381.4,460.1,364.1,460.1z"/>
<path class="st30" d="M398.7,426.7c11.9,0,23.5,0,35-0.1c0.1,0,0.2,0,0.3,0c2.6,0,3.8,0.8,3.7,2.4c-0.1,1.4-1.5,2.4-3.9,2.4
	c-10.3,0-20.7,0-31,0c-1.3,0-2.7-0.3-4-0.7C396.5,430.1,396.3,428.8,398.7,426.7z"/>
<path class="st30" d="M279.7,442.3c9.4,0,18.5,0,27.6,0c2.6,0,4.2,0.9,4.2,2.4s-1.6,2.4-4.2,2.4c-9,0-17.9,0-26.9,0
	c-0.2,0-0.5,0-0.7,0c-2.3-0.1-3.6-1.1-3.5-2.8C276.3,442.2,277.9,442.4,279.7,442.3z"/>
<path class="st30" d="M287.7,460.1c-4.2,0-8.1,0-11.9,0c-0.8,0-1.7,0.2-2.3-0.2c-0.6-0.4-1.2-1.3-1.3-2c0-0.5,0.7-1.3,1.3-1.7
	c0.4-0.3,1.1-0.2,1.7-0.2c9.5,0,19,0,28.6,0c3,0,3.3,0.5,2.6,4.1C300.2,460.1,294.1,460.1,287.7,460.1z"/>
<path class="st26" d="M738.2,318.1c-5.7,0.3-11-0.3-16.2-1.4c-1.1-0.2-2.2-0.7-3.3-1c0.1-0.3,0.1-0.6,0.2-0.9c1.3,0.1,2.5,0,3.7,0.3
	c6.3,1.5,12.8,2.1,19.2,1.5c4.6-0.4,9.1-1.7,13.6-2.6c1.6-0.3,3.2-0.8,5.2-1.3C757.9,315.9,748.2,318.1,738.2,318.1z"/>
<path class="st26" d="M728.5,322.7c8.8,0.8,16.9-0.8,24.8-3.7c0.9,0.9,0.6,1.5-0.4,1.8c-3.1,0.9-6.3,1.9-9.4,2.7
	c-5,1.2-10.1,0.7-15.2,0.7c-0.9,0-1.8-0.5-3.2-1C726.4,321.9,727.3,322.3,728.5,322.7z"/>
<path class="st1" d="M428.3,348.8c6.9,0,13.5,0,20.6,0c-0.7,2.6-1.2,4.8-1.9,6.8c-0.2,0.6-1.3,1-2.1,1.3c-0.5,0.2-1.1,0-1.7,0
	c-15.2,0-30.5,0-45.7,0c-1,0-2-0.1-3-0.2c-0.9-3,1-5.2,1.4-8C406.7,348.8,417.3,348.8,428.3,348.8z"/>
<path class="st1" d="M356,357c-9.9,0-19.4,0-29,0c-0.5-2.8,0.5-4.9,1.3-7.1c0.2-0.5,1-0.9,1.6-1c0.6-0.2,1.4-0.1,2-0.1
	c15.3,0,30.7,0,46,0c1,0,2,0.1,3.1,0.2c0.5,2.9-1.1,5.2-1.3,8C371.7,357,364,357,356,357z"/>
<path class="st19" d="M288,164.3c-0.2-0.1-0.1-0.3,0.2-0.5C288.3,163.9,288.2,164.1,288,164.3z"/>
<path class="st37" d="M523.1,188.6c4.1,2,8.1,4,12.2,5.9c1.9,0.9,2.6,2.4,2.6,4.4c-0.1,4.8-0.2,9.5-0.2,14.6
	c-0.9,0.5-1.9,0.8-2.8,0.8c-7.5,0-15,0-22.8-0.2c1.2-3.7,2.7-7.2,4.5-10.6c0.8-0.3,1.5-0.5,1.7-1c1.3-2.6,2.7-5.2,3.7-8
	C522.7,192.6,522.8,190.6,523.1,188.6z"/>
<path class="st37" d="M473.8,214.3c0-1.1,0.3-2.2,0.8-3.2c2-4.2,4.1-8.3,6.1-12.5c0.9-2,2.3-3.3,4.3-4c4.6-1.8,9.2-3.6,14.1-5.2
	c-1.6,4.2-1.8,8.4-1.8,12.8c1.1-0.3,1.9-0.5,2.6-0.4c-0.5,4.4-0.9,8.4-1.4,12.5C490.4,214.3,482.2,214.3,473.8,214.3z"/>
<path class="st38" d="M498.8,214.3c0.2-4.1,0.6-8.2,1.3-12.6c2.5-1.8,3.7-0.2,5.1,1.2c2.7,2.7,3,2.7,5.8,0.2c2.5-2.3,3-2.3,5.4,0.4
	c-1.5,3.5-3,6.9-4.5,10.6C507.6,214.2,503.4,214.3,498.8,214.3z"/>
<path class="st2" d="M433.8,209.6c-14.4,0-28.5,0-43.1,0c0.6-2.7,1.1-4.9,1.7-7.1c0.1-0.5,1-0.8,1.6-1s1.4-0.1,2-0.1
	c15.3,0,30.7,0,46,0c1,0,2,0.1,3.1,0.2c0.5,2.9-0.7,5.2-1.5,8C440.4,209.6,437.3,209.6,433.8,209.6z"/>
<path class="st2" d="M341.6,209.6c-6.2,0-12.1,0-17.9,0c-0.1-0.6-0.3-0.8-0.2-1c1.3-7.2,1.3-7.2,8.8-7.2c14,0,28,0,41.9,0
	c1.2,0,2.5,0,4.2,0c-0.8,2.9-1.5,5.4-2.2,8.2C364.6,209.6,353.3,209.6,341.6,209.6z"/>
<path class="st3" d="M418.6,77.7c-3.4,7.3-8.3,13.3-15.5,17.1c-1.6,0.8-3.3,1.4-5,2c-1.3,0.5-2.7,0.9-4.3,1.4
	c-1.5-0.4-2.7-1.1-4-1.2c-10.8-1-15.4-11.7-12.5-20.6c2.1-6.7,6.1-12.2,12.1-15.8c5.8-3.6,12.1-5.3,18.8-3.2
	c5.1,1.6,8.9,4.8,9.9,10.5c0.5,2.8,1,5.6,0,8.4C418,76.6,418.3,77.1,418.6,77.7z"/>
<path class="st3" d="M364.1,496.7c0.1-2.1,0.4-4.1,0.9-6.1c0.3-1.2,1-2,2.5-1.9c0.5,0,0.9,0,1.4,0c15.6,0,31.2,0,46.8,0
	c0.9,0,1.8,0.1,2.7,0.2c0,0.5,0.2,0.8,0.1,1.1c-1.4,6.9-1.4,6.9-8.6,6.9C394.6,496.9,379.5,496.9,364.1,496.7z"/>
<path class="st24" d="M308.9,497c-4.4,0-8.5,0-12.9,0c0.8-2.9,1.5-5.4,2.3-8c17.6,0,35.1,0,52.7,0c0.5,2.9-0.9,5.2-1.4,8
	C336,497,322.6,497,308.9,497z"/>
<path class="st6" d="M749,165.6c0.2,1.7,0.4,3.1-0.8,4.4c-2.1,2.3-4.4,2.8-6.5,1.1c-2.3-1.9-2.9-4.9-1.4-6.8c1.5-2,4.8-2.5,7-1
	C747.9,163.8,748.4,164.6,749,165.6z"/>
<path class="st6" d="M751.7,178.7c-3.3,3.7-7.2,5.7-11.6,6.8c-0.1-0.2-0.3-0.4-0.4-0.6c2.8-1.5,5.7-2.8,8.2-4.7s4.4-4.4,7-7
	C755,176,753.1,177.1,751.7,178.7z"/>
<path class="st6" d="M731.8,173.3c-1.1-0.3-1.9-0.6-3.2-1c0.6-3.3,1.2-6.6,1.9-10.6c1,2.2,0.9,2.1,0.5,4.8c-0.2,1.4-0.3,2.9-0.5,4
	C730.5,171.9,733.1,171.3,731.8,173.3z"/>
<path class="st6" d="M736.7,176.1c1.4-0.4,2.6-0.8,3.8-1.2c-1,2.7-5.8,3.9-9.9,2.4C732.9,176.9,734.7,176.5,736.7,176.1z"/>
<path class="st5" d="M739.7,161c-0.8,1.1-1.7,1.1-2.2,0.1c-0.2-0.4,0.2-1.4,0.6-1.6C739.2,159,739.7,159.7,739.7,161z"/>
<path class="st5" d="M726.3,159.4c1.1,1,1,1.8-0.1,2.2c-0.4,0.1-1.2-0.2-1.4-0.5C724.4,160,725,159.4,726.3,159.4z"/>
<path class="st10" d="M730.1,357.7C730,357.7,729.9,357.7,730.1,357.7L730.1,357.7z"/>
<path class="st39" d="M504.8,181.6c-0.2-2.4-0.5-4.8-0.7-7.7c0-1.5,0-2.4,0.3-3.5c0.7-1.2,1.4-2.3,1.6-3.5c0.3-2.3,1.1-4.3,2.9-5.9
	c0.7-0.7,1.2-2,1.2-3c0-1.9,1.1-2.4,2.6-2.4c1.3,0,2.7,0.5,4,0.6c2.3,0.3,4.7,0.6,7,0.6c3.5-0.1,5.8,1.7,5.8,5.2
	c0,1.6-0.5,3.1-0.8,4.7c-0.2,1-0.4,2-0.7,3.5c1.3-0.7,2.1-1.2,2.8-1.6c0.2,2.2-1.5,3.2-2.9,4.3c-2.5,2-4.1,4.6-5.6,7.8
	c-0.2,0.2-0.5,0.2-0.7,0.3c-0.9,0.4-1.6,0.8-2.2,1.3c-3.9,2.8-8.2,2.9-12.2,0.2C506.6,182,505.6,181.9,504.8,181.6z"/>
<path class="st20" d="M530.8,168.6c-0.7,0.4-1.5,0.9-2.8,1.6c0.3-1.5,0.6-2.5,0.7-3.5c0.3-1.5,0.7-3.1,0.8-4.7
	c0.1-3.4-2.3-5.3-5.8-5.2c-2.3,0.1-4.7-0.3-7-0.6c-1.3-0.1-2.7-0.6-4-0.6c-1.5-0.1-2.5,0.5-2.6,2.4c0,1-0.5,2.3-1.2,3
	c-1.8,1.6-2.6,3.6-2.9,5.9c-0.2,1.2-0.9,2.3-1.6,3.2c-0.2-1.9-0.2-3.7-0.1-5.4c1-4.3,2.3-8.6,5-12.2c0.7-0.9,1.4-1.8,2.3-2.5
	c1.7-1.4,3.7-2.7,5.4-4.1c6.1-5.1,16-1.7,17.6,6c0.4,1.8,1,3.6,0.8,5.3c-0.1,1.5-1.2,2.8-1.8,4.3c-0.5,1.2-1,2.4-1.7,4.1
	C531.3,166.9,531,167.8,530.8,168.6C530.7,168.6,530.7,168.6,530.8,168.6z"/>
<path class="st12" d="M504.7,181.8c1,0.1,1.9,0.2,2.6,0.7c4,2.7,8.3,2.7,12.2-0.2c0.6-0.5,1.3-0.9,2.1-1c0,1.5-0.2,2.7-0.5,3.9
	c-0.4,1.9-0.2,4.2-1.3,5.5c-3.2,3.9-7.1,7.2-11.3,10.3c-2.7-2.7-4.4-5.7-5.6-9c-0.9-2.2,0.3-4.4,1-6.6c0.1-0.3,0.1-0.7,0.1-1
	C504.1,183.5,504.3,182.7,504.7,181.8z"/>
<path class="st32" d="M503.7,184.3c0.2,0.3,0.2,0.7,0.1,1c-0.7,2.2-1.8,4.3-1,6.6c1.3,3.3,2.9,6.3,5.6,9c4.2-3.1,8.1-6.4,11.3-10.3
	c1.1-1.3,0.9-3.6,1.3-5.5c0.2-1.2,0.4-2.4,0.7-3.9c0-0.3,0.3-0.3,0.5-0.3c0.4,2.4,0.6,4.8,0.8,7.4c-0.4,2.2-0.4,4.3-1.1,6.1
	c-1,2.8-2.4,5.4-3.7,8c-0.2,0.5-0.9,0.7-1.7,1c-2.6-2.7-3.1-2.8-5.6-0.4c-2.8,2.5-3.1,2.5-5.8-0.2c-1.4-1.4-2.6-3-5.1-1.5
	c-1,0.3-1.7,0.5-2.9,0.8c0-4.5,0.1-8.6,2-12.8C500.2,187.1,501.5,185.4,503.7,184.3z"/>
<path class="st12" d="M504,164.7c0.2,1.8,0.2,3.5,0.2,5.5c0,1.2-0.1,2.2-0.1,3.4c-2.5-0.7-3.5-2.4-3.4-5.4
	C500.8,165.9,501.1,165.5,504,164.7z"/>
<path class="st39" d="M531,168.6c0-0.8,0.3-1.7,0.8-2.7C531.7,166.6,531.4,167.5,531,168.6z"/>
</svg>
