<?xml version="1.0" encoding="utf-8"?>
<!-- Generator: Adobe Illustrator 27.1.0, SVG Export Plug-In . SVG Version: 6.00 Build 0)  -->
<svg version="1.1" id="Calque_1" xmlns="http://www.w3.org/2000/svg" xmlns:xlink="http://www.w3.org/1999/xlink" x="0px" y="0px"
	 viewBox="0 0 856 582" style="enable-background:new 0 0 856 582;" xml:space="preserve">
<style type="text/css">
	.st0{fill:#E6E6E6;}
	.st1{fill:#3F3D56;}
	.st2{fill:#CCCCCC;}
	.st3{fill:#82589F;}
	.st4{fill:#F2F2F2;}
	.st5{fill:#FF6584;}
	.st6{fill:#A0616A;}
	.st7{fill:#2F2E41;}
	.st8{fill:#FBB76B;}
	.st9{opacity:0.2;enable-background:new    ;}
</style>
<path id="Layer" class="st0" d="M519.7,326.2c0.7,0,1.4,0.2,2.1,0.5c0.7,0.3,1.3,0.6,1.8,1.1s0.9,1.1,1.2,1.8
	c0.3,0.7,0.4,1.4,0.4,2.1v53.2h105.5c1.5,0,2.9,0.6,3.9,1.7c1.1,1,1.6,2.4,1.6,3.8c0,1.5-0.5,2.9-1.6,3.9c-1,1.1-2.4,1.6-3.9,1.6
	H525.2v184h-11V331.7c0-0.7,0.2-1.4,0.5-2.1s0.7-1.3,1.2-1.8s1-0.8,1.7-1.1C518.3,326.4,519,326.2,519.7,326.2z"/>
<path id="Layer_00000174578460129304474190000010992184388107132307_" class="st1" d="M226.1,578.7l-19.8,0.5
	c-0.7,0.1-1.5,0.1-2.2,0s-1.5-0.2-2.2-0.5c-0.7-0.2-1.4-0.4-2.1-0.7c-0.7-0.3-1.3-0.7-2-1.1c-2.1-1.6-3.1-3.8-2.7-6l3.9-19.6
	c0.8-3.7,5.3-6.5,10.8-6.6l11-0.3c5.5-0.2,10.1,2.3,11.1,6l5,19.4c0.5,2.1-0.3,4.3-2.4,6.1c-0.6,0.4-1.2,0.8-1.9,1.2
	c-0.7,0.3-1.3,0.6-2,0.9c-0.7,0.2-1.5,0.4-2.2,0.5C227.7,578.6,226.9,578.7,226.1,578.7L226.1,578.7z"/>
<path id="Layer_00000082367487061266883670000009944795332224878486_" class="st1" d="M346.8,578.1l-19.9,0.6c-0.7,0-1.5,0-2.2-0.1
	s-1.5-0.2-2.2-0.4s-1.4-0.5-2.1-0.8s-1.3-0.7-1.9-1.1c-2.2-1.6-3.2-3.8-2.7-5.9l3.9-19.7c0.7-3.7,5.2-6.5,10.7-6.6l11-0.3
	c5.5-0.2,10.2,2.4,11.1,6l5,19.4c0.5,2.2-0.3,4.4-2.4,6.1c-0.6,0.5-1.2,0.9-1.9,1.2c-0.7,0.3-1.3,0.6-2,0.9
	c-0.7,0.3-1.5,0.4-2.2,0.5C348.3,578,347.5,578.1,346.8,578.1L346.8,578.1z"/>
<path id="Layer_00000086657255732981694760000000432019829029916066_" class="st1" d="M157.3,411.6c-0.9-0.4-1.7-1-2.1-1.9
	c-0.5-0.9-0.6-1.9-0.5-2.9c0.2-0.9,0.7-1.8,1.5-2.4c0.7-0.7,1.7-1.1,2.7-1.1l225.4-6.2c0.6,0,1.2,0.1,1.7,0.3c0.5,0.2,1,0.5,1.4,0.9
	c0.5,0.4,0.8,0.9,1,1.4c0.3,0.5,0.4,1,0.4,1.6s-0.1,1.2-0.3,1.7c-0.2,0.5-0.5,1-0.9,1.4s-0.9,0.7-1.4,1c-0.5,0.2-1.1,0.3-1.6,0.4
	L159.1,412c-0.1,0-0.3,0-0.5,0c-0.1-0.1-0.3-0.1-0.4-0.1c-0.2,0-0.4,0-0.5-0.1S157.4,411.7,157.3,411.6L157.3,411.6z"/>
<path id="Layer_00000027594420095574405180000016799016892855944880_" class="st0" d="M176,338.8l64.5-1.8l6,217.6l-64.4,1.8
	L176,338.8z"/>
<path id="Layer_00000098188159616283958300000009855981620074445982_" class="st2" d="M242.1,333.1l2.7,191.8l-15.1-4.3V366.8
	L242.1,333.1L242.1,333.1z"/>
<path id="Layer_00000119804192000826672610000001077410205358608525_" class="st1" d="M230.6,308.3L231,323l-43.7,1.2l-0.4-14.7
	c-0.2-8.2,9-29,21-29.4C220,279.8,230.3,300.1,230.6,308.3L230.6,308.3z"/>
<path id="Layer_00000134960114254733810740000006227998538329366207_" class="st1" d="M176.9,428.9c-1.1,0-2.2-0.2-3.3-0.6
	c-1-0.4-2-1-2.8-1.7c-0.8-0.8-1.5-1.7-1.9-2.7c-0.5-1.1-0.7-2.2-0.8-3.3l-0.6-24c-0.1-2.2,0.8-4.4,2.3-6c1.6-1.7,3.7-2.6,5.9-2.7
	c2.3-0.1,4.5,0.8,6.1,2.3c1.7,1.6,2.6,3.7,2.7,6l0.6,23.9c0.1,1.2-0.1,2.3-0.5,3.3c-0.4,1.1-1,2-1.8,2.8s-1.7,1.5-2.7,1.9
	C179.1,428.6,178,428.8,176.9,428.9L176.9,428.9z"/>
<path id="Layer_00000155119557651676188630000010455517903951242625_" class="st1" d="M193.2,339.3l-0.3-15.9l4.2-0.1l0.3,15.8
	l3.8,230.4l-4.2,0.1"/>
<path id="Layer_00000056427093049913817390000014619168349526093753_" class="st0" d="M247.9,376.4l-74.8,2
	c-7.1-8.7-7.7-45.8,7.2-52.8l5.8-9.9l45-2.2l5.3,10.4C243.8,330.2,247.6,367.1,247.9,376.4z"/>
<path id="Layer_00000000183331227445109040000015196857455931314357_" class="st3" d="M219.8,358.6l-18.9,0.5
	c-3.7,0.1-6.8-4.6-7-10.6c-0.1-5.9,2.7-10.8,6.4-10.9l18.9-0.5c3.6-0.1,6.7,4.6,6.9,10.6C226.2,353.6,223.4,358.5,219.8,358.6
	L219.8,358.6z"/>
<path id="Layer_00000041975472097286823700000012783182108521517702_" class="st0" d="M183.2,465.6l-0.4,74.4l-45.4,15.1l6.8-62
	L183.2,465.6L183.2,465.6z"/>
<path id="Layer_00000147189412585002029980000004730050527501969033_" class="st0" d="M300.5,336.1l64.4-1.8l6,217.6l-64.4,1.8
	L300.5,336.1z"/>
<path id="Layer_00000066510912161274284830000005509896955918210492_" class="st2" d="M302,333.8l13.3,33.4l3.9,153.7l-14.9,4.7
	L302,333.8z"/>
<path id="Layer_00000013182633453839670220000001439729938363110558_" class="st0" d="M397.1,273.9c-4.6,0-8.4-5.1-8.4-11.3
	c0-6.3,3.8-11.3,8.4-11.3c4.7,0,8.5,5,8.5,11.3C405.6,268.8,401.8,273.9,397.1,273.9z"/>
<path id="Layer_00000148644975808811966780000017738908300267297950_" class="st1" d="M353.7,305.6l0.4,14.8l-43.6,1.2l-0.5-14.8
	c-0.2-8.1,9-29,21.1-29.3C343.1,277.2,353.5,297.5,353.7,305.6L353.7,305.6z"/>
<path id="Layer_00000140715035100313984390000005577761869661780636_" class="st1" d="M343.6,344.2l-0.3-15.8l4.1-0.1l0.3,15.8
	l3.8,230.3l-4.2,0.2"/>
<path id="Layer_00000107583317735112243980000016378862502719556030_" class="st0" d="M371,373.7l-74.7,2.1
	c-1.3-7.9,0.4-44.6,7.1-52.9l5.8-9.9l45.1-2.2l5.3,10.5C372.9,322.4,377.5,358.5,371,373.7L371,373.7z"/>
<path id="Layer_00000139270979492431837710000007267875498101142461_" class="st3" d="M343,359.3l-18.9,0.5c-3.7,0.1-6.8-5.4-7-12.2
	c-0.2-6.9,2.7-12.5,6.3-12.6l18.9-0.5c3.7-0.1,6.8,5.4,7,12.2S346.6,359.2,343,359.3z"/>
<path id="Layer_00000106835843183526042330000012859094510984627859_" class="st0" d="M368.1,449.7l37.6,29.2l4,62.3L365,524
	L368.1,449.7z"/>
<path id="Layer_00000075145264882532166200000010075409631328050603_" class="st4" d="M357.6,161.1c-40.4,0-86.9-44.8-128-23.5
	C105.2,202.1,122.3,94.1,86.6,54l1.2-2.4c27,103.3,51.5,267.7,142.4,83.2c22.7-46.2,97.4,25.3,141.4,23.2l0.1,2.8
	C367,161,362.3,161.1,357.6,161.1L357.6,161.1z"/>
<path id="Layer_00000010276898376199165280000011111267763603821731_" class="st4" d="M454.6,167.5c-32.3,24.4-96.4,16.7-116.2,58.5
	c-60.3,126.5-111.8,30.1-164.5,19.7l-0.5-2.6c52.8,4.4,109.4-2.4,163.7-19.7c49.1-15.5,92.9-38.7,126.7-66.9l1.8,2.2
	C462,161.7,458.3,164.6,454.6,167.5L454.6,167.5z"/>
<path id="Layer_00000002362302834512777740000012528198312463549602_" class="st0" d="M104.1,161.9c-4.6,0-8.4-5.1-8.4-11.3
	c0-6.3,3.8-11.3,8.4-11.3c4.7,0,8.5,5,8.5,11.3C112.6,156.8,108.8,161.9,104.1,161.9z"/>
<path id="Layer_00000132770575155636973160000015524559569470188990_" class="st0" d="M366.1,69.9c-4.6,0-8.4-5.1-8.4-11.3
	c0-6.3,3.8-11.3,8.4-11.3c4.7,0,8.5,5,8.5,11.3C374.6,64.8,370.8,69.9,366.1,69.9z"/>
<path id="Layer_00000054986023903085154720000000330705382148721069_" class="st0" d="M181.5,207.6c-3.9,2.6-7.8-3.5-3.9-6
	C181.5,199,185.4,205.2,181.5,207.6z"/>
<path id="Layer_00000175296958140397298610000006132727472060191882_" class="st0" d="M324.5,6.6c-3.9,2.6-7.8-3.5-3.9-6
	C324.5-2,328.4,4.2,324.5,6.6z"/>
<path id="Layer_00000110469108564408670690000001108598304963040664_" class="st0" d="M408.7,125.8l-0.3,1.6l-2.5-0.5l-0.5,2.5
	l-1.6-0.4l0.5-2.5l-2.5-0.5l0.4-1.6l2.5,0.5l0.5-2.5l1.6,0.4l-0.5,2.5L408.7,125.8z"/>
<path id="Layer_00000171683591078624674980000016545970052918732460_" class="st5" d="M183.5,43.4c-5.9,0-10.7-4.7-10.7-10.7
	c0-5.9,4.8-10.7,10.7-10.7c6,0,10.7,4.8,10.7,10.7C194.2,38.7,189.5,43.4,183.5,43.4z"/>
<path id="Layer_00000133505459239675611470000005895915821283615395_" class="st1" d="M284.4,47.3l0.4,14.8l-43.6,1.2l-0.4-14.8
	c-0.2-8.1,9-29,21-29.3C273.9,18.9,284.2,39.2,284.4,47.3z"/>
<path id="Layer_00000103971572498189424550000004297866881203898795_" class="st1" d="M287.8,577.4L268,578c-0.7,0-1.5,0-2.3-0.1
	c-0.7-0.1-1.5-0.2-2.2-0.4s-1.4-0.5-2.1-0.8s-1.3-0.7-1.9-1.1c-2.2-1.6-3.1-3.8-2.7-6l3.9-19.6c0.7-3.7,5.3-6.5,10.8-6.6l10.9-0.3
	c5.5-0.2,10.2,2.4,11.2,6l4.9,19.4c0.6,2.1-0.3,4.3-2.3,6.1c-0.6,0.4-1.2,0.8-1.9,1.2c-0.7,0.3-1.4,0.6-2.1,0.9
	c-0.7,0.2-1.4,0.4-2.2,0.5C289.3,577.3,288.5,577.4,287.8,577.4L287.8,577.4z"/>
<path id="Layer_00000167374015344776356130000016549350403033700270_" class="st0" d="M232.2,114.8l64.5-1.8l12.1,439.9l-64.4,1.8
	L232.2,114.8z"/>
<path id="Layer_00000094594707563949322160000013226188299929399732_" class="st1" d="M270.9,325.9l-0.3-15.8l4.1-0.1l0.3,15.8
	l3.8,230.3l-4.2,0.2"/>
<path id="Layer_00000101094296128386469030000006637809340677890701_" class="st0" d="M309.3,153.3l-87.3,2.4
	c-1.5-9.2,0.5-52.1,8.3-61.7l2.2-11.5l60.3-1.7l3.1,11.2C304.6,99.4,309.1,142.4,309.3,153.3z"/>
<path id="Layer_00000146479082273375492990000006769077495237161891_" class="st0" d="M294.7,82.2l-62.2,1.7
	c-2.3,0.1-4.2-1.1-4.3-2.7c0-0.1,0-0.1,0-0.2c0,0,0,0,0-0.1c0.1-0.1,0.1-0.1,0.1-0.2s0-0.1,0-0.2l9.7-29.7c0.4-1.3,2-2.2,4-2.3
	l41.2-1.1c2-0.1,3.7,0.8,4.1,2l11.3,29.2c0.6,1.5-0.7,3-2.9,3.5c-0.1,0-0.2,0-0.3,0c-0.1,0-0.1,0-0.2,0c-0.1,0.1-0.2,0.1-0.3,0.1
	C294.8,82.2,294.8,82.2,294.7,82.2z"/>
<path id="Layer_00000101822422479264051870000011687057100826926242_" class="st1" d="M238.6,323.9c-0.1-0.1-0.3-0.1-0.4-0.2
	c-0.1-0.1-0.3-0.1-0.4-0.2c-0.1-0.1-0.3-0.1-0.4-0.2c-0.1-0.1-0.3-0.2-0.4-0.3c-0.3-0.3-0.6-0.5-0.9-0.8c-0.3-0.3-0.6-0.7-0.8-1.1
	c-0.2-0.3-0.4-0.7-0.5-1.2c-0.1-0.4-0.1-0.8-0.2-1.2l-2.2-81.9c-0.1-3.4,3.2-6.2,7.4-6.3l55.7-1.6c4.2-0.1,7.6,2.6,7.7,6l2.3,81.8
	c0,0.5-0.1,0.9-0.2,1.3s-0.2,0.8-0.4,1.2s-0.4,0.8-0.7,1.1c-0.3,0.3-0.6,0.6-0.9,0.9s-0.7,0.5-1.1,0.8c-0.5,0.2-0.9,0.4-1.3,0.6
	c-0.5,0.1-0.9,0.3-1.4,0.4s-0.9,0.1-1.4,0.1l-55.7,1.5c-0.3,0-0.7,0-1,0s-0.6,0-0.9-0.1c-0.3-0.1-0.7-0.1-1-0.2
	C239.2,324.2,238.9,324,238.6,323.9L238.6,323.9z"/>
<path id="Layer_00000153691728112961559430000004608170496718650007_" class="st3" d="M274.3,76.9l-18.9,0.5c-3.7,0.1-6.8-4-6.9-9.2
	c-0.2-5.1,2.7-9.4,6.3-9.5l18.9-0.5c3.7-0.1,6.8,4,6.9,9.2C280.8,72.5,277.9,76.8,274.3,76.9L274.3,76.9z"/>
<path id="Layer_00000093874565222696075710000010108912477935265698_" class="st0" d="M726.7,564.9c1.5,1.5,2.3,3.5,2.3,5.6
	c0,2.2-0.8,4.2-2.3,5.7s-3.6,2.3-5.7,2.3h-60c-2.1,0-4.1-0.8-5.6-2.3s-2.4-3.5-2.4-5.7c0-2.1,0.9-4.1,2.4-5.6s3.5-2.4,5.6-2.4h22
	V402.7c-18.7-1.3-32.8-6.9-32.8-13.8c0-7.7,18.2-14,40.5-14c22.4,0,40.5,6.3,40.5,14c0,6.8-13.8,12.4-32.2,13.8v159.8h22
	C723.1,562.5,725.2,563.4,726.7,564.9z"/>
<path id="Layer_00000088128805655031730700000012974529127605057210_" class="st6" d="M676.8,481.4l-7.2,7.8l-33.8-24.1l10.7-11.6
	L676.8,481.4L676.8,481.4z"/>
<path id="Layer_00000111871124639789973290000006753233652189099652_" class="st7" d="M658.5,499.5c0.1-0.9,0.4-1.7,0.7-2.5
	c0.3-0.9,0.6-1.7,1.1-2.4s1-1.4,1.6-2.1l0.7-7.9l0.4-0.1l1.9-0.9l9.2-4.4l0.2-0.2l1.8-2l10.2,9.4l-13.8,15l-9.5,10.4l-0.3-0.3
	c-0.7-0.6-1.3-1.3-1.8-2s-0.9-1.5-1.3-2.3c-0.4-0.8-0.7-1.6-0.9-2.4c-0.2-0.9-0.3-1.8-0.3-2.7C658.3,501.2,658.4,500.4,658.5,499.5
	L658.5,499.5z"/>
<path id="Layer_00000076588313516298125660000009350058837991146375_" class="st6" d="M714.3,559.9l-10.2,3.1l-16.9-37.9l15.1-4.6
	L714.3,559.9L714.3,559.9z"/>
<path id="Layer_00000133519457912560237570000017820500849736917149_" class="st7" d="M686.3,573.4c0.2-1.7,0.7-3.4,1.5-5
	c0.8-1.5,2-2.9,3.3-4c1.4-1.1,3-2,4.6-2.5l4.7-6.4h0.3l12.3,1.2l0.3-0.1l2.6-0.8l4,13.2l-33,10.1l-0.1-0.5
	C686.3,577,686.1,575.2,686.3,573.4L686.3,573.4z"/>
<path id="ad16ec3e-8c70-4d69-a6df-f9bf45b483f6-32" class="st7" d="M704.3,370.1L687,461.7c0.2,8.3,21.8,66.1,21.8,66.1l-20.7,8.1
	c0,0-32.9-70.1-31.7-78.2l2.2-15.5l1.4-43.5c-5.8-0.4-14.1,7.7-21.7,17.1c-1.3,1.5-5.8,1.2-7,2.8c-1.4,1.9-2.7,3.8-3.9,5.8
	c-1.3,2-2.4,4.1-3.4,6.2c-1.1,2.1-2,4.3-2.9,6.4c-0.9,2.2-1.7,4.4-2.4,6.7h-12.8c-41.2-19.5,24.1-82.6,24.1-82.6L704.3,370.1z"/>
<path id="Layer_00000031900784645048673190000014458863836032850590_" class="st3" d="M625.1,358.9c2-3.8,6.5-8.6,10-13.1
	c3.9-5,4.6-11.7,4.6-11.7l-1.6-5.7l1.4-3.5L639,299v-3.2l-13.6-41.2l-0.1-0.3l28.9-18.5l4.3-6.1c0.3-0.3,0.6-0.6,0.9-0.9
	c0.3-0.3,0.7-0.5,1-0.7c0.4-0.1,0.8-0.3,1.2-0.4c0.4-0.1,0.8-0.1,1.2-0.1h16.1c0.5,0,1.1,0.1,1.6,0.3c0.5,0.1,0.9,0.4,1.4,0.7
	c0.4,0.3,0.8,0.6,1.1,1s0.6,0.9,0.8,1.4l1.3,3.4l24.5,12.1l0.4,0.2l0.3,0.6l-7.5,47.8c0,0,0.3,3.1,0.7,8.1
	c0.7,7.8,1.8,20.1,2.6,32.1c0.1,1.8-2.1,3.4-2,5.2c0.1,2.3,2.6,4.8,2.7,7c0.6,11.9,0.7,21.8-0.3,24.1c-0.3,0.8-1.3,1.3-2.9,1.7
	c-12.4,3.3-60.4-3.6-75.1-6.9c-0.3-0.1-0.5-0.1-0.7-0.2c-0.3-0.1-0.5-0.1-0.7-0.2c-0.3-0.1-0.5-0.2-0.7-0.3
	c-0.2-0.1-0.4-0.2-0.6-0.3c-0.1-0.1-0.3-0.1-0.4-0.2c-0.1-0.1-0.2-0.2-0.3-0.3c-0.1-0.1-0.2-0.2-0.3-0.3c-0.1-0.1-0.2-0.3-0.3-0.4
	C623.6,362.8,623.9,361,625.1,358.9L625.1,358.9z"/>
<path id="ef5568b9-6037-4ec0-9cfc-fa22633e4b80-33" class="st7" d="M621.5,429.2l9.7,8.7c1.9,0.8,3.7,1.7,5.5,2.7
	c1.7,1.1,3.4,2.2,5.1,3.4c1.6,1.3,3.1,2.6,4.6,4c1.5,1.5,2.8,3,4.1,4.6l6.3,8l-12.2,13.1l-5.1-4.8c-1.1-2.1-33.2-24.6-33.2-24.6
	l-3.5-4.4L621.5,429.2z"/>
<path id="Layer_00000004523181812166898660000016160685160466367373_" class="st6" d="M718.4,379.1l-5.8-56.5l-1.6-23.3l16.4-3
	c0,0-0.7,16.7,1.5,26.1c2.1,9.2,0.3,55.5,0.1,56.7c2.5,2.2,3.3,5.7,2.2,8.8c-1.2,3.1-4.2,5.1-7.5,5.1s-6.2-2-7.4-5.1
	S716,381.3,718.4,379.1L718.4,379.1z"/>
<path id="Layer_00000063616431513872668520000004923394692352962451_" class="st3" d="M709.6,246.5l0.4,0.2l0.3,0.6l5.9,9.5l0,0
	c2.4,2.6,4,6.3,6.7,10c8.7,11.7,9.6,40.2,9.4,55.8c-0.1,0.3,0.2,0.6,0.5,0.9c0.7,0.7,1.3,1.4,1.8,2.3s0.8,1.8,0.9,2.8
	c0.1,1,0.1,2-0.1,2.9c-0.2,1-0.5,1.9-1,2.8l-4.6,0.9l-15.6,3.3l-0.8,0.1l-1.9-7.3l-2.1-2.3l-4.3-22.4l-1.6-3.4l-4.6-9.8L709.6,246.5
	z"/>
<path id="af7fa85c-211d-4c02-a612-cf38cfa53f1c" class="st6" d="M672.1,223.6c-11.8,0-21.4-9.6-21.4-21.5c0-11.8,9.6-21.4,21.4-21.4
	c11.9,0,21.5,9.6,21.5,21.4C693.6,214,684,223.6,672.1,223.6z"/>
<path id="Layer_00000073721489959456820920000016015611322331762362_" class="st7" d="M688.3,217.1c-0.1,0.2-0.3,0.4-0.5,0.6
	c-0.2,0.1-0.4,0.3-0.6,0.4c-0.3,0.1-0.5,0.3-0.7,0.4c-0.3,0.1-0.5,0.1-0.8,0.2c-0.2,0-2.4-1.6-1.8-1.9c0.5-0.3,1-0.8,1.3-1.3
	c0.4-0.5,0.5-1.2,0.6-1.8c0-0.6-0.2-1.2-0.5-1.8s-0.7-1-1.3-1.4c-0.1,0-0.2,0-0.3-0.1s-0.1-0.1-0.2-0.1c-0.1-0.1-0.2-0.1-0.3-0.2
	c-0.1,0-0.2,0-0.3-0.1c-0.1,0-0.2,0-0.3-0.1s-0.2-0.1-0.3-0.1c-0.1-0.1-0.2-0.1-0.3-0.2c-0.1-0.1-0.2-0.1-0.3-0.1
	c-0.5-0.3-0.9-0.7-1.2-1.1c-0.3-0.4-0.6-0.9-0.9-1.4c-0.2-0.5-0.3-1-0.4-1.5s-0.1-1.1-0.1-1.6c0.1-0.5,0.2-0.9,0.3-1.4
	s0.2-0.9,0.3-1.3c0.2-0.5,0.4-0.9,0.5-1.4c0.2-0.4,0.4-0.8,0.6-1.3c-2.3-0.1-4.6-0.3-6.9-0.6c-2.3-0.3-4.5-0.7-6.8-1.2
	s-4.5-1.1-6.7-1.8s-4.4-1.6-6.5-2.5c-0.3-0.1-0.5-0.2-0.7-0.3c-0.3-0.1-0.5-0.3-0.8-0.4c-0.3-0.1-0.5-0.3-0.7-0.5
	c-0.3-0.1-0.5-0.3-0.8-0.5c-0.2-0.2-0.4-0.4-0.6-0.6c-0.5-0.4-1-0.8-1.4-1.3s-0.8-1.1-1.2-1.6c-0.3-0.5-0.7-1.1-1-1.7
	c-0.3-0.5-0.5-1.1-0.7-1.8c-0.1-0.1-0.1-0.3-0.1-0.5c0-0.1,0-0.3,0.1-0.5c0.1-0.1,0.1-0.3,0.2-0.4c0.1-0.2,0.3-0.3,0.4-0.4
	c0.1-0.1,0.2-0.1,0.3-0.2c0.1-0.1,0.2-0.1,0.3-0.1s0.3,0,0.4-0.1c0.1,0,0.2,0,0.3,0.1l-0.1-1c-0.1-0.3,0-0.5,0.1-0.8
	s0.3-0.6,0.5-0.8c0.3-0.2,0.5-0.3,0.8-0.3c0.3-0.1,0.6,0,0.9,0.1l1.1,0.4l0.1-0.8c0-0.3,0.1-0.5,0.2-0.8c0.2-0.3,0.4-0.5,0.7-0.6
	s0.5-0.2,0.8-0.2s0.6,0.1,0.8,0.3c0.1,0.1,0.3,0.1,0.4,0.1c0.1,0.1,0.3,0.1,0.4,0.1c0.1,0.1,0.3,0.1,0.4,0c0.1,0,0.3,0,0.4,0
	c0.1-0.1,0.3-0.1,0.4-0.2c0.1-0.1,0.2-0.1,0.3-0.2c0.1-0.1,0.1-0.2,0.2-0.3c0.1-0.1,0.2-0.3,0.2-0.4l0.8-1.8l0.1-0.1
	c2.6-2.9,6.8-4.6,11.6-4.5c4.2,0,8.3,1.2,12.3,2.4c0.4,0.1,0.8,0.2,1.2,0.3c0.5,0.1,0.9,0.3,1.3,0.5c0.3,0.2,0.7,0.4,1.1,0.6
	c0.4,0.3,0.8,0.5,1.1,0.8s0.5,0.6,0.8,0.9c0.2,0.3,0.4,0.7,0.5,1.1s0.2,0.8,0.2,1.2s-0.1,0.8-0.2,1.2c4.3-0.5,8.1,2.8,9.6,6.3
	c1.8,4.1,1.3,8.8,0.7,12.4C696.1,206,693,212.6,688.3,217.1L688.3,217.1z"/>
<path id="Layer_00000023264272321643006120000015436181196072845994_" class="st4" d="M791.4,528.8l0.9-21c2.5-1.3,5-2.4,7.5-3.4
	s5.1-1.8,7.8-2.5s5.4-1.2,8.1-1.5c2.7-0.3,5.5-0.5,8.2-0.5c-15.2,12.4-13.3,36.2-23.6,52.9c-1.6,2.6-3.5,5-5.6,7.1
	c-2.2,2.2-4.6,4.1-7.1,5.7c-2.6,1.6-5.3,2.9-8.2,4c-2.9,1-5.8,1.7-8.9,2l-12.7,7.8c-0.8-4.9-1.2-9.8-1-14.7s0.9-9.8,2.2-14.5
	c1.2-4.8,2.9-9.4,5.2-13.8c2.2-4.4,4.9-8.5,8-12.3c0.9-1.1,1.8-2.1,2.8-3.1c0.9-1,1.9-2,2.9-2.9s2-1.8,3.1-2.7s2.2-1.7,3.3-2.5
	C787.3,520.9,791.4,528.8,791.4,528.8z"/>
<path id="Layer_00000149355860222647511400000016803607055556689068_" class="st1" d="M366.5,423.6c-1.1,0-2.2-0.2-3.3-0.6
	c-1-0.4-2-1-2.8-1.8c-0.8-0.7-1.4-1.6-1.9-2.7c-0.5-1-0.7-2.1-0.7-3.2l-0.7-24c-0.1-2.2,0.8-4.4,2.3-6.1c1.6-1.6,3.7-2.5,6-2.6
	c2.2-0.1,4.4,0.8,6,2.3c1.7,1.6,2.6,3.7,2.7,5.9l0.7,24c0,1.2-0.2,2.3-0.6,3.3s-1,2-1.8,2.8c-0.7,0.8-1.7,1.5-2.7,1.9
	C368.7,423.3,367.6,423.5,366.5,423.6L366.5,423.6z"/>
<path id="Layer_00000060740940731282062290000013367330066720351632_" class="st8" d="M741.4,511.2c-12.9,0-27.1-0.5-42.5-1.4
	c-79.6-5.1-182.7-22.6-290.4-49.5c-107.6-26.9-206.9-59.8-279.6-92.7c-35.4-16.1-62.5-31.3-80.7-45.2c-19.2-14.7-27.7-27.6-25-38.1
	c5.1-20.7,50.7-25.2,88-25.3l0.1,3c-51.3,0.2-81.6,8.3-85.2,23c-4.7,18.6,33.3,47.7,104.1,79.8c72.5,32.9,171.6,65.8,279,92.6
	c107.5,26.8,210.4,44.3,289.9,49.4c77.6,4.9,124.7-2.9,129.4-21.6c3.8-15.5-21.6-38.3-71.7-64.2l1.4-2.7
	c36.4,18.9,78.6,45.9,73.2,67.6c-2.6,10.6-16.1,18-40,22C777.7,510.1,761,511.2,741.4,511.2L741.4,511.2z"/>
<path id="Layer_00000102527424067674400540000010879342214044763028_" class="st8" d="M56.1,491.6c-10.3,0-16.9-2.6-19.9-7.6
	c-5.8-10,3.9-27.5,28.9-52.1l2.1,2.2c-23.2,22.8-33.3,40-28.4,48.4c3.1,5.3,12.3,7.2,26.6,5.5s33.1-6.8,56.1-15.1
	c47.3-17,106.6-45.8,167.1-81c60.4-35.2,114.7-72.7,152.9-105.4c7.3-6.3,14-12.3,19.8-17.9c1.9-1.9,3.7-3.7,5.6-5.6
	c1.8-1.9,3.6-3.8,5.3-5.7c1.8-1.9,3.5-3.9,5.2-6c1.7-2,3.3-4,4.9-6.1c8.5-11.6,11.4-20.6,8.3-25.9c-5.2-8.9-26.9-8.1-61.1,2.3
	l-0.9-2.8c36.8-11.2,58.5-11.5,64.6-1c3.8,6.5,0.9,16.3-8.5,29.2c-1.6,2.1-3.3,4.1-5,6.2c-1.7,2.1-3.4,4.1-5.2,6.1
	c-1.8,1.9-3.6,3.9-5.4,5.8c-1.9,1.9-3.8,3.8-5.7,5.6c-5.9,5.7-12.6,11.8-19.9,18.1c-38.4,32.8-92.8,70.4-153.4,105.7
	S170,458.6,122.5,475.7c-23.2,8.4-42.2,13.5-56.7,15.3c-0.8,0.1-1.6,0.1-2.4,0.2c-0.8,0.1-1.6,0.1-2.5,0.2c-0.8,0.1-1.6,0.1-2.4,0.1
	C57.7,491.6,56.9,491.6,56.1,491.6L56.1,491.6z"/>
<path id="Layer_00000051373480901074159550000017241669494935304857_" class="st0" d="M604.4,368.6c0.3,0.2,0.5,0.4,0.7,0.6
	c0.1,0.3,0.2,0.6,0.3,0.9c0,0.3-0.1,0.5-0.2,0.8c0.5,1.5,0,9.9-0.1,11.5l-0.4,1c-0.1,0.1-0.2,0.3-0.3,0.4s-0.2,0.2-0.4,0.3
	c-0.1,0.1-0.3,0.1-0.4,0.2c-0.2,0.1-0.4,0.1-0.5,0.1c-0.8-0.2-65,1-65.7,0.6c-0.3-0.1-0.5-0.3-0.7-0.5c-0.2-0.3-0.3-0.5-0.4-0.8
	c-0.1-0.3,0-0.6,0.1-0.9s0.2-0.5,0.4-0.7c0.3-0.1,12.7-16,13-14.7c6.6-0.3,46.4,0.9,53.8,1C603.9,368.4,604.2,368.5,604.4,368.6
	L604.4,368.6z"/>
<path id="Layer_00000147187211256915623380000014440780705967534212_" class="st9" d="M605.1,382.4c-0.4,0.9-0.8,2-2,2l-65,0.7
	c-0.3,0-0.6-0.1-0.9-0.2c-0.3-0.1-0.5-0.3-0.7-0.6c-0.1-0.3-0.2-0.6-0.2-0.9s0.1-0.6,0.2-0.9L605.1,382.4z"/>
<path id="Layer_00000123434894295976470960000012180837795946977727_" class="st0" d="M541.4,381.9c-0.1,0.3-0.3,0.5-0.5,0.8
	c-0.2,0.2-0.4,0.4-0.6,0.6c-0.3,0.2-0.6,0.4-0.9,0.5c-0.3,0.1-0.6,0.1-0.9,0.2c-0.2,0.1-0.4,0.1-0.7,0s-0.5-0.2-0.7-0.3
	c-0.3-0.1-0.5-0.3-0.6-0.5c-0.1-0.3-0.2-0.5-0.3-0.8l-2.1-15.1c-0.4-11.8-18.3-88-21.1-101.4c-0.3-2.2,3.2-2.8,4.7-2l1,0.8
	l11.9,14.6c1.4,0.7,18.8,86.7,19.5,87.9C550.9,367.5,541.6,381.4,541.4,381.9L541.4,381.9z"/>
<path id="Layer_00000098194087861509195930000017147372059518162322_" class="st9" d="M518.7,264.7l22.7,117.2
	c-0.7,1.9-4.3,3.3-5.1,0.7c0,0-23.3-116.6-23.3-116.7C512.7,263.1,517.4,263,518.7,264.7L518.7,264.7z"/>
<path id="Layer_00000046313817287009452670000003857773060975113861_" class="st3" d="M519.4,269.5l11.5,16.1l13,61.5l-6,5.2
	L519.4,269.5z"/>
<path id="Layer_00000168796066766580322750000017795387644555085716_" class="st7" d="M596.4,375.7c0-0.3,0-0.7,0.1-1.1
	c0.1-0.3,0.1-0.7,0.1-1c0.1-0.3,0.1-0.7,0.1-1.1c0.2-1.8,0.7-3.5,2-3.4c2,0,1.6,2.7,1.1,5c-0.1,0.2-0.1,0.4-0.2,0.7
	c0,0.2,0,0.4-0.1,0.6c-0.1,0.3-0.1,0.5-0.1,0.7c0,0.3,0,0.5-0.1,0.7l-3.1-0.1C596.3,376.4,596.3,376,596.4,375.7L596.4,375.7z"/>
<path id="Layer_00000025410216117097799320000011954477862456677789_" class="st7" d="M577.9,372.1c0-0.5,0-1.2,0-1.8
	c0.1-1.1,0.5-2,1.7-2c0.1,0,0.1,0,0.2,0c0.1,0.1,0.1,0.1,0.2,0.1c0,0,0,0,0.1,0s0.1,0,0.2,0.1c1.3,0.6,0.7,2.9,0.7,4h-1l-2.1-0.1
	C577.9,372.3,577.9,372.2,577.9,372.1L577.9,372.1z"/>
<path id="Layer_00000008839291991969985640000003276104882856683700_" class="st7" d="M571.5,371.8c0.1-1.4-0.2-3.8,1.7-3.7
	c2.1,0,1.5,2.9,1.5,4.2h-1.1l-2.1-0.1C571.5,372.1,571.5,371.9,571.5,371.8L571.5,371.8z"/>
<path id="Layer_00000131348412923714213290000005540606637061736122_" class="st7" d="M565.1,371.6c0.1-1.4-0.2-3.9,1.8-3.8
	c2.1,0.1,1.4,2.9,1.4,4.2h-1l-2.2-0.1C565.1,371.8,565.1,371.7,565.1,371.6L565.1,371.6z"/>
<path id="Layer_00000005987319284648579060000002708125346884383924_" class="st7" d="M558.8,371.3c0-1.4-0.2-3.8,1.7-3.7
	c2.1,0,1.4,2.9,1.4,4.2l-1-0.1h-2.2C558.8,371.6,558.8,371.4,558.8,371.3z"/>
<path id="Layer_00000131327559698823279440000009789927935265727423_" class="st7" d="M552.4,371.1c0-1.3-0.2-3.4,1.2-3.7
	c0.1,0,0.1,0,0.1-0.1c0.1,0,0.1,0,0.2,0c0,0,0,0,0.1,0s0.1,0,0.1,0c0.1,0,0.1,0,0.2,0c0,0,0,0,0.1,0c0,0,0,0,0.1,0.1c0,0,0,0,0.1,0
	c1.5,0.4,0.9,2.9,1,4.1h-1.1l-2.1-0.1C552.4,371.3,552.4,371.2,552.4,371.1L552.4,371.1z"/>
<path id="Layer_00000014626215621112270540000004074034517450398132_" class="st7" d="M589.8,368.5c0,0,0,0,0-0.1c0,0,0,0,0-0.1
	c0.1,0,0.1,0,0.1-0.1s0-0.1,0-0.1c0.1-0.9,0.6-1.5,1.6-1.5c1,0.1,1.4,0.7,1.5,1.6c0,0.1,0,0.3,0,0.5s0,0.4,0,0.6s0,0.4,0,0.6
	s0,0.4-0.1,0.6c0,0.1,0,0.3,0,0.4l-3.2-0.2C589.8,370.2,589.7,369.3,589.8,368.5L589.8,368.5z"/>
<path id="Layer_00000175282729370462833990000014295776026192933278_" class="st7" d="M583.5,367.9c0.1-0.9,0.6-1.6,1.6-1.5
	c1.1,0,1.4,0.7,1.5,1.6c0,0.2,0,0.4,0,0.7c0,0.2,0,0.4,0,0.6s0,0.4,0,0.6c0,0.3,0,0.5-0.1,0.7l-3.1-0.1
	C583.4,369.8,583.3,368.8,583.5,367.9L583.5,367.9z"/>
<path id="Layer_00000139268691484264216830000014084682650965144457_" class="st7" d="M577.1,367.8c0.1-1,0.5-1.7,1.6-1.7
	c1.1,0.1,1.5,0.8,1.5,1.8c0.1,0,0.1,0,0.1,0.1s0,0.1,0,0.2c0,0,0,0,0,0.1s0,0.1,0,0.2c0,0.7-0.1,1.4-0.1,1.8h-2.3l-0.9-0.1
	C577,369.6,577,368.6,577.1,367.8L577.1,367.8z"/>
<path id="Layer_00000175285412696162571690000003562278839902244538_" class="st7" d="M591.5,372.4c2.1,0,1.5,2.9,1.5,4.2l-3.2-0.1
	C589.9,375.2,589.4,372.3,591.5,372.4z"/>
<path id="Layer_00000056408628475936647670000013946505076647328924_" class="st7" d="M585.2,372.1c2.1,0.1,1.4,2.9,1.4,4.2
	l-3.2-0.1C583.5,374.9,583.1,372,585.2,372.1z"/>
<path id="Layer_00000119108006027363042550000003728558151592483260_" class="st7" d="M577.9,372.1c0.1-0.1,0.1-0.1,0.2-0.1
	c0.1-0.1,0.1-0.1,0.2-0.1c0.1,0,0.2,0,0.3,0s0.1,0,0.2,0c0.1,0,0.3,0,0.4,0c0.1,0,0.2,0,0.3,0.1s0.2,0.1,0.3,0.2s0.1,0.2,0.2,0.3
	c0.6,0.9,0.2,2.6,0.2,3.6L577,376C577.1,374.9,576.9,372.8,577.9,372.1L577.9,372.1z"/>
<path id="Layer_00000152976350125388276370000010316110807768953754_" class="st7" d="M571.5,371.8c0.1,0,0.1,0,0.2-0.1
	c0.1,0,0.2,0,0.3-0.1c0.1,0,0.1,0,0.2,0c0.1,0,0.1,0,0.2,0c0.1,0,0.3,0,0.4,0c0.1,0.1,0.2,0.1,0.3,0.2c0.1,0,0.2,0.1,0.3,0.2
	s0.2,0.2,0.2,0.3c0.6,0.9,0.3,2.6,0.3,3.5l-3.2-0.1C570.8,374.6,570.5,372.5,571.5,371.8z"/>
<path id="Layer_00000173145984728981319850000017441068062570527617_" class="st7" d="M565.1,371.6c0.1-0.1,0.2-0.1,0.3-0.1
	c0.1-0.1,0.1-0.1,0.2-0.1c0.1,0,0.1,0,0.2,0c0.1-0.1,0.2-0.1,0.3,0c0.1,0,0.2,0,0.3,0s0.3,0,0.4,0.1c0.1,0.1,0.1,0.1,0.2,0.2
	c0.1,0.1,0.2,0.2,0.3,0.3c0.5,0.9,0.2,2.6,0.2,3.6l-3.2-0.2C564.4,374.4,564.1,372.3,565.1,371.6z"/>
<path id="Layer_00000052073989322801092550000002842762008088217761_" class="st7" d="M558.8,371.3c0.1,0,0.1,0,0.2-0.1
	c0.1,0,0.1,0,0.2-0.1c0.1,0,0.2,0,0.3,0s0.1,0,0.2,0c0.1,0,0.3,0,0.4,0c0.1,0.1,0.2,0.1,0.3,0.2c0.1,0,0.2,0.1,0.3,0.2
	s0.1,0.1,0.2,0.2c0.6,1,0.2,2.7,0.2,3.6l-3.2-0.1C558,374.1,557.7,372,558.8,371.3L558.8,371.3z"/>
<path id="Layer_00000009555161456921899740000005500762339789058733_" class="st7" d="M552.4,371.1c0.1-0.1,0.1-0.1,0.2-0.1
	c0.1-0.1,0.1-0.1,0.2-0.1c0.1,0,0.2,0,0.3-0.1c0.1,0,0.1,0,0.2,0.1c0.1-0.1,0.3-0.1,0.4,0c0.1,0,0.2,0,0.3,0.1s0.2,0.1,0.3,0.2
	s0.1,0.2,0.2,0.3c0.6,0.9,0.2,2.6,0.3,3.6l-3.2-0.2C551.7,373.9,551.4,371.8,552.4,371.1z"/>
<path id="Layer_00000103231708690797919720000004930272253586731418_" class="st6" d="M586.7,374.7c-2.2,2.5-5.6,3.4-8.7,2.3
	c-3.1-1.1-5.3-4-5.3-7.3c-0.1-3.3,1.8-6.3,4.9-7.5c0.3-1.3,13.9-45.5,19-53.5c5.1-8.2,10.1-24.1,10.1-24.1l14.4,8.2l-9.2,21.5
	l-24.3,51.4C589.2,368.6,588.8,372.2,586.7,374.7z"/>
<path id="Layer_00000028287631277657915270000007098708577993952402_" class="st3" d="M587.4,315.1c0.1-0.9,0.4-1.9,0.9-2.8
	s1.1-1.6,1.8-2.3c0.7-0.7,1.5-1.2,2.4-1.6c0.4-0.2,0.7-0.3,0.8-0.6c5-14.8,15.3-41.3,27.4-49.5c3.8-2.6,6.6-5.6,9.7-7.2V251
	l17.5-2.6l-13.5,42.9l-10.1,10.4l-11.5,19.7l-2.8,1.5l-4.2,6.3l-18.4-11.1C587.3,317.1,587.3,316.1,587.4,315.1L587.4,315.1z"/>
</svg>
