<svg width="1440" height="694" viewBox="0 0 1440 694" fill="none" xmlns="http://www.w3.org/2000/svg">
<mask id="mask0" style="mask-type:alpha" maskUnits="userSpaceOnUse" x="-80" y="0" width="1520" height="694">
<path d="M326.267 655.056C89.709 674.934 73.7319 675.602 -80 694L-42.9756 0H1440V679.915C1270.07 658.542 665.417 626.558 326.267 655.056Z" fill="#C4C4C4"/>
</mask>
<g mask="url(#mask0)">
<rect width="1490" height="735" fill="url(#paint0_linear)"/>
<rect width="1440" height="681" fill="url(#paint1_linear)"/>
<path d="M517.091 537.459C393.069 541.535 114.688 517.421 -9 504.855L-1.99879 0H1440.25V564.356C1444.4 566.795 1443.4 566.255 1440.25 564.46V564.356C1431.45 559.18 1399.47 540.592 1315.73 492.119C1161.7 402.967 1013.68 456.968 893.155 492.119C772.635 527.271 672.117 532.365 517.091 537.459Z" fill="url(#paint2_linear)"/>
<rect x="-1" y="-3" width="1440" height="771" fill="url(#paint3_linear)"/>
</g>
<defs>
<linearGradient id="paint0_linear" x1="745" y1="0" x2="745" y2="735" gradientUnits="userSpaceOnUse">
<stop stop-color="#A4CFE7"/>
<stop offset="1" stop-color="#D4DAEE"/>
</linearGradient>
<linearGradient id="paint1_linear" x1="1.00001" y1="303.5" x2="1438" y2="381.5" gradientUnits="userSpaceOnUse">
<stop stop-color="#E6DEF0"/>
<stop offset="1" stop-color="#F9F7FB"/>
</linearGradient>
<linearGradient id="paint2_linear" x1="-8.49992" y1="192.059" x2="1443.18" y2="320.714" gradientUnits="userSpaceOnUse">
<stop stop-color="#A5D0E7"/>
<stop offset="1" stop-color="#E4DEEE"/>
</linearGradient>
<linearGradient id="paint3_linear" x1="997.5" y1="487.5" x2="585.684" y2="524.013" gradientUnits="userSpaceOnUse">
<stop offset="0.182292" stop-color="#DEE6F3" stop-opacity="0"/>
<stop offset="1" stop-color="#CBE3F0"/>
</linearGradient>
</defs>
</svg>
