<svg width="1700" height="943" viewBox="0 0 1700 943" fill="none" xmlns="http://www.w3.org/2000/svg">
<mask id="mask0_3816_255" style="mask-type:alpha" maskUnits="userSpaceOnUse" x="0" y="0" width="1700" height="943">
<path fill-rule="evenodd" clip-rule="evenodd" d="M0 0H1700V943C1700 943 1462.26 803.683 1131.67 803.683C801.073 803.683 0 943 0 943V0Z" fill="white"/>
</mask>
<g mask="url(#mask0_3816_255)">
<rect x="-12" width="1712" height="1118" fill="#E5F4FA"/>
<rect x="-12" width="1712" height="1118" fill="url(#paint0_linear_3816_255)"/>
<mask id="mask1_3816_255" style="mask-type:alpha" maskUnits="userSpaceOnUse" x="0" y="0" width="1700" height="943">
<path fill-rule="evenodd" clip-rule="evenodd" d="M0 0H1700V943C1700 943 1462.26 803.683 1131.67 803.683C801.073 803.683 0 943 0 943V0Z" fill="white"/>
</mask>
<g mask="url(#mask1_3816_255)">
<mask id="mask2_3816_255" style="mask-type:alpha" maskUnits="userSpaceOnUse" x="-114" y="707" width="401" height="246">
<rect x="-114" y="707" width="400.56" height="245.055" fill="white"/>
</mask>
<g mask="url(#mask2_3816_255)">
<path fill-rule="evenodd" clip-rule="evenodd" d="M-121.276 707C-105.966 707 -93.3854 711.917 -83.5485 721.74C-73.6984 731.561 -68.7833 744.113 -68.7833 759.394V894.183C-68.7833 906.85 -64.3012 917.653 -55.3336 926.603C-46.3661 935.56 -35.5409 940.029 -22.8515 940.029C-10.1654 940.029 0.666439 935.56 9.63068 926.603C18.5949 917.653 23.0803 906.85 23.0803 894.183V759.394C23.0803 744.113 27.9988 731.561 37.8489 721.74C47.6824 711.917 60.2628 707 75.5734 707C90.884 707 103.461 711.917 113.301 721.74C123.148 731.561 128.066 744.106 128.066 759.377V894.44C128.066 936.127 113.357 971.589 83.936 1000.84C54.5246 1030.08 18.9221 1044.7 -22.8515 1044.7C-64.6251 1044.7 -100.228 1030.08 -129.636 1000.84C-159.064 971.589 -173.769 936.127 -173.769 894.44V759.377C-173.769 744.106 -168.851 731.561 -159.001 721.74C-149.167 711.917 -136.587 707 -121.276 707" fill="#151A21"/>
<circle cx="156.456" cy="961.519" r="129.002" fill="url(#paint1_linear_3816_255)"/>
<path fill-rule="evenodd" clip-rule="evenodd" d="M40.8377 1190.14C20.6257 1190.14 4.01795 1183.65 -8.96801 1170.7C-21.9714 1157.75 -28.4601 1141.2 -28.4601 1121.05V943.319C-28.4601 926.616 -34.377 912.372 -46.2154 900.571C-58.0537 888.76 -72.3444 882.868 -89.0961 882.868C-105.843 882.868 -120.143 888.76 -131.977 900.571C-143.811 912.372 -149.732 926.616 -149.732 943.319V1121.05C-149.732 1141.2 -156.225 1157.75 -169.229 1170.7C-182.21 1183.65 -198.818 1190.14 -219.03 1190.14C-239.242 1190.14 -255.845 1183.65 -268.836 1170.7C-281.835 1157.75 -288.328 1141.21 -288.328 1121.07V942.981C-288.328 888.013 -268.91 841.253 -230.07 802.689C-191.243 764.129 -144.243 744.853 -89.0961 744.853C-33.9494 744.853 13.0505 764.129 51.8731 802.689C90.7219 841.253 110.135 888.013 110.135 942.981V1121.07C110.135 1141.21 103.642 1157.75 90.639 1170.7C77.6574 1183.65 61.0497 1190.14 40.8377 1190.14" fill="#FA5528"/>
<path fill-rule="evenodd" clip-rule="evenodd" d="M40.8377 1190.14C20.6257 1190.14 4.01795 1183.65 -8.96801 1170.7C-21.9714 1157.75 -28.4601 1141.2 -28.4601 1121.05V943.319C-28.4601 926.616 -34.377 912.372 -46.2154 900.571C-58.0537 888.76 -72.3444 882.868 -89.0961 882.868C-105.843 882.868 -120.143 888.76 -131.977 900.571C-143.811 912.372 -149.732 926.616 -149.732 943.319V1121.05C-149.732 1141.2 -156.225 1157.75 -169.229 1170.7C-182.21 1183.65 -198.818 1190.14 -219.03 1190.14C-239.242 1190.14 -255.845 1183.65 -268.836 1170.7C-281.835 1157.75 -288.328 1141.21 -288.328 1121.07V942.981C-288.328 888.013 -268.91 841.253 -230.07 802.689C-191.243 764.129 -144.243 744.853 -89.0961 744.853C-33.9494 744.853 13.0505 764.129 51.8731 802.689C90.7219 841.253 110.135 888.013 110.135 942.981V1121.07C110.135 1141.21 103.642 1157.75 90.639 1170.7C77.6574 1183.65 61.0497 1190.14 40.8377 1190.14" fill="url(#paint2_linear_3816_255)"/>
<path fill-rule="evenodd" clip-rule="evenodd" d="M285.459 1360.65C264.866 1360.65 244.856 1357.33 225.43 1350.69V1488.44C225.43 1508.64 218.989 1525.25 206.133 1538.24C193.264 1551.23 176.818 1557.72 156.825 1557.72C136.798 1557.72 120.378 1551.23 107.504 1538.24C94.6483 1525.25 88.2202 1508.64 88.2202 1488.44V966.547C88.2202 946.34 94.6483 929.744 107.504 916.757C120.378 903.761 136.798 897.265 156.825 897.265C176.818 897.265 193.264 903.761 206.133 916.77C218.989 929.775 225.43 946.396 225.43 966.617V1161.39C225.43 1178.15 231.27 1192.46 243.007 1204.31C254.727 1216.16 268.88 1222.08 285.459 1222.08C302.026 1222.08 316.178 1216.16 327.898 1204.31C339.614 1192.46 345.489 1178.15 345.489 1161.39V966.617C345.489 946.396 351.917 929.775 364.773 916.77C377.642 903.761 394.067 897.265 414.094 897.265C434.091 897.265 450.528 903.761 463.401 916.761C476.253 929.766 482.699 946.379 482.699 966.604V1161.73C482.699 1216.91 463.462 1263.87 425.023 1302.58C386.567 1341.29 340.055 1360.65 285.459 1360.65Z" fill="#FA5528"/>
</g>
</g>
</g>
<defs>
<linearGradient id="paint0_linear_3816_255" x1="-929.757" y1="-619.555" x2="-929.757" y2="1697.1" gradientUnits="userSpaceOnUse">
<stop offset="0.158758" stop-color="#9ED6EF"/>
<stop offset="0.754954" stop-color="white"/>
<stop offset="1" stop-color="white"/>
</linearGradient>
<linearGradient id="paint1_linear_3816_255" x1="94.8039" y1="774.145" x2="-21.9385" y2="923.842" gradientUnits="userSpaceOnUse">
<stop stop-color="#9ADBED"/>
<stop offset="0.511824" stop-color="#EBDDF5"/>
<stop offset="1" stop-color="#ECBACB"/>
</linearGradient>
<linearGradient id="paint2_linear_3816_255" x1="99.8196" y1="841.895" x2="233.03" y2="918.521" gradientUnits="userSpaceOnUse">
<stop stop-color="#172687" stop-opacity="0.01"/>
<stop offset="1" stop-color="#151A21"/>
</linearGradient>
</defs>
</svg>
